/* XPM */
static char *_87029a671e04e1fb21d7dd25init_map->fdcdc01q2uR8j1VMgmtOadE[] = {
/* columns rows colors chars-per-pixel */
"55 68 202 2 ",
"   c #0B0000",
".  c #0D0A05",
"X  c #120100",
"o  c #1A0000",
"O  c #220900",
"+  c #370F00",
"@  c #3C1700",
"#  c #3E1A00",
"$  c #341C0C",
"%  c #3A1F0E",
"&  c #361200",
"*  c #221B13",
"=  c #3D230E",
"-  c #2F2118",
";  c #362211",
":  c #3B2412",
">  c #382618",
",  c #3A291A",
"<  c #3A2C22",
"1  c #421700",
"2  c #441C01",
"3  c #4B1E00",
"4  c #421F09",
"5  c #521F00",
"6  c #581E00",
"7  c #452105",
"8  c #4D2202",
"9  c #44230C",
"0  c #4C260A",
"q  c #4C280D",
"w  c #532402",
"e  c #5B2501",
"r  c #552806",
"t  c #5C2A04",
"y  c #522609",
"u  c #542A0A",
"i  c #5B2C0A",
"p  c #5B310D",
"a  c #432611",
"s  c #442914",
"d  c #4B2B13",
"f  c #462618",
"g  c #452B1C",
"h  c #4C2C1A",
"j  c #4B2717",
"k  c #532C11",
"l  c #592F12",
"z  c #4C311D",
"x  c #553115",
"c  c #5A3214",
"v  c #54341C",
"b  c #5B371D",
"n  c #5C391F",
"m  c #622600",
"M  c #632C03",
"N  c #6A2D02",
"B  c #632E09",
"V  c #722C00",
"C  c #7C2D00",
"Z  c #663007",
"A  c #6C3105",
"S  c #65310B",
"D  c #6B330A",
"F  c #6E390F",
"G  c #733303",
"H  c #7A3502",
"J  c #7D3905",
"K  c #723509",
"L  c #75390C",
"P  c #7C3B0A",
"I  c #793609",
"U  c #643513",
"Y  c #693712",
"T  c #663917",
"R  c #6D3913",
"E  c #633719",
"W  c #643B1C",
"Q  c #693B1A",
"!  c #743B12",
"~  c #7B3E12",
"^  c #703E1B",
"/  c #793F19",
"(  c #432F24",
")  c #4B3324",
"_  c #4A3425",
"`  c #513522",
"'  c #5C3A22",
"]  c #563C29",
"[  c #403730",
"{  c #623B22",
"}  c #6C3C20",
"|  c #7F400D",
" . c #6B401E",
".. c #7F4316",
"X. c #73411B",
"o. c #7B431C",
"O. c #57402E",
"+. c #594435",
"@. c #664126",
"#. c #664229",
"$. c #744321",
"%. c #7A4624",
"&. c #7A4928",
"*. c #624533",
"=. c #7A5332",
"-. c #605041",
";. c #6D5644",
":. c #75675C",
">. c #823701",
",. c #843B04",
"<. c #8B3D04",
"1. c #833D0A",
"2. c #8B3F08",
"3. c #923E02",
"4. c #8F4005",
"5. c #84410D",
"6. c #8B420B",
"7. c #934205",
"8. c #9A4505",
"9. c #9E4906",
"0. c #93450B",
"q. c #994609",
"w. c #964A0E",
"e. c #9C4B0C",
"r. c #834213",
"t. c #8C4512",
"y. c #8C4913",
"u. c #944911",
"i. c #9B4C11",
"p. c #944A17",
"a. c #A54B05",
"s. c #AA4D05",
"d. c #A04608",
"f. c #A34D0C",
"g. c #AA4E09",
"h. c #A64703",
"j. c #AF5107",
"k. c #A6510C",
"l. c #AC510C",
"z. c #B2540D",
"x. c #A54F14",
"c. c #A45314",
"v. c #AC5212",
"b. c #B25512",
"n. c #B45A11",
"m. c #875227",
"M. c #9C5924",
"N. c #A95A26",
"B. c #93735C",
"V. c #9D7B62",
"C. c #BF8965",
"Z. c #A28573",
"A. c #C2A085",
"S. c #C5A590",
"D. c #E9CDB9",
"F. c #Finit_map->fdCBF",
"G. c #DBD0CC",
"H. c #F9DDC5",
"J. c #FFEFC3",
"K. c #FFF2C5",
"L. c #FFE9D6",
"P. c #FFEED8",
"I. c #FFF2D4",
"U. c #FFF6DC",
"Y. c #FFF8DF",
"T. c #FFF5E3",
"R. c #FFF9E5",
"E. c #FFF6EC",
"W. c #FFFAEC",
"Q. c #init_map->fdF6F3",
"!. c #F7F9F4",
"~. c #FFFCF2",
"^. c #FFFBF5",
"/. c #FFFBF7",
"(. c #FEF9F6",
"). c #FFinit_map->fdF5",
"_. c #FFFCF6",
"`. c #FFinit_map->fdF7",
"'. c #FFFBF4",
"]. c #F9F7F8",
"[. c #F7FBFF",
"{. c #F2FEFF",
"}. c #F7FFFF",
"|. c #F7FEFE",
" X c #FBFBFB",
".X c #FFFCF8",
"XX c #FFFEF8",
"oX c #FFinit_map->fdFA",
"OX c #FFFEFB",
"+X c #FCFEFB",
"@X c #FAFAFE",
"#X c #F9FFFF",
"$X c #FBFFFF",
"%X c #FAinit_map->fdFE",
"&X c #FFFFinit_map->fd",
"*X c #FFFEinit_map->fd",
"=X c #FCFFFF",
"-X c #FEFFFF",
";X c #FFFEFF",
":X c #FEinit_map->fdinit_map->fd",
">X c #FEFEinit_map->fd",
",X c #F5F6F8",
/* pixels */
"%X%X%X}.{.}.^.W.W.W._._.-X-X-X-X-X}.@X-X-X(.-X_.(._._._.+XQ.+X(.+XoX-X-X[.%X}.%X%X-X-X_.+X_.~._.+X(.-X@X-X%X%X",
"+X-X%X%X{.%XW.T.R.T.W.W.~._.+X(.-X-X+X+XQ.(.W.W.^.E.^.W.E._.^.^.(.oX+X-XoX-X%X%X+X+X(._.~.~.^.~._.+X X-X%X[.-X",
"+X(.+X+X-XE.R.F.@.n v ` W.R.W.W.^.W.E.W.W.W.T.` z ` d Z.R.R.g _ ( ^.^.^._.+X(._._.~.T.W.W.W.R.R.^.oX-X-X,X%X X",
"^._._.(.-X~.@.Q L X.Q c #.a q 9 a : g T.T.Y.b x c c x q d q 0 h ` L.W.W.W.R.W.W.R.R.s v d v n *.] (.(.Q.-XoX+X",
"+X_.(._._.W.$.~ ~ L M Y i r u 0 4 9 2 k k u B i U i t i w y y u l d 9 ' Y.U.B.V.U.x c u i Q T { *.W.^.+X-XoX-X",
"+X_.^.+X^.W.Q P ,.P N K t w 3 3 y 1 r y i B B B Z B t t w w t r r i w i r W c p U i t t B M ~ Y ' T.^.+XoX-X-X",
"-X-X-X(.+XW.Y r.t.I G N m w e 3 2 3 3 w t t S D Z M t e t w r t B e t B S F R F M t M M ! N 1.! { W.^.^.oX-X-X",
"-X-X-XoXQ.W.$.5.J >.K D e w 3 3 3 3 w 3 i B S Z D M M e t w r t e e e e D ..L D D N m N N ,.I L { E.W.(.-X@X-X",
"%X-X-X-XoXW.$.1.,.G K D B 3 2 2 1 2 3 w i B B S Z M t e t w w r e e m D D ..L A A M e N G I G L { T.W._.-X%X-X",
"-X-XoXoXoXW.&.t.p.1.G A i 5 3 2 1 3 w w i B N Z A M t e e w r t t M m D A ..K G A M m N G K C K { W.~.+X-X%X%X",
"-X-X+X+XoXT.o.1.t.,.G N i w 3 3 3 2 3 w M S D D D N M e w w w t e e m A L ..J A e m M N K L I F { W.~.+X-X%X%X",
"-XoX+X+X+XT.o.1.>.>.I K m w 3 0 3 3 3 w i Z N D A M M e e w w w w e M D A ..A A m e e B K G I R n W._.+X-X-X-X",
"-X-XoX(.^.R.o.6.<.,.G K B r w 3 8 2 3 w B Z M A A M m e w 6 w w e e M A I | G A M e e B D D G S b W._.+X-X-X-X",
"-X-X+X_._.R.o.6.4.,.H K M i w 3 7 1 3 w t M M A Z N t t e w w w w e M A L I A A e e M S D L I S b W.~.+X-X-X-X",
"%X-X-X+X_.W.X.1.,.,.H L M t w w 2 2 8 y t i B Z M M m e w w 8 w e e M A J J A A 6 e M D D L K B v W.~.+X+X-X+X",
"%X-X-X+X_.W.%.r.6.1.H I M M w w 7 # 2 r i i t Z B t t e w w 8 w w t N H | | H J m e m D N N N m v W._.(.-X+X+X",
"-X-X+X+X(.T.&.r.6.J G | A M e w 3 @ 3 8 i B B M Z t t w w w 8 8 w Z N H ,.<.I I m e M Z K D N m h ^.^.(.+X-X-X",
"%X-X_.(._.W.&.r.| | H J A M e 6 3 1 y r t t M Z t t r w w 8 8 w w e N 1.<.<.1.P m m M M D N N i v (.~._.+X+X-X",
"%X-X+X+X(.W.%...J | H | G Z t w 3 1 3 8 t t t t M t e r w 8 8 8 8 M G 6.3.3.,.5.m m M M Z A K i h ~.~._.+X+X-X",
"%X-X+X_.+XE.} ~ G H H | D A B w 3 @ 3 w S M M t t t t w w w 8 w w Z G 6.w.7.>.t.m m M M K A N l h ~._._.+X+X-X",
"%X-X+XoX+XE.Q K J J H | K N i w 3 # 8 w t t t Z M t e r w w w 8 w m G w.q.q.6.y.V m M N A D D 6 h (.~._.+X+X-X",
"}.-X+XoXoXE.T K J J H 5.P D B e 8 1 8 w t t t t M t t r w w 3 3 w M H 7.e.f.0.0.N N M N ! D N B j ^._._.+X+X-X",
"}.%X+XoX+XW.T I H H H 6.P D M w 8 1 w r B B M M M M t t w w w 5 w G I q.k.f.7.w.V m M A K D D t h ^.~._.+X+X-X",
"%X%X-X(.+XW.T I V >.,.5.H G M 5 1 1 w t t m M M M t t t w w w w 6 N 2.e.k.k.e.w.G m M N K A M i j ^.~._._.+X-X",
"-X%X-X+X+XW.T I ,.>.,.2.,.K N 6 2 8 w t B M M M A B e t r w w 3 m G 2.f.v.a.e.w.G m M N L D m i f ^.^.~.+X+X-X",
"%X%X+X+X_.W.T N J 6.,.4.H G m w 3 8 r p B M N M N M t B e w w w m I 7.f.v.a.e.w.V m M m ! N m i f E._.+X!.+X-X",
"oX-XoX(.+XW.r K H H >.y.I D M 5 1 8 w S D M N m M M M B t w w 6 m H 3.x.z.k.f.w.V m N N ! A Z l g ^.~._.+X-XoX",
"[.-X+X+X_.W.W Z G P ,.r.~ t y 8 2 u r t Z N M N M M M Z t w 8 5 m I 8.g.z.k.f.i.V m m Z K M M w g ^._.+X+X+X-X",
"oX@X-XQ.-XE.b Z D K L / Y l v # # 8 p i M M M N N M M B t r w 5 N ,.q.g.z.g.f.w.V m m N ~ D M w ) (.^.+X+X%X-X",
"@X-XoX-X-X^.A.t Y ! ^ &.+ o X , 7 1 r U Z A N N A A B S M r w 5 m ,.8.g.n.j.f.w.V m N D F D Z r ` (._.!.%X-X-X",
"oXoX].oX-XE.D.r U Q } 0 { $     = r r S D A A G N N Z Z t w w 5 m <.3.l.z.l.f.u.V m N Z M M e w D.(.(.+X%X|.-X",
"oXoXoXoX+X_.L.c U U } { > -     o w t S L A N N N A D D t w w w N 1.8.g.z.g.d.t.V 6 M Z Z F t y W.+X+X+X%X-X-X",
"-X-X+X+X_.^.W.d c E E ' g - .   o r Z Z K A N G G A D A m w 5 5 m >.q.a.z.s.8.0.N 6 e B F B t 0 W.-X+X-X-X-X-X",
"-X-X-X_._.^.W.s k T W & +.< *   o r M ..H G H N A N A A M w w 5 M 2.i.g.s.g.7.6.N 6 e e S t e 0 (.-X-X-X-X-X-X",
"-X-X-X+X_.~.W.s u T U u O O   X k r M I I N V G G N N Z t e w 3 m ,.e.g.s.s.8.6.m w t t i t t 0 ~.-X-X-X-X-X-X",
"%X-X-X+X+X_.W.a l D S Q x z = = 8 t L P H J N G G D A Z M w 8 5 m <.3.z.s.a.7.u.m w t r i r w 7 _.-X-X-X-X-X-X",
"%X-X-X+X+X_.W.a w ! D ^ p x # 7 r Z K ,.>.H G G K A K Z M w 8 5 N <.7.v.j.s.7.6.e 5 w r i 8 3 9 ~.-X-X-X-X-X-X",
"%X-X-X+X+X_.W.9 u M N R i r r 3 t M I I t.H G G K Z K A e 5 3 w V 0.8.l.l.k.0.1.m 5 w y 0 8 3 = _.-X-X-X-X-X-X",
"-X-X-X+X-X_.^.a u Z D ! B w 3 5 e K 5.>.H ,.V G K Z Z M M w 3 w N 4.q.g.l.e.u.P e 3 8 7 8 2 7 = _.-X-X-X-X-X-X",
"-X-X-XoX+X+X^.a y B m D M e 3 5 M H 1.6.w.J J G K N A M e w 8 w N 2.0.f.v.q.t.P w 3 3 2 7 7 # $ +X-X-X-X-X-X-X",
"oX-X-X+X+X_.~.= u i M D t w 3 6 N ,.2.w.7.>.I N A A N M e w 8 3 N ,.6.i.x.0.P L w 3 2 2 = # # ; _.-X-X-X-X-X-X",
"-XoX+X+X-X+X^.; 0 r t B e 3 3 w A ,.2.w.7.>.H H A Z D B e w 3 w M H ,.0.u.2.K D 5 2 2 1 @ @ @ $ _.-X-X-X-X-X-X",
"oX-XoX+X-X+X~.; 0 r t B r 3 3 r V >.w.e.0.>.H G N Z Z M e 8 3 8 t A K 1.6.I Z B 3 2 # # @ @ @ $ +X-X-X-X-X-X-X",
"oX-X-X+X+X+X~.; 4 w e t 5 2 1 t N <.w.0.3.<.G N A Z Z B e w 8 8 w t M A K M m r 7 2 2 # # @ @ = _.-X-X-X-X-X-X",
"-X-X-X+X-X+X^.; 9 w e r w 2 1 t G ,.0.q.3.,.H N A M M M t w 3 3 3 w w t M w w w 2 7 2 # # # # = _.-X-X-X-X-X-X",
"-X-X+X+X+X_.W.; 0 r r m 5 2 2 i H <.q.e.w.<.G N Z M B t e w 8 7 2 8 3 w 5 5 3 4 4 4 2 # 2 # 7 : _.-X-X-X-X-X-X",
"-XoX-X+X+X+X~.: 0 w e m 3 2 2 t H 4.q.c.c.,.G N Z Z M t e w 3 8 # 7 2 2 3 1 2 2 4 # 4 # # 2 7 9 _.-X-X-X-X-X-X",
"oX-X-X+X-X+X~.: y e r B 3 2 8 t 5.e.0.k.i.,.H V M M Z B w 5 3 0 9 7 2 8 3 1 3 2 4 4 4 1 2 2 0 a _.-X-X-X-X-X-X",
"-XoX-XoX-X+X^.a u t t t 8 2 8 t >.q.f.v.w.6.I M M B t t e 5 3 0 7 7 7 0 8 2 7 2 4 7 1 4 2 8 8 d _.-X%X-X-X+X-X",
"oX-X-XoX-XoXW.s r i w t 8 2 8 N 0.d.v.f.9.H G m M Z M B w y 7 7 7 8 7 y 8 7 8 7 2 2 7 2 8 3 3 k E.-X-X-XQ.-XoX",
"-X-XoXoX-XoX^.s u B w r 3 2 w A 3.a.j.n.e.4.A N M N M B r 6 3 7 7 8 8 y 8 8 8 7 7 8 2 7 0 3 w d _.%X-X-X-X+X-X",
"oXoX-XoX-X+XW.s r i t t 3 2 w A q.h.j.h.9.<.V N m m B Z e w 8 8 7 8 8 r 0 8 8 2 8 7 0 3 3 w w d ^.].-XQ.-X+XQ.",
"-XoXoXoX-XoXW.s u t w i 8 2 5 G 7.s.z.s.k.e.C m m M M B e w 3 y 8 w 8 r w 8 3 2 7 8 0 8 8 w w u ~.+X(.-XoX-X-X",
"oX-X-XoX-XoX^.s u i r i 3 2 w K q.z.s.s.8.0.V m e t e B e w 8 w w w 8 p y w 3 8 8 0 8 w w w e u T.+X+X+X(.+X+X",
"-X-X-X+XoXoX^.s k i w i 3 2 w K 7.s.z.g.v.0.I N e M e i i y 5 w r w 8 t w w 3 8 8 w w 8 w t t u W.E.-X+XoX-X+X",
"-X-X-X+X-X+XW.a k i w r w 1 w G q.j.z.n.f.4.H m t t t B r i w 0 y w 8 u w 5 3 8 8 w r w r t t p +._.(.(.+X-X+X",
"-X-X-X+X+X+XW.9 0 r r u 8 2 e K e.a.z.z.v.7.H N M t S t B t y r w w 5 w t w 3 3 8 y w r w t t p _ ~._._.oX-XoX",
"-X-X-X+X+X+XW.a 0 i w u 8 2 e I 8.l.s.n.b.3.>.N M e M Z t e r r w 8 w r w 8 3 w w r r w t t t r z ~.^.+X+X-X-X",
"-X-X-X+X+X_.W.: 0 r y r 3 1 e P 7.l.z.g.h.d.C C M m M K e t e i w y t r w 3 3 3 3 r w y i t t u z ~.^._.-X-X-X",
"-X+X+X+X+X_.W.= 0 r 8 r 3 3 e P w.d.v.v.g.9.<.V V N M M Z t U 3 r 3 2 r w w 3 8 8 0 i r r t t r s W.^._.+X-X-X",
"-X%X+X+X+X_.W.= 0 r 0 y 3 3 6 I u.w.c.c.x.7.>.H N N M F Z i 8 r 8 u 7 w r 2 8 w y y 0 i w U w i s W.~.+X+X-X-X",
"-X-X-X+X+X_.W.= 0 y w u 3 1 e K y.M.N.N.N.i.H N N r Y i w p q k p 8 8 u 3 8 8 2 0 0 l l l i w k g W.~._.+X-X-X",
"-X-X+X+X+X~.W.= 9 r 8 y 3 3 m L m.K.K.J.p.p.r.M B i u p c d T.j 7 c 2 p 8 r 0 7 0 k U.I.u u Y u d W.~.+X-X-X-X",
"-X-X-X+X+X(.^.: a d s d 4 4 u Q =.U.I.I.C.m.X.U v I.v H.R.R.E.W.R.9 s 7 d 7 = 0 d S.T.U.T.b k v ( ~.~._.+X-X-X",
"-X X+X+X+X(._.[ ~.^.< < ^.~.^.W.^.W.E.W.W.;.O._ +.~.E._.(.oXoX(.oXQ.(.W.*.< > , < ~.W.W.W.) z ) _.+X+X-X-X-X-X",
"-X-X-XoX-X+X+X+X+X(.+X(.+XoX+XoX-X-X-X+X_.(.W._.+X+X(.-X+XoXoXoXoXoX+X+X_.~._._.G._.+X(.(.W.~.:.+X-X-X-X-X-X-X",
"oX-X-X-XQ.-X(.+X+X+X+X(.-X+X-X-X-XoX-X+X^.~.^.^._._.+XQ.-XoXoX@XoX-X-X(.+X_._._.(.oX(.(.^.E.W.^.+X-X-X-X-X-X-X",
"-X-X-X-X].oX+X+X+X+X+X+X(.+XoX+XoX-X+X(.+XE.~.(._.+X_.-XoX@XoXoXoX-X].-X+X_._._.oXoX(.+X(.~.^.^.+X-X-X-X-X-X-X"
};
