/* XPM */
static char *Untitled_Artwork1661805684[] = {
/* columns rows colors chars-per-pixel */
"64 64 244 2 ",
"   c #030101",
".  c #0B0000",
"X  c #130400",
"o  c #1A0900",
"O  c #1E1101",
"+  c #281204",
"@  c #351B04",
"#  c #3D1B01",
"$  c #361B0B",
"%  c #3B1D0A",
"&  c #361601",
"*  c #2C1C18",
"=  c #321E19",
"-  c #371D13",
";  c #240F00",
":  c #3C210B",
">  c #3C2105",
",  c #34231C",
"<  c #3C2319",
"1  c #1E1E38",
"2  c #281D25",
"3  c #261E33",
"4  c #1D213A",
"5  c #23212D",
"6  c #2C2224",
"7  c #362826",
"8  c #242133",
"9  c #22253A",
"0  c #292635",
"q  c #362C35",
"w  c #3B363B",
"e  c #3B322C",
"r  c #431C01",
"t  c #4A1D00",
"y  c #451A04",
"u  c #521B00",
"i  c #581A00",
"p  c #452104",
"a  c #4B2303",
"s  c #452309",
"d  c #4B250A",
"f  c #4D290C",
"g  c #4D2906",
"h  c #532503",
"j  c #542906",
"k  c #5C2B04",
"l  c #532609",
"z  c #542B0B",
"x  c #5B2D0B",
"c  c #5B2605",
"v  c #55300D",
"b  c #5D310D",
"n  c #5E3107",
"m  c #4C2B15",
"M  c #452819",
"N  c #542D12",
"B  c #5B2E12",
"V  c #502B19",
"C  c #4D321E",
"Z  c #553113",
"A  c #5B3112",
"S  c #54311A",
"D  c #5B331A",
"F  c #622C04",
"G  c #6A2C01",
"H  c #622D0A",
"J  c #642500",
"K  c #732D00",
"L  c #792C00",
"P  c #643105",
"I  c #6D3204",
"U  c #62310C",
"Y  c #6B330B",
"T  c #6C380E",
"R  c #65380F",
"E  c #733202",
"W  c #74360A",
"Q  c #743A0C",
"!  c #7B3807",
"~  c #602E11",
"^  c #613212",
"/  c #6B3711",
"(  c #743C13",
")  c #7A3D10",
"_  c #452B22",
"`  c #4A2C23",
"'  c #432D29",
"]  c #4D3224",
"[  c #4B332B",
"{  c #553228",
"}  c #453639",
"|  c #472D2F",
" . c #7B4217",
".. c #7A4726",
"X. c #6E4028",
"o. c #4B443E",
"O. c #1B2547",
"+. c #1B285D",
"@. c #252945",
"#. c #393749",
"$. c #282E56",
"%. c #2B3153",
"&. c #293459",
"*. c #353A59",
"=. c #2E354F",
"-. c #142A65",
";. c #1B3571",
":. c #283866",
">. c #343B64",
",. c #283B71",
"<. c #171F46",
"1. c #443744",
"2. c #433E55",
"3. c #3C425F",
"4. c #394466",
"5. c #2C4478",
"6. c #34477B",
"7. c #504B56",
"8. c #705558",
"9. c #64605D",
"0. c #464765",
"q. c #415174",
"w. c #5A596E",
"e. c #695B67",
"r. c #5C637E",
"t. c #636370",
"y. c #833B05",
"u. c #853704",
"i. c #95470D",
"p. c #8B4B1C",
"a. c #884816",
"s. c #9D4D13",
"d. c #924D1A",
"f. c #9B4E19",
"g. c #964C14",
"h. c #9A521C",
"j. c #8E4913",
"k. c #A44D0D",
"l. c #A14E13",
"z. c #A44F15",
"x. c #A15115",
"c. c #8A4D22",
"v. c #985127",
"b. c #8E532E",
"n. c #133986",
"m. c #1B429B",
"M. c #284788",
"N. c #324983",
"B. c #274B96",
"V. c #2B529C",
"C. c #23519E",
"Z. c #375A98",
"A. c #3F5D8F",
"S. c #1D4CA9",
"D. c #1C52AB",
"F. c #1B52B4",
"G. c #1B57BC",
"H. c #164DB1",
"J. c #254DA5",
"K. c #2353AB",
"L. c #2954A4",
"P. c #355BA7",
"I. c #2355B2",
"U. c #2459B4",
"Y. c #235DBC",
"T. c #2656B6",
"R. c #234FB0",
"E. c #3365B4",
"W. c #485D94",
"Q. c #4C6397",
"!. c #4668AB",
"~. c #1D5BC4",
"^. c #195ACB",
"/. c #024CDC",
"(. c #0154DC",
"). c #0D59D7",
"_. c #125AD3",
"`. c #145CDC",
"'. c #1758D7",
"]. c #064DCE",
"[. c #235CC6",
"{. c #1561D5",
"}. c #1564DB",
"|. c #1B64D7",
" X c #1862D2",
".X c #2764CA",
"XX c #2768D5",
"oX c #3672D6",
"OX c #3469C7",
"+X c #0255E3",
"@X c #035AE5",
"#X c #0B5CE4",
"$X c #0455EA",
"%X c #0956EB",
"&X c #045BEC",
"*X c #0A5DEC",
"=X c #0C56E4",
"-X c #125DE4",
";X c #115DEC",
":X c #045DF3",
">X c #0A5EF3",
",X c #055CFA",
"<X c #0456F7",
"1X c #054DE0",
"2X c #0463ED",
"3X c #0B62ED",
"4X c #0E6AED",
"5X c #0863E7",
"6X c #1363E4",
"7X c #1264EC",
"8X c #1869E8",
"9X c #0464F3",
"0X c #0C64F3",
"qX c #056AF5",
"wX c #0B6AF5",
"eX c #0564FA",
"rX c #0B65FA",
"tX c #056BFC",
"yX c #0B6CFC",
"uX c #1265F4",
"iX c #136BF5",
"pX c #1165FA",
"aX c #126BFB",
"sX c #1A6DF5",
"dX c #0673FC",
"fX c #0B72FD",
"gX c #0976FC",
"hX c #1472F6",
"jX c #1B72F4",
"kX c #1273FD",
"lX c #1B74FC",
"zX c #137AFE",
"xX c #1C7AFE",
"cX c #1E70EE",
"vX c #2376FE",
"bX c #237BFE",
"nX c #2A7DFF",
"mX c #2374F7",
"MX c #266CE9",
"NX c #4176D2",
"BX c #2C83FF",
"VX c #2985FF",
"CX c #3282FF",
"ZX c #1583FE",
/* pixels */
"kXkXaXlXkXfXfXyX0X0X*X#X7XsX4X5X}.5X4X0X&X@X{..XZ.A.A.P..X7X7X0X0XwXkXjXMXE.Q.Q.r.Q.oXmXkXzXgXZXgXfXkXzXzXZXgXzXzXzXzXxXjXxXzXZX",
"qX0XrXaXyXtXrX9X&X&X+X#X(.].G.D.D.D. X_.`._.F.B.:.3.&.5.B.F.'._.{._.{.^.P.Q.t.8.8.W.P..X|.|.}.6X}.}.6X4XqXwXfXwXwXyXwXwXwXhXhXzX",
"aXyXrXrXrXrX3X&X&X+X+X+X-XY.5.#.#.#.N.L.F.I.Z.*.} ] C [ } >.M.D.C.C.L.Z.0.8.X.v.v.b.8.W.W.!.E.P.Z.V.F. X3XqX4X5X3X*X2X2X4X4X4X4X",
"kXyXrX:X>X>X2XqX0XpXpX6X XB.#.S S S 1.%.;.N.=.| S b n b x C 3.6.4.*.*.*.{ ..E s.z.z.b.8.e.e.e.w.3.=.5.U.8X0X0X3X7X0X0XiX4XsXhXhX",
"fXfXrX,X*X*X>X:X:XeXqX}.M.O.] A A D C = 2 w < S b b b U U z C [ [ [ [ { D ( K i.u.i.z.v.v.b.b...j , #.6.^.7X3X3X>X7X3X3X7X7XiXiX",
"fXfXaXyXuXuX>XrXrXrXqX.X&.* S U A x Z # : m V D b R x b k k g g N B h x U I E ! L s.z.k.z.f.h.p.k > ' 4.[.uXpXyXiXwXiX3X7X4XiXhX",
"kXkXpXpXrXrXpXuX0XuX0X~.O.: v b ^ D z @ % > s m A B ^ b a a p p A l y x U Y K ! K g.f.f.z.d./ ~ a # _ 3..XiXiXwXyXwXwXwX4XhXfXzX",
"fXyXrXrXrXpXuXpXuXuX6X.X4 % b b A B f > @ # # m B l H x r p y # B d y A b T E y.K d.! W ) Y H D p # M 4.OXsXiXhXhXwXkXkXxXxXxXzX",
"yXyXyX,X>XrX0X0XuX>X;XT.0 r A b b A g # p # y y z a k v # r # r N f y N b T E ! G  .n n Y H c B s # M 0.oXnXBXBXVXbXxXVXVXVXVXVX",
"fXfXeX0X,X0X*X&X*X;X7XT.3 r x x A b g # # # r s g p g v # # r # B d r B U Y E ) I Y v k l c B x g % M >.OXcXcXcXjXjXjXxXxXbXxXjX",
"gXgXyX0X0X>X:X*X&X#X6XI.8 y A U b A f # # @ # > d y a v # > r r B a r A H W u.y.I n n j t h x x g % M *.F.(.(.(.(.(.5X4XwXiXhXjX",
"dXdXwX0X*X#X*X*X;X-X-XD.8 % B x ^ A f # # # @ s d # a v @ # r y B j t A ~ Q u.u.I U n a y h x U t # < 4.[.3XuX3X4X5X&X@X+X@X5X5X",
"yXyX&X#X#X-X*X;X;X=X).S.8 : B A ^ D f # @ # # > d # p v # # y y H x p A ^ Y u.i.I n k a # a x x l % < 4..X4X3X3X3X>X*X>X&X*X*X3X",
"yXqX&X+X(.(./.1X/./.].m.5 % z x B A y % # # # : d # s v r # y y x ^ j b ~ Y g.f.I g g p y a z h t % < *.F.(.+X+X@X*X>X>X>X*X*X3X",
"fXyXqX*X@X$X%X%X1X(.).S.3 # h x x B d # > # r p f r s Z r # p g A A b n H W z.f.Q p a a # a g p d % , 4.[.#X*X2X&X*X*XuX;X*X0X0X",
"fXwX2X&X>X0X>X>X*X;X}.J.3 # a k P ^ s p > @ # r m r y N # # g k Z p g b U I z.f. .r a p y r a # r $ 7 4..XuX0X0X4X3X0X0XuXuX0X*X",
"yXwX4X3X4XuX0X0X9XuX8XE.5 # t H I c.a N d # # > N r t N y # h k z p a z b E k.l.p.t p y r g p # p $ 7 4.XXhXkXkXyXaXaXyX0X0X*X7X",
"yXyXwXwXqX3XiXiXkXlXjXY.5 # t F E c.j Z d # # r N r a N # y k k z p p z U W l.z.c.t a p r s p # y : 7 4..XiXaXwXwXyXaXwXpXaXiXiX",
"qXqXwXwXiXuXwX0X0X7X7XU.5 # a F E p.U D a r # y z y h N # r c k x p p j b I l.l.p.t a p # a r # p > , 6.oXjXjXmXhXiXiXpXaXaXhXhX",
"dXqXwXaX4X3XqX0X2X6X#XI.5 @ p F K j.x A a r p f x a j v # # l c z r s z b Y f.x.p.u a p # p r # d > e q.oXvXnXnXCXBXbXlXlXlXbXxX",
"fXgXwXwXwXwXwXwX0X7X#XI.5 # a k E j.H A a a N B b h k z # r c x j r r z z c u.f.p.u t y r d # # d - e >.^.uXuXuXpXpXpXrXrXrXyXkX",
"wXqXwXrXwXqX0XqX0X;X-XS.5 # p F E a.U x r a ^ A b j k g # # j x x a # f h y i d.d.u a s # f # # d < e 5.[.*X*X>X>X>X>XeXeXrXyXfX",
"gXwXeX2X2X&X*X#X=X-X-XR.8 # p k E  .b B r a ^ x b k k a r # j x j a r f d y i c.d.u a p # f # # d < 6 5. X9X:XrXrX0XeXeXyXfXfXfX",
"4XqX9X&X&X&X+X+X+X1X=XI.0 > t k P  .b D r s x ^ b x x a r r j k j a r f r y t a.d.i a s # f # # f m 5 6.XXkXyXyXeXyXeXtXyXyXfXdX",
"2X5X2X2X2X9X2XqX2X4X4XF.9 > x x k b D S : > v b A j z j # r k k x t r f # r t p.d.J t d r m # # v C 5 5.|.yXdXyXyXyXgXgXfXzXzXdX",
"gXqXtXdXyXyXdXfXwXwX4XU.9 : Z A g S m C @ : A b b a a g r r k k k p r s y # u p.h.G t a # N # # z C 8 M.}.9XtXtXtXtXtXtXyXdXfXfX",
"gXgXdXyXyXyXyXyXwXwX4XY.9 @ s N m $ + o + @ Z A z y t d # r j k z a r s r r F a.i.I t d r m r # Z ] 8 M.}.9XeX9XtXtXtXeX9XeXyXdX",
"fXdXtXtXqXeXqXyXqXqX4XY.4 $ # : + . .   . X Z v N r y l # r k k k v p d r a  .G j.! t N r f r # N ` 9 B.6XyXtXyXyXfXfXfXyXtXeXeX",
"fXfXdXtXtX9XeXqXdXwX4XG.4 > @ @ X e o.      # S f r r z # p x b j v y y p l p.K ! a.t f r f > r N _ @.B.}.eXrXeXrXrXtXyXtXdXdXkX",
"yXfXdXdXtXtXyXyXdXqX4XG.4 $ @ ; e 9.o.    . + Z d # # z # p b b x b d # y l p.K i.p.h z p z r # D M <.V.).<X<X:XeX9X9X9XqXqXyXyX",
"yXdXyXtXtXtXrX0X2X0X7XU.8 $ @ o } 9.w     . @ Z d # r m r p A x b b d # r u j.E y.p.H N a N r r z < 1 L.-XeX,XeXeX,XeXqXqXqXdXdX",
"rXeXeX9X9X9X0X:X9X3X6XT.8 $ $ o * 9.0       : S f # # z # p b b z b a r # t p.K u.d.U Z t N t r A M @.P.8XyXtXyXeXyXyXfXfXgXwXdX",
"yXeXeXeXeXrXrX0X:X:X#XS.3 # % + . 7 e     o V A d # r N r p b b b b d r # r a.K u.g.H B t z l h x _ @.P.8XyXyXyXfXfXfXfXfXfXgXgX",
"tXtXeXqXrXrXrXrX9X9X#XD.8 % % : : O X . O : S B f # # z p a A b A A a p & r ) K ! g.H B a z k h x _ %.P.8XyXdXdXkXfXfXdXfXfXgXgX",
"yXtXqX9X9X2X9X9XyXrX5XU.5 # # f m S m M s s b b j # # z f j A A A A h y # r ( K ! d.U B t l x k x ` %.P.8XyXfXdXgXdXfXgXfXfXgXgX",
"2XqX2X9X9X0X2X9X9XeX4XD.5 # @ d v b A A z v b b z r r Z v k b A A A z # # r ( W ! p.U B a h x k l M %.J._.&XrXqXqXqX9X9XeXqXyXdX",
"qX2X2X2X&X&X:X:X:X9X5XK.8 > > v b b b b b b b A z # r Z b b b b A A d # # # T I E Q U x h j k b h M $.C._.$X&X2XqX2XqXeXeX9X2X2X",
"wXyXyXqX0XyXwXyXeXwX4XU.8 s a A b A b b U x b x N # # A ^ A b x A B t r # # h F G H ^ A j j k k t _ &.J.].+X+X+X(.+X@X2XwXyXqXqX",
"pXaXaXpXrX0X3X0X0XqX7XI.3 y d x x x h b x b A D N # r A b k k k ^ A a r r r h F F F x A x j k a y M :.I.}.*X0X*X&X@X@X@X&XqXqXqX",
">X>X$X&X$X+X+X+X@X@X#XK.3 # l ~ x ^ t b A ^ A z A p s Z a h k k A B h r f d x b U x A D x j k y y ' ,.Y.6X0X*X*X$X*X*X3X2XqXwXwX",
"0X*X*X*X*X;X7X3X*X#X#XI.0 r l H F ( u x U U k x x j N N p a k F b B j r D A A b z A D z a h k y y | M.[.8XaXaXpX0X*X*XuX0XwXwXwX",
"0XpXvXvXvXvXbXvXvXlXmXE.8 r j F J  .h H x U F F ( k r d r a k F U A j r v Z Z A A Z z a y h x r y | M.XXuXrXaX0X0XqXqXwXqX0X2X4X",
"2X2X0XiXlXlXaXaXpXlXnXNX0 # h P G a.h H U / P G p.I r y # a k F U b x r j D Z A Z Z f r r h x r y q V.MXuX0X>XrX0XwXaXwXyXyXqXwX",
"aXiXwX0XrX0XpXpXaXiX7XY.9 p h G G a.h k U  .T I h.E r # r a k k x A x r a g z z d y # r y j z # y q J.6X*X>X:X&X:XrXyXyXyXfXyXaX",
"kXkXaXyXrXyXpXrXpXrX7XT.8 @ h I G p.a x R ..W E f.u.r # r a k F x U x r r g d y # # # # y h z r & 0 I.7X0XrXrXrXrXyXtXtXtXtXyXyX",
"yXyX0X0XaXrXrX>X&X&X+XH.9 % h P G a.h x U ( W G s.i.u p r a k k H A x y t j z r # # # # # h z r y q T.sXyXyXrXpXyXyXtXeXeXtXyXyX",
"dXyXwXrX9X&X$X+X+X(.(.F.9 : h G G a.h x H / W E k.s.G y # a j k k x B y y x j r # @ # # y d z r y q T.iXyXyXyXyXyXtXyXtXeXeXtXyX",
"eX9X2X&X0X0X0X0X3XuX5XY.9 % a U J a.h x U I ! K k.x.p.t y g k k k ~ B r y j z y # # # r r a z r r q K.6XrXeXyXrXyXeXeXtXeXtXtXyX",
"@X+X+X+X+X5X*X3X0XrX2X~.@.@ p b P T t b U Y W K k.k.d.t y h k k x H x y t N z r # # a g a a N # # 7 M.{.uXrX0X,XrX,XrXtXyXyXyXdX",
"rXwX4XqX2X3X&X&X9X9X&XG.@.$ p j x k r z F U Q K s.k.d.u y a k F k H x y y z l r r r x b B d l r # 6 ;.[.7XrXrXrX>XrXeXrXtXtXyXyX",
"yXrXeX2X2X&X:X:X:X:X&X[.@.$ # g j t t g b U W G l.z.d.u y j j c x ~ x y y g z r # r v n b a d t y 2 -.G.=X>X:X9XrXrXqX2X2XqXyXwX",
"eX9X9XqXeX9X9X9XeX0X3XG.@.$ # y r r r r A / Q I s.f.c.i y j x c x B x y r d j r # y b b A j x x y = -.R.'.&X$X:X>X,X*X3X4X9XwXqX",
"tXtXyXyXyXrXeXtXqXqX2X~.@.- % # # @ % % B / W G Q a.b.t t l k k x x z r r g j r % r b x b k k k d 7 $.L.'.%X&X$X$X1X$X%X&X&X$X&X",
"qXyXyXaXrXyXyXyXtXwXdX.X$.* $ % # # r y B / ( J H H  .t y l k F k x j r r a j # y r v b H c c H x 7 %.P.'.%X$X$X$X:X%X>X,X,XeXeX",
"qXwXpXpXpXuX,X0X4X2X2X[.$.= $ # # # s y x / ) G H H R r y l k k H x z g l l N # # # a v k F F H l _ %.P._.2X&X*X,X>X>X,XeX9X:X9X",
"eXqX3X7XuXuXpXpXwXiXhX.X&.* % % # # s # b R / J U x A h y l k F c x B A ~ B l r # # s z x U n k B _ %.P. X4X3XuXrXpX0XrXrXyXyXyX",
"0X0X*X*X5X0X0X0X0XuXiX.X:.* $ # & y y # p d B B A Z D d r j j k J x ^ A b b x d # # a z N x ^ b H ` %.W.^.-X;XsXpX0X3X7XwXwXfXgX",
"iXwX0X0X*X&X2X2X>X5X3X^.,.3 - % $ - - = = = - - = = ` y y z j b B H x B A b b A s > : ] ] { ~ ~ ~ ` #.!.oXmXnXnXbXvXnXnXvXjXxXzX",
"dXfXkXyX0X4X3X&X>X&X*X_.M.1 * $ = * 9 &.:.$.O.@.$.&.2.6 % d N V D D x B A A x A a $ 6 2.0.2.D ~ ~ { %.P.MXmXvXsXpXrXuX8X8XsXlXxX",
"yXyXyXyXaXyXaXrXrX>X0X`.K.+.O.9 %.:.n.C.B.J.M.B.L.J.M.<.2 6 #.#.2.1.} } } 1.1.} < 2 @.N.M.N.1.{ { | :.L.'.=X=X%X>X$X+X+X+X@X#X5X",
"fXyXyXtXyXrXrX0X,X0XuX5X'.G.H.D.[.^._._.`._._.).).^.G.n.-.-.J.U.I.K.K.K.K.K.K.M.<.<.n.R.[.R.,.*.>.>.n.^.`.*X=X;X*X*X3X*X&X3X0XiX",
"kXyXyXyXeX9XeX,X,X<X$X$X@X6X=X*X,X,XyXrXyX0XyXyXwX5X6X^.T.Y.{.5X@X#X`.`.#X6X-X'.J.J.[.-X-X'.T.P.J.T.[.=X(.+X+X/.+X+X&X*XrX9X0X0X",
"0X0XrXyXrXqXeXrXrX,X<X0X9X,X&X>X<X,X,X,XrXyXkXaXkXyXkXiXsX7X3X4X0X0X>X,X>X*X%X=X'.=X;X0XpXiX8X8X8X6XuX0X0X*X*X;X*X%X%X*X*XqX0XwX",
"aXaXaXaXpXaXyXaXaXrXpXrXrX,XrX,X,X<X<X<X<X:X<X9X0XwXtX9XyXyXyXwXrX<X<X,X,X,X>X<X<X<X,X<XeXtXqXyXrXyXyXeXaXpXpXuXpXpXuXuX0XwXwXaX"
};
