/* XPM */
static char *_3733efd4d574459acf2423f42e825578esdTag5UAZY8EwK[] = {
/* columns rows colors chars-per-pixel */
"64 64 214 2 ",
"   c #00031A",
".  c #3E5685",
"X  c #3C558A",
"o  c #3C598C",
"O  c #3E5B91",
"+  c #3F5898",
"@  c #144FB7",
"#  c #1850BF",
"$  c #2257BD",
"%  c #3E67AE",
"&  c #3C6AAF",
"*  c #2D61BC",
"=  c #3E66B4",
"-  c #3D6AB5",
";  c #3466BC",
":  c #3F67BC",
">  c #346ABD",
",  c #3B6ABC",
"<  c #405686",
"1  c #41558C",
"2  c #435B93",
"3  c #465C96",
"4  c #45659B",
"5  c #49659D",
"6  c #466A9F",
"7  c #4A699D",
"8  c #4A6197",
"9  c #536B92",
"0  c #536B9A",
"q  c #4566A4",
"w  c #4A66A3",
"e  c #4569A6",
"r  c #4B69A5",
"t  c #4566AB",
"y  c #4A66AB",
"u  c #4469AC",
"i  c #4B6CAC",
"p  c #516BA4",
"a  c #526EAB",
"s  c #5067A8",
"d  c #4E71AB",
"f  c #5372AD",
"g  c #5C7AAE",
"h  c #4366B2",
"j  c #436AB3",
"k  c #496DB3",
"l  c #4267BA",
"z  c #426BBA",
"x  c #4F6FB8",
"c  c #526FB3",
"v  c #4B71B8",
"b  c #5473B4",
"n  c #5976B7",
"m  c #5A7AB5",
"M  c #5775BA",
"N  c #5B76BA",
"B  c #5779BA",
"V  c #5C7BBC",
"C  c #627DBE",
"Z  c #667CB6",
"A  c #094ECF",
"S  c #0B52CD",
"D  c #0E54C4",
"F  c #1857C0",
"G  c #1D5BC3",
"H  c #1659CC",
"J  c #1A5BCE",
"K  c #1354CC",
"L  c #014DDB",
"P  c #0A4DD9",
"I  c #084DD6",
"U  c #0453DD",
"Y  c #0759DD",
"T  c #0D5BDD",
"R  c #0A53DA",
"E  c #155CD5",
"W  c #1B5ED5",
"Q  c #145EDE",
"!  c #1558D5",
"~  c #245BCB",
"^  c #1E68CB",
"/  c #0E62DC",
"(  c #1F6AD2",
")  c #1563DD",
"_  c #1D64DB",
"`  c #1B6ADD",
"'  c #1862D3",
"]  c #2D64C6",
"[  c #2C68C4",
"{  c #2363CE",
"}  c #2C66CB",
"|  c #2B6ACC",
" . c #2665C2",
".. c #3265C2",
"X. c #3C66C1",
"o. c #346AC3",
"O. c #3A6AC2",
"+. c #336ACB",
"@. c #3067CC",
"#. c #2F71C8",
"$. c #2365D3",
"%. c #2B66D1",
"&. c #2369D2",
"*. c #2B6BD3",
"=. c #2465DB",
"-. c #226ADD",
";. c #296BDC",
":. c #376CD9",
">. c #014FE3",
",. c #0255E4",
"<. c #0956E5",
"1. c #035AE6",
"2. c #0A5BE4",
"3. c #0256EB",
"4. c #0A56E8",
"5. c #045CEC",
"6. c #0A5DEC",
"7. c #125DE4",
"8. c #115BEB",
"9. c #155AE9",
"0. c #0256F3",
"q. c #035DF3",
"w. c #0A5EF3",
"e. c #0456FA",
"r. c #045DFA",
"t. c #085EFB",
"y. c #0262E5",
"u. c #0B61E6",
"i. c #0462ED",
"p. c #0B62ED",
"a. c #066AEF",
"s. c #0C69EE",
"d. c #1363E2",
"f. c #1B62E1",
"g. c #1269E6",
"h. c #1C6BE4",
"j. c #1265EC",
"k. c #126AEB",
"l. c #1B6CEB",
"z. c #1A73EB",
"x. c #0563F3",
"c. c #0B64F3",
"v. c #046AF5",
"b. c #0C6AF5",
"n. c #0564FB",
"m. c #0B65FA",
"M. c #056BFB",
"N. c #0A69F9",
"B. c #0E6AFA",
"V. c #096DF9",
"C. c #0D6EFF",
"Z. c #0B6CFC",
"A. c #1166F4",
"S. c #126AF6",
"D. c #126BF4",
"F. c #1B6EF4",
"G. c #1166F9",
"H. c #126CFB",
"J. c #186EFC",
"K. c #0C71F5",
"L. c #0572FD",
"P. c #0D73FE",
"I. c #0E76FF",
"U. c #0C72FD",
"Y. c #0E79FF",
"T. c #0670F7",
"R. c #1372F5",
"E. c #1B72F6",
"W. c #1570FE",
"Q. c #1373FC",
"!. c #1C74FC",
"~. c #1578F9",
"^. c #1179FF",
"/. c #157BFE",
"(. c #1B79FD",
"). c #1379F7",
"_. c #236BE3",
"`. c #2473E4",
"'. c #2A77E9",
"]. c #2275F7",
"[. c #2275FC",
"{. c #2B72F9",
"}. c #237AFF",
"|. c #297EFF",
" X c #307DFF",
".X c #276CF5",
"XX c #5579C3",
"oX c #5C7CC2",
"OX c #5A7FCA",
"+X c #627EC3",
"@X c #617ECA",
"#X c #5D81BC",
"$X c #6D88BA",
"%X c #7087BB",
"&X c #1A80FE",
"*X c #2682FF",
"=X c #2A83FF",
"-X c #2C89FF",
";X c #3283FF",
":X c #5D82C4",
">X c #5E83CA",
",X c #5781CD",
"<X c #6382C4",
"1X c #6383CB",
"2X c #6488CA",
"3X c #6B87C6",
"4X c #6384D0",
"5X c #6984D1",
"6X c #A8BFEB",
"7X c #B1BDE3",
"8X c #BDD3FA",
"9X c #D3E2FF",
"0X c #E5F3FF",
"qX c #EBF9FF",
/* pixels */
"W.W.W.W.J.Q.C.C.S.c.6.6.p.D.b.s.p.c.x.a.6.5.x.v.n.c.N.b.m.m.G.b.m.H.K.).).K.I.U.I.U.U.I.Y.Y.Y.Y.L.L.Y.Y.^.^.^./.Q.~.~.~.).).~.&X",
"c.c.b.B.H.G.m.5.5.1.5.1.1.,.U ,.,.1.y.i.5.5.i.x.x.6.i.i.5.5.,.5.6.6.y.y.i.v.V.B.V.b.v.v.v.v.M.M.M.v.v.v.b.T.K.V.K.D.b.s.K.K.R.~.",
"U.B.m.m.m.b.q.q.5.5.3.5.5.5.i.c.x.5.1.y.y.x.i.v.b.T.v.a.i.5.1.Y 1.5.y.i.i.i.y.i.i.x.x.v.T.T.L.K.C.C.v.n.c.n.x.6.i.6.i.p.s.b.k.R.",
"U.C.n.q.q.r.c.m.n.c.c.m.b.b.c.x.c.b.y.p.x.x.v.b.v.b.T.T.R.k.h.` ) u.i.i.2.1.1.6.6.q.5.x.i.a.x.N.C.N.N.m.m.B.m.G.c.A.A.S.J.D.D.J.",
"^.C.m.x.q.5.q.w.r.c.c.c.x.c.b.c.b.b.b.S.Z.m.N.B.N.N.B.k.` *...> | $.) u.6.p.6.6.6.x.c.c.p.i.c.c.x.x.x.x.c.w.c.p.A.6.j.s.j.j.A.A.",
"U.U.C.m.m.c.c.m.c.b.m.G.A.H.B.b.c.c.w.c.Z.B.c.q.x.p.p.) } , & u = o.*.h.b.c.p.i.b.c.c.c.p.p.i.i.c.c.c.c.c.c.A.D.D.A.c.A.j.D.D.F.",
"Q.U.H.b.b.c.G.c.c.G.A.8.A.b.b.i.s.b.V.V.b.b.b.b.c.s._ | - u e e u j o.&.g.a.b.V.C.C.b.b.b.p.b.c.N.b.b.b.b.b.H.V.S.b.b.s.V.R.Q.~.",
"C.V.m.b.G.G.G.A.A.A.A.G.A.p.b.V.b.D.K.V.B.J.D.S.H.d.&.> t w w w y u u o.` k.R.b.Q.K.).).R.R.H.Z.V.D.H.D.R.W.J.D.R.D.R.E.~.(.(.(.",
"C.V.c.x.w.c.c.G.w.A.G.A.G.b.c.c.i.i.y.y.a.a.k.s.k.` o.u 5 s s C C f e j | ` g.s.k.R.R.R.E.(.(.(.!.!.}.*X|.|.=X=X|.}.}.*X*X-X-X*X",
"I.U.N.n.c.w.w.5.6.w.6.c.G.c.b.B.b.p.a.a.v.b.b.g.d.( - 6 w s +X<X3X%X0 w , | h.E.F.E.R.R.Q.R.H.Q.!.F.[.].F.D.F.E.E.E.[.(.}.&X(.E.",
"L.L.V.c.w.w.w.6.4.6.w.c.p.i.i.x.b.b.K.K.U.I.K.R.` | j e w f <XZ 8XqX9X9 t [ ) S.V.V.K.L.B.N.x.x.4.1.<.,.U U U U ,.1.i.p.b.D.R.Q.",
"L.T.b.c.6.4.4.6.w.6.p.p.p.6.2.6.q.x.N.v.v.b.b.s.&.o.u 4 a <X<XZ 0X  0X9 7 - _ u.p.i.x.v.n.v.i.6.1.,.4.p.c.c.A.c.p.p.2.1.1.1.y.p.",
"K.v.6.6.9.9.8.8.2.2.<.<.U L U <.w.c.i.5.5.6.6.Q ..u r 4 <X<X1XV 7X9X8X0 6 u %.Q 7.6.1.5.x.x.w.c.p.p.c.D.c.c.j.c.p.6.p.6.1.6.i.p.",
"K.N.5.1.,.>.L L L L L L L L U 2.4.p.6.5.1.4.2.W z w q M 2XoX>XB g $X$Xp 4 k +.J Q 1.,.5.6.q.5.6.6.1.1.1.,.,.,.,.6.6.p.6.6.6.6.p.",
"U.V.x.5.4.4.4.1.<.<.4.2.<.2.4.6.6.p.x.i.x.u.d.%.t 5 q <X2XM :Xn $X$X<XV i y = } d.x.c.V.M.V.x.s.p.i.5.y.p.p.i.6.6.6.8.c.c.8.c.j.",
"U.V.x.5.6.c.c.q.6.6.6.6.6.i.6.p.i.v.b.N.v.s.( ..u 5 b 1X1XM <XM n :X1X1Xn y u O.h.B.U.C.C.C.V.V.B.B.b.b.c.b.c.c.c.x.c.w.A.c.c.6.",
"C.v.v.i.x.c.c.s.c.b.b.V.D.Q.B.I.U.B.I.N.L.D.*., & 6 V 2X1X1X3XM <X2X>X:XoXB b , h.b.b.V.C.C.Z.C.C.U.Q.C.Q.Q.U.Q.H.H.H.B.c.c.i.p.",
"V.V.N.b.b.b.S.S.H.H.Q./.^.I.Q.I.W.K.K.U.U.k.} z e i :X2X1X2X1XoX1X2X>X>X>X@XV z '.(./.H.C.C.H.m.m.n.b.B.D.V.B.V.V.B.B.S.b.S.D.R.",
"x.v.b.H.A.A.b.A.s.A.S.S.S.B.K.D.S.A.p.p.c.7...u e d <X>XoX1X1XoX1X1X>X#X<X+X+Xz ;.F.!.[.}.}.[.J.m.G.H.(.(.!.F.!.F.F.A.A.S.S.R.J.",
"T.V.V.D.c.c.A.p.p.p.6.p.6.p.i.c.6.A.4.6.8._ X.y y n 1X1X>X1X>X:X1X1X:XN @XB V l } f.k.A.m.G.D.A.A.c.H.!.[.[.|.;X=X|.}.[.[.!.}.}.",
"I.K.K.T.D.b.D.s.p.p.p.p.6.6.6.6.4.6.4.6.7.$.l w y V 2X1X>X>X1X@X4X4X>X:X1XN <XXX@.W T 6.5.1.3.5.x.n.x.c.i.p.s.D.D.S.c.m.m.Z.C.H.",
"V.v.b.v.b.b.c.p.s.p.6.2.2.6.4.1.<.<.<.U A ~ h s y @X<X1X4X1X1X@X4X4X>X>X1X+X<XXX$ J U 5.5.q.i.c.m.Z.M.c.c.c.c.6.w.r.w.x.x.n.C.U.",
"I.v.x.i.y.6.6.4.4.6.1.6.6.5.3.,.,.1.4.U A ] y w i 1X1X>X>X1X+X1X>X4X4X2X4XOX,XOX> { u.K.U.C.C.Q.Z.m.n.m.q.c.t.t.m.m.m.m.Z.C.U.Q.",
"v.v.x.y.5.1.,.,.,.,.1.6.c.c.x.5.i.x.c.u.E o.y w b 1X1X>X1X2X+X<X2X1X1X4X@X1X>X,Xz | l.C.M.M.C.M.Z.Z.C.Q.H.Z.H.H.m.m.n.n.C.M.C.C.",
"v.i.5.i.x.i.i.n.a.x.i.v.v.v.v.v.n.N.V.S.( o.u 7 n 1X1X>X<Xr + y <X<X5X1X5X@X@X>Xj +.d.v.n.n.n.M.M.M.M.M.C.C.U.M.Z.C.L.I.I.Y.Y.U.",
"C.V.M.V.N.C.K.U.K.V.v.v.v.v.v.v.v.v.v.s.&.O.u w V 1X1X1Xn 4 X 3 w b 1X1X5X5X<XOXi X.Q 6.5.r.r.r.n.n.n.n.M.M.n.M.M.M.M.M.M.L.L.Y.",
"I.L.L.C.V.V.N.N.B.b.V.M.n.V.M.C.Z.V.n.6.{ > q w C 1X>X<Xa o . 2 X d <X<X1X1X>X@Xr l E 4.0.r.q.n.r.n.n.n.n.n.n.n.M.M.M.M.n.v.M.L.",
"L.L.M.M.v.N.N.V.b.n.V.V.V.V.C.C.C.C.m.s.{ , y r <X1XOX1X4 . . 2 o g 2X:X1X1X<X#Xs z Q w.t.m.m.m.n.n.n.n.n.n.M.M.L.U.U.U.M.n.v.v.",
"L.L.L.M.v.M.n.N.V.M.V.V.n.n.N.V.n.N.V.s.{ , u p 3X1X@X+X2 X < . O m <X>X1X>X:X#X5 = 7.A.m.m.n.n.n.r.n.n.n.n.n.n.n.V.n.V.M.U.U.^.",
"L.L.L.M.M.V.M.V.n.V.N.N.v.x.n.c.n.n.N.u.{ X.y r 1X1XoX+X2 . < . O V 1X1X4X>X#X#Xq ; f.t.t.n.Z.C.n.n.r.r.n.r.q.q.n.q.n.n.v.n.V.Z.",
"U.C.M.m.V.N.n.v.x.n.i.v.x.n.b.b.N.b.v.k.$.X.h i 1X1XoXV 8 < < . 8 V 1X4X>X>X#Xg w XX9.n.m.n.n.M.U.M.M.n.r.r.r.r.x.q.v.v.N.N.V.M.",
"n.V.n.x.q.x.x.6.x.i.c.b.b.N.n.n.N.N.b.s.' O.u i oX4X@XC 5 < . . 2 C 1X4X4X>X:Xb q , 7.e.e.e.5.n.v.n.M.C.Z.Z.Z.Z.m.Z.C.C.U.L.T.I.",
"M.n.n.n.m.m.m.c.x.q.6.q.q.q.r.t.r.r.c.u.' } h r :X1X:XV d o . . O #XOX1X1X<XC a % > u.n.m.n.n.n.n.n.r.m.Z.Z.Z.Z.U.U.U.U.U.I.I.L.",
"M.V.n.n.n.N.m.m.q.q.q.q.q.c.q.w.c.w.w.6.Q { l y +X:X1XB n X . . o #X1X>X1X1X<Xi - | g.B.G.m.H.Z.Z.Z.C.C.C.M.Z.C.U.U.I.L.L.Y.I.I.",
"Z.M.v.x.x.v.x.x.B.m.c.m.b.c.x.x.r.q.x.c.c.=.l w C <X>X:XV 2 1 1 O m <X1X1X2X3Xh > G T q.r.t.G.G.m.M.Z.Z.M.M.L.L.I.L.L.L.L.L.L.L.",
"i.x.x.x.v.x.n.x.q.c.c.r.x.c.x.x.q.5.5.x.q.Q X.y N 1X:X:X<Xs X 1 O b :X1X1X1X<Xz o.D R <.0.3.>.3.5.5.5.5.5.x.M.V.M.v.v.v.v.v.T.U.",
"x.i.x.i.5.5.q.q.n.x.n.c.V.n.b.x.v.M.x.v.x.T ] h c +X:X:XoXC 2 X 1 p C :X1X1X+Xz { S Y 6.5.3.,.6.5.3.5.,.3.5.5.5.c.i.p.x.v.x.i.i.",
"V.V.b.N.c.m.N.Z.c.c.m.c.c.c.x.x.v.v.K.U.C.k.| - k V :X:X<X+Xa . 1 8 V oX@X1XV - -.d.u.4.5.5.5.6.4.5.,.,.,.,.,.,.,.,.5.i.c.b.N.N.",
"G.m.Z.H.b.c.c.p.p.c.c.c.c.x.c.n.v.K.T.T.K.s.( > j #X#X:X1XoX<X7 2 2 V V 1X:Xb > ) V.b.s.v.c.p.5.5.5.y.6.6.c.j.6.2.1.1.5.i.i.v.v.",
"c.r.5.4.5.,.,.1.1.1.6.i.i.i.p.b.b.v.s.i.i.y.' | - N V OX@X1X2XV 3 1 N V >X>Xu ..g.C.v.T.b.b.b.c.c.b.c.p.c.p.6.6.1.5.6.i.x.v.V.K.",
"w.c.w.6.6.6.j.6.2.2.u.u.2.y.p.c.c.b.D.s.c.c.g.&.- f oXXX@X5X@X1XV 5 q :X#Xk - +.F.U.C.C.K.U.H.H.J.H.H.A.G.H.J.S.c.i.i.b.b.b.b.b.",
"c.G.!.[.}.}.[.}.[.J.E.(.!.E.R.R.J.V.b.b.R.W.E.`., u V b @X1X@X1XM V b :X#Xu o.`.R.U.U.B.K.C.C.H.H.H.G.G.m.G.m.m.c.c.c.c.c.x.p.v.",
"6.c.c.A.J.!.!.J.J.!.}.=X*X*X*X*X(.^.^.Q././.^.z.#.& b f M 2X1X1Xn b <X<Xu - %.d.s.v.b.b.M.U.C.C.m.m.m.m.m.m.c.c.c.B.H.C.b.v.N.N.",
"H.B.b.c.c.G.c.G.S.A.D.D.J.D.D.b.b.b.b.b.V.K.K.R.( > & m i <XV oXB oX1Xx j [ E p.p.x.v.v.L.M.C.M.m.n.n.m.x.c.q.q.q.c.C.N.C.C.C.U.",
"Q.H.C.C.G.G.G.m.G.m.G.w.5.5.6.i.x.x.x.5.6.i.i.p.T { = f f <XC <XV @Xb h +.` k.c.n.N.M.L.L.M.M.M.n.n.Z.n.n.m.t.m.m.m.m.Z.Z.M.Z.M.",
"C.V.c.N.Z.m.m.w.w.5.3.3.3.3.5.3.3.3.,.,.,.,.5.5.c.7.o.z b <XV oXV M u , _.j.x.n.n.v.M.L.L.L.L.M.U.C.C.C.Z.Z.m.Z.H.Z.Z.n.n.V.M.C.",
"U.C.V.c.x.5.5.,.,.>.>.3.3.3.3.0.0.0.0.q.q.q.5.q.r.w._ ] h V B oXn t - | l.V.M.M.M.L.L.L.L.L.M.M.Z.C.Z.Z.Z.Z.Z.C.Z.M.M.n.n.n.M.Z.",
"x.x.5.i.p.c.c.i.c.c.c.m.w.q.w.w.t.e.r.r.m.m.m.n.t.w.j.{ h b >X>Xb y > ^ s.n.n.M.M.L.L.L.L.M.M.M.n.n.n.n.M.n.n.M.Z.n.M.M.M.M.n.Z.",
"1.1.,.1.,.5.i.x.c.c.x.n.x.r.x.t.m.r.n.n.m.m.m.r.r.w.7.~ j M :X:X1Xk - ^ k.n.M.V.T.L.U.T.L.L.L.M.M.Z.Z.m.n.t.x.m.w.n.x.Z.Z.C.M.C.",
"c.c.c.i.x.i.i.5.q.x.q.q.x.x.n.q.r.r.r.5.q.0.0.q.4.>.K +.k :X>XOX1XB & > d.b.n.x.x.i.v.n.v.M.M.n.n.n.m.n.m.m.m.m.w.m.c.n.m.V.M.C.",
"V.n.N.x.x.5.5.q.5.q.c.q.q.r.x.x.q.5.q.5.q.0.3.3.,.K * % V <X1X>X1X1Xi - J T 1.1.6.6.w.q.5.5.0.5.q.3.3.q.5.5.q.w.m.c.c.n.n.v.V.V.",
"v.n.x.v.N.x.n.q.x.x.x.x.x.x.x.x.q.r.5.5.3.,.3.,.9.%.j r <X1X1X@X5X<Xb j +.! 2.5.5.3.>.>.>.3.5.w.q.q.5.5.q.5.6.q.w.r.r.c.r.v.N.N.",
"V.n.V.M.M.V.n.V.V.n.n.n.q.r.q.r.r.q.3.q.r.n.c.c.` } j n @X1X5X1X1X1XZ i > F Y 5.5.3.q.5.5.5.5.3.5.q.q.r.6.5.4.3.3.3.3.3.3.3.5.3.",
"V.N.C.C.V.n.V.C.Z.Z.M.C.n.n.q.n.n.n.n.x.H.H.C.k.&.> h C +X@XV <X@X5X+Xa j o.d.n.n.Z.n.n.n.n.c.6.q.5.5.6.q.5.3.3.3.3.0.q.q.w.w.c.",
"m.B.H.H.m.c.c.i.c.x.c.c.m.B.m.n.M.n.b.p.r.m.n.d. .- k <XV +Xa V V <X<XN t , u.V.n.M.V.M.U.V.v.b.c.c.c.x.x.p.q.w.m.w.x.q.n.x.n.x.",
"c.c.c.q.c.A.b.A.G.S.J.J.W./.Q.B.C.C.b.b.m.n.x./ O.e V V N N e r b n N C r - ' p.x.x.x.x.b.v.v.a.b.p.6.p.6.c.s.c.c.c.b.c.N.B.V.b.",
"G.c.p.6.6.c.c.A.c.A.S.H.H.H.W.(.(.!.W.R.W././.`.l e m i f p 7 6 4 7 s s w % { / u.y.c.s.A.D.D.s.u.d.d.2.2.2.u.A.S.p.b.k.b.S.Q.R.",
"A.B.c.x.6.5.6.i.6.c.6.c.c.c.b.A.A.A.D.D.J.R.R.-.z e t t j j - - - u h t y j o.'.`.].|. X;X;X}.F.|.[.[.].{.|.|.;X}.[.}.}.!.!.!.(.",
"C.C.C.C.N.x.n.x.x.q.q.q.q.q.0.3.5.6.6.4.6.1.2.W - u ; @.~ W Q =.=.:.:.X.l - O.} _..X.X{.{.{.F.l.F.A.k.j.F.F.F.[.F.A.j.D.b.D.!.!.",
"C.C.C.C.C.C.Z.m.n.x.r.n.r.0.r.3.,.,.,.>.>.>.U K o.; G W T 4.<.<.<.R K # $ +.+.@ A P P P P R <.2.9.2.<.<.2.2.<.<.<.<.,.,.1.1.u.u.",
"Q.C.Z.Z.N.Z.m.c.G.t.m.w.w.w.m.m.r.x.r.q.w.6.u.2.Q Q Q d.6.6.6.6.u.2.Q 7.R W =.! T <.4.9.4.1.6.1.4.4.4.6.4.4.8.8.6.6.6.6.2.p.c.V.",
"U.Z.Z.Z.m.m.w.r.w.q.3.3.q.q.q.q.n.m.m.H.m.m.b.A.c.u.A.6.p.i.5.i.1.1.4.6.c.6.7.7.8.w.w.w.w.w.i.c.c.6.4.3.<.,.>.>.>.4.6.w.c.p.s.c.",
"n.m.m.m.m.m.m.m.r.x.t.r.r.r.r.q.r.r.e.n.m.m.Z.C.H.C.J.m.C.b.x.x.x.x.w.w.t.w.5.0.e.e.n.Z.J.m.Z.N.m.m.m.c.m.w.6.6.w.6.4.5.p.c.c.b.",
"H.H.H.H.m.G.Z.H.Z.G.Z.m.m.t.t.t.e.e.e.0.0.r.r.n.n.M.m.B.N.V.b.V.V.q.e.r.r.r.e.e.e.e.e.r.n.m.n.Z.V.Z.N.B.G.G.G.G.G.G.A.A.c.c.S.D."
};
