/* XPM */
static char *_4ee503ec2e14305fcbc4367842dd28aLLWAcAcoZfO6fZgu[] = {
/* columns rows colors chars-per-pixel */
"65 72 107 2 ",
"   c #000322",
".  c #000A27",
"X  c #00022B",
"o  c #000828",
"O  c #000F34",
"+  c #4E5663",
"@  c #4A566E",
"#  c #4E5A6A",
"$  c #595F6F",
"%  c #455474",
"&  c #485673",
"*  c #4D5A75",
"=  c #465578",
"-  c #4C5679",
";  c #4D5C7B",
":  c #525D74",
">  c #515E7B",
",  c #5C626E",
"<  c #4F607E",
"1  c #516077",
"2  c #53617B",
"3  c #59657B",
"4  c #5D697F",
"5  c #2A4783",
"6  c #324E89",
"7  c #34528D",
"8  c #365293",
"9  c #395492",
"0  c #3F5A94",
"q  c #3E5C98",
"w  c #475681",
"e  c #465C85",
"r  c #4E5E83",
"t  c #4B5E8B",
"y  c #515F82",
"u  c #465E92",
"i  c #485E90",
"p  c #475F9C",
"a  c #4E6184",
"s  c #4E628C",
"d  c #526284",
"f  c #5A6684",
"g  c #53648C",
"h  c #59668B",
"j  c #5B6B8D",
"k  c #4D6393",
"l  c #46639C",
"z  c #4C649C",
"x  c #4E699E",
"c  c #536593",
"v  c #586792",
"b  c #556994",
"n  c #586A93",
"m  c #51669B",
"M  c #546A9C",
"N  c #5B6E9A",
"B  c #5A719D",
"V  c #616D83",
"C  c #646F8B",
"Z  c #636F9F",
"A  c #6B7791",
"S  c #707C96",
"D  c #4765A3",
"F  c #4C65A2",
"G  c #4E6AA4",
"H  c #4E66A9",
"J  c #4E6BAA",
"K  c #5266A0",
"L  c #536BA4",
"P  c #5A6EA5",
"I  c #526DAB",
"U  c #5C73A4",
"Y  c #5572AD",
"T  c #5A73AD",
"R  c #4F6BB2",
"E  c #536FB1",
"W  c #5572B2",
"Q  c #5975B4",
"!  c #5C79B5",
"~  c #5574BA",
"^  c #5A77BA",
"/  c #5C79BA",
"(  c #6274A5",
")  c #6679A3",
"_  c #687AA8",
"`  c #617AB3",
"'  c #617CBD",
"]  c #5E7DC0",
"[  c #808FAE",
"{  c #8DA0C0",
"}  c #9FABC5",
"|  c #A0ABC1",
" . c #AAB8D2",
".. c #C1CCE0",
"X. c #CDDAF5",
"o. c #D4DDF4",
"O. c #EAEEF7",
"+. c #E6EDFF",
"@. c #E5F3FF",
"#. c #EDF6FF",
"$. c #E5FBFF",
"%. c #ECFBFF",
"&. c #F3F3F5",
"*. c #FCFBF6",
"=. c #F4F6FB",
"-. c #F5init_map->fdFF",
";. c #FFFFFF",
/* pixels */
";.;.;.;.;.;.;.;.;.;.;.;.;.;.;.;.;.;.;.;.;.;.;.;.;.;.;.;.;.;.;.*.;.*.*.*.;.;.;.;.*.*.*.*.-.*.*.;.;.;.;.;.;.;.;.;.;.;.;.;.;.;.;.;.;.",
";.;.;.;.;.;.;.;.;.;.;.;.;.;.;.;.;.;.;.;.;.;.;.;.;.=.;.;.;.;.;.*.;.*.;.*.;.;.=.;.;.;.-.;.;.;.;.*.*.;.;.;.;.;.;.;.;.;.;.;.;.;.;.;.;.",
";.;.;.;.;.;.;.;.;.;.;.;.;.;.;.;.;.;.;.;.;.;.;.;.;.;.;.;.;.=.;.;.;.;.*.*.;.;.;.;.;.;.-.;.;.;.;.;.;.;.;.;.;.;.;.;.;.;.;.;.;.;.;.;.;.",
";.;.;.;.;.;.;.;.;.;.;.;.;.;.;.;.;.;.;.;.;.;.;.*.*.*.=.;.;.;.-.-.-.;.;.*.;.;.=.;.*.;.;.;.;.;.;.;.;.;.;.;.;.;.;.;.;.;.;.;.;.;.;.;.;.",
";.;.;.;.;.;.;.;.;.;.;.;.;.;.;.;.;.;.;.;.;.;.;.*.*.;.;.;.-.;.-.;.-.-.;.-.=.;.;.;.;.;.;.;.;.;.;.;.;.;.;.;.;.;.;.;.;.;.;.;.;.;.;.;.;.",
";.;.;.;.;.;.;.;.;.;.;.;.;.;.;.;.*.;.*.;.;.;.*.;.*.*.*.;.-.-.-.> > -.-.;.;.;.=.;.;.;.;.;.;.;.;.;.;.;.;.;.;.;.;.;.;.;.;.;.;.;.;.;.;.",
";.;.;.;.;.;.;.;.;.;.;.;.;.;.;.;.;.;.;.;.;.;.*.*.*.*.;.;.-.%.2 h h y -.=.=.;.;.;.;.*.;.;.;.;.;.*.;.;.;.;.;.;.;.;.;.;.;.;.;.;.;.;.;.",
";.;.;.;.;.;.;.;.;.;.;.;.;.;.;.;.*.;.;.;.;.;.;.;.;.;.-.-.-.* t v Z y > o.-.=.;.;.;.*.;.;.;.;.;.*.;.;.;.;.;.;.;.;.;.;.;.;.;.;.;.;.;.",
";.;.;.;.;.;.;.;.;.;.;.;.;.;.;.;.;.=.;.;.;.;.;.;.;.;.-.-.& s s U Z v r - ..-.-.;.;.;.*.;.=.;.*.*.;.;.;.;.;.;.;.;.;.;.;.;.;.;.;.;.;.",
";.;.;.;.;.;.;.;.;.;.;.;.;.;.;.;.;.=.=.;.;.;.;.=.-.-.-.* a k U T ( N f > * -.-.;.-.*.*.;.;.;.;.*.;.;.;.;.;.;.;.;.;.;.;.;.;.;.;.;.;.",
";.;.;.;.;.;.;.;.;.;.;.;.;.;.;.;.;.;.;.;.=.;.;.-.;.-.& = b z L Y ( v o d * : -.-.;.;.;.;.=.;.;.;.;.;.;.;.;.;.;.;.;.;.;.;.;.;.;.;.;.",
";.;.;.;.;.;.;.;.;.;.;.;.;.;.;.;.;.;.;.&.;.;.;.=.-.> d c z z Y Y B O   . d > > -.-.=.;.;.;.;.;.;.;.;.;.;.;.;.;.;.;.;.;.;.;.;.;.;.;.",
";.;.;.;.;.;.;.;.;.;.;.;.;.;.;.;.;.;.;.;.;.=.-.-.-.h s L D G J Y B $.$.%.n n y X.-.-.;.;.;.;.=.;.;.;.;.;.;.;.;.;.;.;.;.;.;.;.;.;.;.",
";.;.;.;.;.;.;.;.;.;.;.;.;.;.;.;.;.;.;.*.*.;.-.-.f s m L G D G Y B o $.X k s v y =.-.;.;.=.;.;.;.;.;.;.;.;.;.;.;.;.;.;.;.;.;.;.;.;.",
";.;.;.;.;.;.;.;.;.;.;.;.;.;.;.;.;.;.*.;.;.-.-.-.y b m p J J J Y ( N M z P L c v | -.;.;.;.;.;.;.;.;.;.;.;.;.;.;.;.;.;.;.;.;.;.;.;.",
";.;.;.;.;.;.;.;.;.;.;.;.;.;.;.;.;.;.*.*.;.-.-.> v m K L J J Y J U L m P F F m c 2 -.;.-.;.;.;.;.;.;.;.;.;.;.;.;.;.;.;.;.;.;.;.;.;.",
";.;.;.;.;.;.;.;.;.;.;.;.;.;.;.;.;.*.*.;.;.-.%.d c k x G x J J Y Y I L G H K z c d -.-.-.;.;.;.=.;.;.;.;.;.;.;.;.;.;.;.;.;.;.;.;.;.",
";.;.;.;.;.;.;.;.;.;.;.;.;.;.;.;.*.*.;.=.-.-.[ s k x x x x J Y W Y Y I J H F m m s 3 -.-.;.;.=.;.;.;.;.;.;.;.;.;.;.;.;.;.;.;.;.;.;.",
";.;.;.;.;.;.;.;.;.;.;.;.;.;.;.;.;.*.;.;.-.-.2 t b x x G L J Y W Y W I I L H m m s d -.-.&.;.;.;.;.;.;.;.;.;.;.;.;.;.;.;.;.;.;.;.;.",
";.;.;.;.;.;.;.;.;.;.;.;.;.;.;.;.;.;.;.-.-.-.; c x G x G Y Y W W W Y W Y L F H m c ; -.-.;.;.;.;.;.;.;.;.;.;.;.;.;.;.;.;.;.;.;.;.;.",
";.;.;.;.;.;.;.;.;.;.;.;.;.;.;.;.;.;.;.-.-.-.d m x x z L Y W W W Y Y Y Y I H D m s h 4 -.-.;.;.;.;.;.;.;.;.;.;.;.;.;.;.;.;.;.;.;.;.",
";.;.;.;.;.;.;.;.;.;.;.;.;.;.;.;.;.;.&.;.-.* g c x D G J Y R W W W Y Y Y I H H z m r 1 -.-.;.;.;.;.;.;.;.;.;.;.;.;.;.;.;.;.;.;.;.;.",
";.;.;.;.;.;.;.;.;.;.;.;.;.;.;.;.=.;.;.-.-.* g k x D G Y Y W E W Y J I T I I H F M a 2 %.;.-.;.*.;.;.;.;.;.;.;.;.;.;.;.;.;.;.;.;.;.",
";.;.;.;.;.;.;.;.;.;.;.;.;.;.;.;.;.;.;.-.-.2 s m x G G Y W J W W T Y Y W W I H H z b * -.-.-.;.;.;.;.;.;.;.;.;.;.;.;.;.;.;.;.;.;.;.",
";.;.;.;.;.;.;.;.;.;.;.;.;.;.;.;.;.;.=.-.-.1 g m L G J Y T 7 J W Y 6 Y Y Y J J H z c > -.-.;.;.;.;.;.;.;.;.;.;.;.;.;.;.;.;.;.;.;.;.",
";.;.;.;.;.;.;.;.;.;.;.;.;.;.;.;.;.;.;.;.-.< s k z l ! L Q Y Q J Q Y G T / W D H K c > -.-.;.;.*.;.;.;.;.;.;.;.;.;.;.;.;.;.;.;.;.;.",
";.;.;.;.;.;.;.;.;.;.;.;.;.;.;.;.;.;.-.-.-.< g c x l Y Y Y Y Y W W ! G Y T W H H K c y -.-.;.;.;.;.;.;.;.;.;.;.;.;.;.;.;.;.;.;.;.;.",
";.;.;.;.;.;.;.;.;.;.;.;.;.;.;.;.;.;.;.;.-.> c m z Y Y Y u L Y W W J J T Y W I D K c > -.-.;.;.;.;.;.;.;.;.;.;.;.;.;.;.;.;.;.;.;.;.",
";.;.;.;.;.;.;.;.;.;.;.;.;.;.;.;.;.;.;.-.-.> t m l L L ! 7 Y Y Q W I l Y T Y H D K c y -.=.;.;.;.;.;.;.;.;.;.;.;.;.;.;.;.;.;.;.;.;.",
";.;.;.;.;.;.;.;.;.;.;.;.;.;.;.;.;.;.;.;.-.> c m F D Y ! 7 Y L Q Q Q 7 Y Y Y G l m c y -.;.;.;.;.;.;.;.;.;.;.;.;.;.;.;.;.;.;.;.;.;.",
";.;.;.;.;.;.;.;.;.;.;.;.;.;.;.;.;.;.;.-.-.> c m z J Q Y u P Y W / W q ! T T Y F m c y -.;.;.;.;.;.;.;.;.;.;.;.;.;.;.;.;.;.;.;.;.;.",
";.;.;.;.;.;.;.;.;.;.;.;.;.;.;.;.;.;.;.-.-.> c z G H I Q Q J T Q Q I J Y ! I G z m c y -.;.;.;.;.;.;.;.;.;.;.;.;.;.;.;.;.;.;.;.;.;.",
";.;.;.;.;.;.;.;.;.;.;.;.;.;.;.;.;.;.;.=.-.2 g k l J W Q ! Y L ! Q J Y Q W E J G k v d -.;.;.=.;.;.;.;.;.;.;.;.;.;.;.;.;.;.;.;.;.;.",
";.;.;.;.;.;.;.;.;.;.;.;.;.;.;.;.;.;.;.;.-.* n k x l W ~ W ! L T T T W Q / ~ H l M g : -.=.;.;.;.;.;.;.;.;.;.;.;.;.;.;.;.;.;.;.;.;.",
";.;.;.;.;.;.;.;.;.;.;.;.;.;.;.;.=.;.;.-.-.: y c u J J ] W 7 Y ! T 6 T R ] I J l m y > -.;.;.;.=.;.;.;.;.;.;.;.;.;.;.;.;.;.;.;.;.;.",
";.;.;.;.;.;.;.;.;.;.;.;.;.;.;.;.;.;.;.;.-.> y c x G E W / 8 Y T ! 7 ! W ] J J z k d : -.-.;.;.;.;.;.;.;.;.;.;.;.;.;.;.;.;.;.;.;.;.",
";.;.;.;.;.;.;.;.;.;.;.;.;.;.;.;.*.;.;.;.-.=.w v x l I W / W W Y Q ~ W / ~ W G l b h @ -.;.=.;.;.;.;.;.;.;.;.;.;.;.;.;.;.;.;.;.;.;.",
";.;.;.;.;.;.;.;.;.;.;.;.;.;.;.;.;.=.;.;.;.-.y v z x I ^ Q Q 9 ! T ~ W / W E x z s > %.-.;.;.;.*.;.;.;.;.;.;.;.;.;.;.;.;.;.;.;.;.;.",
";.;.;.;.;.;.;.;.;.;.;.;.;.;.;.;.*.;.;.=.;.-.- c c z L W Q / 5 ! ] Y / / W J x z g ; -.-.;.=.;.;.;.;.;.;.;.;.;.;.;.;.;.;.;.;.;.;.;.",
";.;.;.;.;.;.;.;.;.;.;.;.;.;.;.;.;.;.;.;.-.;.> g i F H W / Q ! ! Q / W / W L z s y > -.-.;.;.=.;.;.;.;.;.;.;.;.;.;.;.;.;.;.;.;.;.;.",
";.;.;.;.;.;.;.;.;.;.;.;.;.;.;.;.;.;.;.-.;.-.#.r s x G I ] ! ! 7 / ^ ^ / Y x x b < 1 -.-.;.;.;.;.;.;.;.;.;.;.;.;.;.;.;.;.;.;.;.;.;.",
";.;.;.;.;.;.;.;.;.;.;.;.;.;.;.;.-.*.-.;.;.-.-.; a z z L I ! ! ! Q / ^ ^ Y z s s ; -.-.;.=.;.;.;.;.;.;.;.;.;.;.;.;.;.;.;.;.;.;.;.;.",
";.;.;.;.;.;.;.;.;.;.;.;.;.;.;.;.*.;.*.-.-.-.-.* s c l L ! Q ] / 8 ] W ! G x s a * -.-.;.;.;.;.;.;.;.;.;.;.;.;.;.;.;.;.;.;.;.;.;.;.",
";.;.;.;.;.;.;.;.;.;.;.;.;.;.;.;.;.;.;.&.;.-.-.-.; s c z Y W W ! ^ Q ' Y L z s ; 4 -.-.;.=.;.;.;.;.;.;.;.;.;.;.;.;.;.;.;.;.;.;.;.;.",
";.;.;.;.;.;.;.;.;.;.;.;.;.;.;.;.;.;.;.=.;.-.;.-.> d t L L Q Q ^ ' ^ E P K k a < -.-.-.;.;.;.*.;.;.;.;.;.;.;.;.;.;.;.;.;.;.;.;.;.;.",
";.;.;.;.;.;.;.;.;.;.;.;.;.;.;.;.;.;.;.*.-.;.-.-.S y s u l P ^ / E W ` z z k g & -.-.;.;.;.*.;.;.;.;.;.;.;.;.;.;.;.;.;.;.;.;.;.;.;.",
";.;.;.;.;.;.;.;.;.;.;.;.;.;.;.;.=.;.;.;.*.-.;.-.-.% g m z I ^ W ' ` E p M s = -.-.-.;.*.;.;.;.;.;.;.;.;.;.;.;.;.;.;.;.;.;.;.;.;.;.",
";.;.;.;.;.;.;.;.;.;.;.;.;.;.;.;.;.;.;.;.*.;.;.;.-.A r g m F ! ^ Q Q F K k r 2 -.-.;.;.;.;.*.*.;.;.;.;.;.;.;.;.;.;.;.;.;.;.;.;.;.;.",
";.;.;.;.;.;.;.;.;.;.;.;.;.;.;.;.;.;.;.;.;.;.;.;.-.-.> > s M T ! ^ E L c a > -.-.;.;.;.;.;.*.*.;.;.;.;.;.;.;.;.;.;.;.;.;.;.;.;.;.;.",
";.;.;.;.;.;.;.;.;.;.;.;.;.;.;.;.;.;.;.;.;.;.;.;.;.-.+.: b s Y Y E ~ P s ; # ;.;.;.;.;.;.;.;.;.*.;.;.;.;.;.;.;.;.;.;.;.;.;.;.;.;.;.",
";.;.;.;.;.;.;.;.;.;.;.;.;.;.;.;.;.;.;.;.;.;.;.;.;.-.-.* < M z L H I t g * ;.-.-.;.;.;.;.;.;.*.;.;.;.;.;.;.;.;.;.;.;.;.;.;.;.;.;.;.",
";.;.;.;.;.;.;.;.;.;.;.;.;.;.;.;.;.;.;.;.;.;.;.;.;.;.;.-.< s k l K m g * %.-.;.;.-.;.;.;.;.;.;.;.;.;.;.;.;.;.;.;.;.;.;.;.;.;.;.;.;.",
";.;.;.;.;.;.;.;.;.;.;.;.;.;.;.;.;.;.;.;.;.*.;.;.;.;.;.-.X.r k M m t y > -.-.;.;.;.;.;.;.;.;.;.;.;.;.;.;.;.;.;.;.;.;.;.;.;.;.;.;.;.",
";.;.;.;.;.;.;.;.;.;.;.;.;.;.;.;.;.;.;.;.;.;.;.*.;.=.-.-.-.; e s c v - -.-.;.;.*.;.*.;.;.;.;.-.;.;.;.;.;.;.;.;.;.;.;.;.;.;.;.;.;.;.",
";.;.;.;.;.;.;.;.;.;.;.;.;.;.;.;.;.;.;.;.;.;.*.;.*.;.;.-.%.{ s c c w - -.;.-.;.*.;.;.;.;.;.;.-.;.;.;.;.;.;.;.;.;.;.;.;.;.;.;.;.;.;.",
";.;.;.;.;.;.;.;.;.;.;.;.;.;.;.;.;.;.;.;.;.*.;.*.;.*.-.-.-.; e k c g = -.-.-.;.;.*.*.;.;.;.;.;.;.;.;.;.;.;.;.;.;.;.;.;.;.;.;.;.;.;.",
";.;.;.;.;.;.;.;.;.;.;.;.;.;.;.;.;.;.;.;.;.;.*.;.;.;.;.-.C y c m M M s ; -.;.-.;.;.*.;.;.;.;.;.;.;.;.;.;.;.;.;.;.;.;.;.;.;.;.;.;.;.",
";.;.;.;.;.;.;.;.;.;.;.;.;.;.;.;.;.;.;.;.;.;.;.;.;.;.;.-.; c c U ` i c a -.-.;.;.;.*.;.;.;.;.;.;.;.;.;.;.;.;.;.;.;.;.;.;.;.;.;.;.;.",
";.;.;.;.;.;.;.;.;.;.;.;.;.;.;.;.;.;.;.;.;.;.;.;.;.=.;.o.y M K T I T k a ; -.-.;.;.;.;.*.;.;.;.;.;.;.;.;.;.;.;.;.;.;.;.;.;.;.;.;.;.",
";.;.;.;.;.;.;.;.;.;.;.;.;.;.;.;.;.;.;.;.;.;.;.;.;.;.-.- h k E E ^ I M b ; -.=.;.;.;.*.;.;.*.;.;.;.;.;.;.;.;.;.;.;.;.;.;.;.;.;.;.;.",
";.;.;.;.;.;.;.;.;.;.;.;.;.;.;.;.;.;.;.;.;.;.;.;.;.-.-.f t M I ~ ~ Q p t g #.-.;.;.;.*.*.;.;.;.;.;.;.;.;.;.;.;.;.;.;.;.;.;.;.;.;.;.",
";.;.;.;.;.;.;.;.;.;.;.;.;.;.;.;.;.;.;.;.;.;.;.;.;.-.V y c z E ] ~ I K m h : ;.-.;.;.;.;.;.;.;.;.;.;.;.;.;.;.;.;.;.;.;.;.;.;.;.;.;.",
";.;.;.;.;.;.;.;.;.;.;.;.;.;.;.;.;.*.;.;.;.;.;.;.=.-.> y z D R R / J L m y - -.;.;.;.;.;.;.;.;.;.;.;.;.;.;.;.;.;.;.;.;.;.;.;.;.;.;.",
";.;.;.;.;.;.;.;.;.;.;.;.;.;.;.;.;.;.*.*.;.;.;.;.;.-.: g k E R ] W Y K b t > -.-.-.;.;.;.*.-.-.;.;.;.;.;.;.;.;.;.;.;.;.;.;.;.;.;.;.",
";.;.;.;.;.;.;.;.;.;.;.;.;.;.;.;.;.;.*.;.;.;.;.-.-.-.d s m M J W W J z k b d -.-.;.;.;.;.;.*.;.-.;.;.;.;.;.;.;.;.;.;.;.;.;.;.;.;.;.",
";.;.;.;.;.;.;.;.;.;.;.;.;.;.;.;.;.;.;.*.;.;.-.;.-.-.; v c c T P T B M b v = | -.;.;.;.;.;.;.;.;.;.;.;.;.;.;.;.;.;.;.;.;.;.;.;.;.;.",
";.;.;.;.;.;.;.;.;.;.;.;.;.;.;.;.;.;.*.;.;.;.;.=.-.#.* j g g N _ U ) v h j 2 3 -.;.;.;.;.;.;.;.;.;.;.;.;.;.;.;.;.;.;.;.;.;.;.;.;.;.",
";.;.;.;.;.;.;.;.;.;.;.;.;.;.;.;.;.;.;.*.;.;.;.;.;.-.3 2  .-.-.-.-.%.-.@.4 3 $ -.-.;.;.;.;.;.;.;.;.;.;.;.;.;.;.;.;.;.;.;.;.;.;.;.;.",
";.;.;.;.;.;.;.;.;.;.;.;.;.;.;.;.;.;.;.*.;.;.;.;.;.O.$ -.-.-.-.-.=.-.-.-.-.+ $ ;.;.;.;.;.;.;.;.;.;.;.;.;.;.;.;.;.;.;.;.;.;.;.;.;.;.",
";.;.;.;.;.;.;.;.;.;.;.;.;.;.;.;.;.;.*.;.;.;.;.;.;.-.;.=.-.;.-.-.;.-.;.=.;.-.;.-.;.;.;.;.;.;.;.;.;.;.;.;.;.;.;.;.;.;.;.;.;.;.;.;.;.",
";.;.;.;.;.;.;.;.;.;.;.;.;.;.;.;.;.;.*.*.;.;.;.;.;.;.;.;.-.;.;.;.;.;.;.;.;.-.=.;.;.;.;.;.;.;.;.;.;.;.;.;.;.;.;.;.;.;.;.;.;.;.;.;.;.",
";.;.;.;.;.;.;.;.;.;.;.;.;.;.;.;.;.;.;.;.;.;.;.;.;.;.;.;.*.*.;.*.;.*.;.;.;.-.;.-.;.;.;.;.;.;.;.;.;.;.;.;.;.;.;.;.;.;.;.;.;.;.;.;.;."
};
