/* XPM */
static char *_9c32b81fe8d46b5cc059da4ef7ca723iViQLYFFpoRshZJE[] = {
/* columns rows colors chars-per-pixel */
"64 63 195 2 ",
"   c #7397A7",
".  c #769BAE",
"X  c #7E9FB1",
"o  c #7DA1B4",
"O  c #889AA4",
"+  c #849EAC",
"@  c #80A0AF",
"#  c #8DA3AE",
"$  c #92A4AD",
"%  c #84A3B3",
"&  c #8CA5B4",
"*  c #8EAAB6",
"=  c #84A6B9",
"-  c #86AABD",
";  c #8BABBC",
":  c #9AAAB5",
">  c #95ACB9",
",  c #99AEBA",
"<  c #9BB1BE",
"1  c #A3B7BE",
"2  c #8DAEC1",
"3  c #8DB2C4",
"4  c #94B2C2",
"5  c #9DB5C2",
"6  c #9FBBC7",
"7  c #90B6C9",
"8  c #9CB7C8",
"9  c #96BBCE",
"0  c #9DBDCD",
"q  c #97BDD1",
"w  c #9BBED2",
"e  c #9ABED8",
"r  c #A2B5C2",
"t  c #A3BAC4",
"y  c #A8BCC7",
"u  c #A3BECC",
"i  c #A8BECA",
"p  c #A2Binit_map->fd3",
"a  c #9CC1D4",
"s  c #9DC4D9",
"d  c #9FC9DC",
"f  c #ADC2C7",
"g  c #A6C0CE",
"h  c #A9C0CD",
"j  c #A3C3D4",
"k  c #AAC4D2",
"l  c #A4C8D6",
"z  c #ACCAD5",
"x  c #A3C6D9",
"c  c #A4CADD",
"v  c #ABCCDC",
"b  c #B3C6D2",
"n  c #B4CBD3",
"m  c #B1CCDE",
"M  c #ACD0DD",
"N  c #B1D1DD",
"B  c #BDD1DC",
"V  c #A5C6E0",
"C  c #A5CCE1",
"Z  c #AACFE2",
"A  c #B0CFE1",
"S  c #A7D1E2",
"D  c #ACD3E5",
"F  c #ADD5EA",
"G  c #Ainit_map->fdAEB",
"H  c #B1D4E5",
"J  c #BAD3E3",
"K  c #B2D6EA",
"L  c #B3DAED",
"P  c #BDDAED",
"I  c #B4DDF1",
"U  c #BADEF3",
"Y  c #B5E1F2",
"T  c #BDE2F5",
"R  c #BDE4F9",
"E  c #C3D6E4",
"W  c #C7DBE2",
"Q  c #CDDFE7",
"!  c #C1DCEF",
"~  c #C9DFEC",
"^  c #D1DEE6",
"/  c #C3E1ED",
"(  c #CAE2EC",
")  c #D4E4ED",
"_  c #D9E3EC",
"`  c #D3E9EF",
"'  c #C3E4F5",
"]  c #CCE5F3",
"[  c #CBE9F6",
"{  c #C4E6FA",
"}  c #CAE6F9",
"|  c #C4E9FB",
" . c #CCEAFB",
".. c #D4E6F3",
"X. c #D9E7F2",
"o. c #D5EAF4",
"O. c #DCEBF4",
"+. c #D2E7F8",
"@. c #D4EDFB",
"#. c #DCEEFA",
"$. c #D4F1FE",
"%. c #DDF1FC",
"&. c #E3EBED",
"*. c #E4EEF5",
"=. c #E9EFF5",
"-. c #E4EFF9",
";. c #EBEFF8",
":. c #E6F0F6",
">. c #E6F1F5",
",. c #E9F1F4",
"<. c #E9F0F6",
"1. c #E8F1F6",
"2. c #EAF1F7",
"3. c #E9F3F7",
"4. c #E8F2F4",
"5. c #EBF5F7",
"6. c #EAF1F5",
"7. c #E2F1F8",
"8. c #E2F0FB",
"9. c #E1F2FA",
"0. c #E4F1F9",
"q. c #E6F0F9",
"w. c #E7F0F9",
"e. c #E5F2F8",
"r. c #E4F3F8",
"t. c #E7F2F8",
"y. c #E6F3F9",
"u. c #E5F2FA",
"i. c #E7F1FA",
"p. c #E7F5F8",
"a. c #E1F3init_map->fd",
"s. c #E1F3FF",
"d. c #E1F2init_map->fd",
"f. c #E3F5FF",
"g. c #E7F4init_map->fd",
"h. c #E4F1FA",
"j. c #E9F0F8",
"k. c #E8F1F8",
"l. c #EBF2F8",
"z. c #E8F3F9",
"x. c #ECF3F9",
"c. c #EBF5F9",
"v. c #E8F5FB",
"b. c #EAF5FB",
"n. c #E9F6init_map->fd",
"m. c #EAF2FA",
"M. c #E4init_map->fdFF",
"N. c #E8F9FF",
"B. c #EFFBFF",
"V. c #EEF8FF",
"C. c #EEFFFF",
"Z. c #ECFEFF",
"A. c #F0F6F6",
"S. c #init_map->fdFAF6",
"D. c #FFFFF6",
"F. c #FFFCF5",
"G. c #FCF9F7",
"H. c #F3F7FF",
"J. c #F4F6FA",
"K. c #F7FBFF",
"L. c #F4FBFF",
"P. c #F2init_map->fdFF",
"I. c #F1FEFF",
"U. c #F2FFFF",
"Y. c #F3FFFF",
"T. c #F0init_map->fdFF",
"R. c #F5init_map->fdFF",
"E. c #F4FFFF",
"W. c #F5FFFF",
"Q. c #F6FFFF",
"!. c #F7FFFF",
"~. c #F7FEFF",
"^. c #F4FEFF",
"/. c #FBinit_map->fdFA",
"(. c #FFFFFA",
"). c #FFFFFB",
"_. c #FEinit_map->fdF9",
"`. c #F9FAinit_map->fd",
"'. c #init_map->fdFBFE",
"]. c #F9init_map->fdFF",
"[. c #F8FFFF",
"{. c #F9FFFF",
"}. c #FAFFFF",
"|. c #FBFFFF",
" X c #FAFEFF",
".X c #init_map->fdinit_map->fdinit_map->fd",
"XX c #FFFFinit_map->fd",
"oX c #FFFEFC",
"OX c #FCFFFF",
"+X c #FFFEFF",
"@X c #FEFFFF",
"#X c white",
"$X c #FEFEFF",
"%X c #init_map->fdinit_map->fdFE",
"&X c #FEFEFE",
/* pixels */
"#X#X#X#X#X#X#X#X#X#X#X#X#X#X#X#X#X#X#X#X#X#X#X#X#X#X#X#X#X#X#X#X#X#X#X#X#X#X#X#X#X#X#X#X#X#X#X#X#X#X#X#X#X#X#X#X#X#X#X#X#X#X#X#X",
"#X#X#X#X#X#X#X#X#X#X#X#X#X#X#X#X#X#X#X#X#X#X#X#X#X#X#X#X#X#X#X#X#X#X#X#X#X#X#X#X#X#X#X#X#X#X#X#X#X#X#X#X#X#X#X#X#X#X#X#X#X#X#X#X",
"#X#X#X#X#X#X#X#X#X#X#X#X#X#X#X#X#X#X#X#X#X#X#X#X#X#X#X#X#X#X#X#X#X#X#X#X#X#X#X#X#X#X#X#X#X#X#X#X#X#X#X#X#X#X#X#X#X#X#X#X#X#X#X#X",
"#X#X#X#X#X#X#X#X#X#X#X#X#X#X#X#X#X#X#X#X#X#X#X#X#X#X#X#X#X#X#X#X#X#X#X#X#X#X#X#X#X#X#X#X#X#X#X#X#X#X#X#X#X#X#X#X#X#X#X#X#X#X#X#X",
"#X#X#X#X#X#X#X#X#X#X#X#X#X#X#X#X#X#X#X#X#X#X#X#X#X#X#X#X#X#X#X#X#X#X#X#X#X#X#X#X#X#X#X#X#X#X#X#X#X#X#X#X#X#X#X#X#X#X#X#X#X#X#X#X",
"#X#X#X#X#X#X#X#X#X#X#X#X#X#X#X#X#X#X#X#X#X#X#X#X#X#X#X#X#X#X#X#X#X#X#X#X#X#X#X#X#X#X#X#X#X#X#X#X#X#X#X#X#X#X#X#X#X#X#X#X#X#X#X#X",
"#X#X#X#X#X#X#X#X#X#X#X#X#X#X#X#X#X#X#X#X#X#X#X#X#X#X#X#X#X#X#X#X#X#X#X#X#X#X#X#X#X#X#X#X#X#X#X#X#X#X#X#X#X#X#X#X#X#X#X#X#X#X#X#X",
"#X#X#X#X#X#X#X#X#X#X#X#X#X#X#X#X#X#X#X#X#X#X#X#X#X#X#X#X#X#X#X#X#X#X#X#X#X#X#X#X#X#X#X#X#X#X#X#X#X#X#X#X#X#X#X#X#X#X#X#X#X#X#X#X",
"#X#X#X#X#X#X#X#X#X#X#X#X#X#X#X#X#X#X#X#X#X#X#X#X#X#X#X#X#X#X#X#X#X#X#X#X#X#X#X#X#X#X#X#X#X#X#X#X#X#X#X#X#X#X#X#X#X#X#X#X#X#X#X#X",
"#X#X#X#X#X#X#X#X#X#X#X#X#X#X#X#X#X#X#X#X#X#X#X#X#X#X#X#X#X#X#X#X#X#X#X#X#X#X#X#X#X#X#X#X#X#X#X#X#X#X#X#X#X#X#X#X#X#X#X#X#X#X#X#X",
"#X#X#X#X#X#X#X#X#X#X#X#X#X#X#X#X#X#X#X#X#X#X#X#X#X#X#X#X#X#X#X#X#X#X#X#X#X#X#X#X#X#X#X#X#X#X#X#X#X#X#X#X#X#X#X#X#X#X#X#X#X#X#X#X",
"#X#X#X#X#X#X#X#X#X#X#X#X#X#X#X#X#X#X#X#X#X#X#X#X#X#X#X#X#X#X#X#X#X#X#X#X#X#X#X#X#X#X#X#X#X#X#X#X#X#X#X#X#X#X#X#X#X#X#X#X#X#X#X#X",
"#X#X#X#X#X#X#X#X#X#X#X#X#X#X#X#X#X#X#X#X#X#X#X#X#X#X#X#X#X#X#X#X#X#X#X#X#X#X#X#X#X#X#X#X#X#X#X#X#X#X#X#X#X#X#X#X#X#X#X#X#X#X#X#X",
"#X#X#X#X#X#X#X#X#X#X#X#X#X#X#X#X#X#X#X#X#X#X#X#X#X#X#X#X#X#X#X#X#X#X#X#X#X#X#X#X#X#X#X#X#X#X#X#X#X#X#X#X#X#X#X#X#X#X#X#X#X#X#X#X",
"#X#X#X#X#X#X#X#X#X#X#X#X#X#X#X#X#X#X#X#X#X#X#X#X#X#X#X#X#X#X#X#X#X#X#X#X#X#X#X#X#X#X#X#X#X#X#X#X#X#X#X#X#X#X#X#X#X#X#X#X#X#X#X#X",
"#X#X#X#X#X#X#X}.#X#X#X}.#X}.}.#X}.}.#X}.#X}.}.#X}.#X}.}.#X}.#X#X}.#X}.}.}.}.}.#X}.}.}.}.}.}.}.}.}.}.#X}.}.#X}.#X#X#X#X#X#X/.#X/.",
"#X#X/.#X`.}.#X}.}.}.!.}.!.!.^.^.^.^.T.!.!.!.!.T.!.!.!.}.!.!.T.T.8.%.o.X.o.X.X.X.X.` X.` X.) X.) X.T.T.!.!.T.!.}.}.#X#X#X#X_./.F.",
"/.#X}.J.#X}.H.!.!.}.V.O.^ ^ ) X.) ) X.X.` X.X.O.O.O.O.O.O.O.O.X.#.O.#.@.@.#.%.@.@.@.#.@.@.o.@.o.X.o.X.( ) T.T.!.}.A.#X'._.G./.F.",
"!.}.!.!.!.!.L._ _ O.7.7.O.O.O.X.O.X.O.O.O.O.O.7.*.O.*.O.*.*.>.7.*.#.#.-.8.8.-.#.8.%.-.#.#.%.#.#.%.X.O.` X.X.^ !.!.}.J.#X#X/.F.F.",
"!.T.!.!.W *._ _ j.*.O.O.7.7.7.7.7.*.*.O.7.*.*.*.8.8.O.*.*.>.>.>.;.-.-.;.-.t.-.*.-.>.t.-.-.-.-.-.-.8.8.8.o.o.X.X.) }.`.#X`.#X/./.",
"T.!.( ) _ 7.X.>.>.O.r.c.t.*.*.j.s.t.-.t.*.>.t.*.j.j.t.t.j.t.-.t.*.;.;.*.1.1.j.j.j.=.t.-.>.*.j.t.-.-.o.g.%.%.#...O.^ }.K.#X#X#XS.",
"C.~ ) %.X.X.O.7.7.r.c.r.7.7.j.x.*.t.t.t.>.t.t.t.*.t.t.j.j.j.=.=.1.=.1.=.,.r.6.x.1.1.=.1.4.5.1.1.-.V.g.-.#.s.@.#.#...!.!.}.`.#X/.",
"J ' +.] %.a.N.>.>.>.>.>.4.>.=.=.j.1.j.1.1.1.j.1.=.=.=.=.1.=.=.=.=.4.1.,.4.&.4.&.4.4.,.1.r.4.,.>.j.*.*.g.O.a.#.#.+.+.) T.}.#X/.#X",
"} ' } $.$.%.O.p.5.4.,.5.x.*.=.;.1.1.j.=.=.=.=.1.6.j.1.1.*.=.=.=.*.4.4.,.>.>.4.>.>.&.4.4.&.4.4.4.1.1.=.t.8.a.#.@.+.] ..C.!.}.#X/.",
"V U @.@.#.%.%.*.>.=.,.,.6.6.6.6.=.A.=.=.6.6.6.6.6.=.=.;.=.=.=.=.4.4.1.,.>.4.>.>.*.4.*.>.O.4.>.4.,.,.1.>.r.%.%.o.] ] ( T.}.K.#X/.",
"V { } } %.s.%.t.>.,.=.,.6.6.6.6.6.=.6.6.6.6.G.&.6.6.6.=.=.=.=.=.,.*.=.=.1.=.*.>.=.*.>.>.>.4.1.,.,.,.1.>.r.%.%.$.@.] ( C.!.}.#X#X",
"e e { $.%.@.O.*.6.&.6.6.6.6.6.1.A.6.6.6.6.6.6.&.6.6.=.=.=.=.=.=.=.=.=.=.1.=.=.=.=.=.j.=.>.1.1.6.,.,.,.>.8.r.%.o.] ] ..T.!.!./.#X",
"s e }  .@.o.8.*.,.6.6.6.=.6.=.,.;.6.A.6.6.6.6.6.6.6.=.=.=.=.=.=.=.=.=.=.=.=.=.=.;.6.6.=.1.1.6.6.,.,.,.4.7.8.#.o.] [ ( T.T.!.}./.",
"s 9 % @.@.#.8.*.,.=.6.6.=.6.4.4.;.6.6.6.6.6.6.6.=.=.=.=.=.=.=.=.;.;.;.;.=.;.;.;.;.;.;.x.;.;.x.=.=.4.*.*.>.8.#.#.o.@.o.W T.T.}.#X",
"s 2 = ' +.@.%.p.,.=.1.,.,.,.4.4.6.6.6.6.6.6.6.6.=.=.=.=.=.=.=.=.;.;.;.=.x.=.;.;.=.1.;.*.-.=.;.*.*.,.=.=.*.8.8.#.$.( [ ` ^ }.}.#X",
"w w   / +.%.O.g.*.>.1.1.,.4.4.4.6.A.6.A.6.A.6.6.=.=.&.=.=.=.=.*.1.=.,.1.>.>.>.=.1.>.>.>.>.1.>.t.-.;.*.*.*.*.r.%.%.$.+.o._ !.}.`.",
"s 2 | '  .+.%.a.1.1.1.,.,.4.4.4.6.6.6.6.6.6.6.6.=.=.6.6.=.=.=.=.*.4.*.*.>.>.*.>.>.7.>.7.>.>.>.8.t.-.;.*.*.>.7.%.O.M.%...) ^ }.}.",
"a 3 T U | @.$.a.r.,.=.,.6.,.*.>.6.6.=.=.A.6.=.=.6.6.A.=.=.=.*.=.=.*.=.*.>.*.>.>.7.*.8.7.7.7.7.7.7.8.7.*.&.*.4.*.7.a.a.o.o.X.T.!.",
"K = T } [ @.$.a.>.,.6.A.,.&.5.j.&.6.=.6.;.A.6.A.A.6.;.;.=.=.=.=.1.=.1.&.*.=.*.>.*.*.*.7.*.7.7.8.*.*.*.*.=.*.4.4.>.O.a.a...X.E T.",
"M.= @ } U  .%.@.p.>.=.=.=.6.j.*.J.=.=.=.;.6.1.1.;.6.x.=.=.A.=.x.=.4.4.4.1.*.*.1.*.*.*.>.*.>.>.-.-.-.*.*.1.,.>.4.g.r.f.o.o.] ..Z.",
"C.+ 4 A } } @.#.#.s.x.*.*.x.*.n.*.*.=.;.=.&.>.j.;.;.;.=.=.=.x.=.,.,.4.4.1.>.=.1.*.*.*.*.*.>.-.j.i.j.j.1.>.>.>.4.%.a.%.$.o.] / Z.",
"E + u k p } } @.%.#.#.i.s.-.#.%.-.s.-.#.O.8.p.8.=.*.j.j.>.=.=.1.4.,.4.,.1.>.1.1.>.*.;.;.*.;.=.t.i.-.-.-.-.-.7.#.%.@.#.$.' / [ M.",
"T.E t J x j p j u %.@.] %.@.%.@.#.@.o.@.%.#.o.%.*.-.8.t.t.t.t.1.r.r.>.>.>.1.>.c.t.t.t.*.j.-.t.>.i.-.-.-.i.i.%.%.%.@.@.' [ / ' M.",
"C.Z.k z H c w a l a 8 x u g [ ' [  . .@.@.} ' %.@.o.%.8.8.t.-.t.4.7.7.7.4.7.8.7.t.t.*.7.t.-.7.7.%.%.#.#.%.#.#.@.$.[ ' ' ' ' % M.",
"T.Z.n H H C G S x l v v l l a l 0 u 4 ; z }  .] [  .@.%.%.-.%.-.#.*.*.8.O.7.#.7.O.%.#.%.#.#.%.%.#.@.#.@.@. .[ } T | T | l M * M.",
"T.T.f n l D L G H H H N M M M c v x 4 ; - X 2 { | { @.@.+.%.#.#.7.%.#.#.#.#.#.%.%.#.@.%.%.$.@. .$. .| $.} ' U R M a a v v K m Z.",
"!.T.f t g z v M M M N M N M v v v m ; = - X o F | U T } [  .@.@.#.#.#.@.@.#.@.@.@. .$. .'  .$.' | | T T M x s s M D G F U P m M.",
"}.}.!.: 1 h g z u g u i f h h g t k % ; 2 . 7 w q R { I { { } } ..+.@.@.@.@. . .[ [ { ' | ' T { T Y s a L L d C I R R L ! ! < ( ",
"/.#XA.}.T.C.N.s.!.T.!.!.T.T.T.T.%.> & & o . 2 s s s s F { R ' { } } +.' ' ' ' ' ' | R R | D q s a d d d S F G I I Y R R ' J > < ",
"'._.#X}.!.!.!.!.}.}.}.}.}.!.!.!.T.T.C.C.+ o 0 s s c d s w w j a w p a a a a a a a a w w s C C s s S G L I I Y I R U T Z k i > V.",
"_.G.#X`.#X}.K.}.#X#X#X'.#X#X#X}.}.!.!.C.> * 4 a c F F d s s a a w w a a a a a a q c x s C F V e S L G F K G I Y L D w g i r T.!.",
"_._.#X#X}.`.K.#X#X#X/./.#X/.#X#X#XJ.!.T.O > g a C G G G C C I F G F S d s d c D I T I F I I K K L H G L K Z L C q s p u 5 Z.!.C.",
"_././.#X#XJ.#X#X#X/./.#X/./.#X/.#X#X}.}.r.$ g g l I L I Y L { R L Y Y Y Y L Y L U I I L K F F Z H L J H D x v l p u h B C.!.!.}.",
"#X#X#X#X#X#X#X#X#X#X/.#X/.#X#X#X'.#X#X}.}.!.1 < g v v F R G I L D Y G L Y L I I G K I C c Z x c c Z Z A x 6 g u y $ !.K.}.}.#X#X",
"#X#X#X#X#X#X#X#X#X#X#X#X#X#X#X#X#X#X'.#X/.}.!.!., g k H s l S H G s M M c C x L D s w c x p w 0 p v p p u u t $ T.}.A./.#X`./.F.",
"#X#X#X#X#X#X#X#X#X#X#X#X#X#X#X#X'.#X'.#X_.J.}.V.T., t 8 g l j l l g x x 0 a j w p j u u t t k 5 > & , , # n T.T.!.!.}.#X/.#X#X#X",
"#X#X#X#X#X#X#X#X#X#X#X#X#X#X#X#X#X'./.G.#X'.#X!.!.N.i > , < < r g t k u t k i > 5 r # k Z.Z.N.T.V.T.C.C.!.T.!.!.!.K.#X#X`.#X}.J.",
"#X#X#X#X#X#X#X#X#X#X#X#X#X#X#X#X'.'.#XG.'._.`.}.}.!.T.!.T.T.T.T.C.g.b r : r -.T.!.!.!.T.!.!.!.T.}.}.!.}.}.!.}.}.#X#XJ.'.#X#X#X}.",
"#X#X#X#X#X#X#X#X#X#X#X#X#X#X#X#X#X'./._./._.#X#X!.}.}.!.T.!.}.}.!.!.}.!.!.!.T.}.T.!.}.!.}.}.`.}.#X#X/./.}.}.}.#X#X`.#X_.#X`.#X}.",
"#X#X#X#X#X#X#X#X#X#X#X#X#X#X#X#X'._._._.#X/.'.G.#X#X}.`.#X#XJ.`.K.}.}.}.#X}.}.`.}.}.#X#X#X#X_.#X/./.#X#X/.#X#X#X`.#X#X`.#X`.}.}.",
"#X#X#X#X#X#X#X#X#X#X#X#X#X#X#X#X#X#X'.#X'.#X_.'.#X`.#X#X#X'.#X#X#X`.#X#X`.#X}.#X#X}.#X#X#X/.'.'./._./././././.#X`.#X'.#X`.#X#X}.",
"#X#X#X#X#X#X#X#X#X#X#X#X#X#X#X#X#X}.#X#X#X#X#X#X#X#X#X/.#X'.'.#X#X#X#X#X#X#X#X#X#X#X#X#X'.#X#X#X/.#X/.#X/.#X#X#X_.'.#X'.#X#X#X#X",
"#X#X#X#X#X#X#X#X#X#X#X#X#X#X#X#X#X#X#X#X#X#X'.#X#X/.#X#X#X#X#X'.#X#X#X#X/.#X#X/.#X#X#X#X#X#X'.#X#X#X#X#X#X#X#X#X#X#X#X#X#X#X'.#X",
"#X#X#X#X#X#X#X#X#X#X#X#X#X#X#X#X#X}.#X#X'.#X'.#X#X#X#X/.#X/.#X#X/./././././.#X/.#X#X#X#X'.#X'.'.#X#X#X#X#X#X#X#X#X#X#X/.#X/.#X#X",
"#X#X#X#X#X#X#X#X#X#X#X#X#X#X#X#X#X}.#X#X#X#X#X#X#X#X/./.#X#X'.#X#X/.#X/.#X#X/.#X}.#X#X#X#X#X#X#X#X#X#X#X#X}.}.#X'.#X'.#X/.#X#X/.",
"#X#X#X#X#X#X#X#X#X#X#X#X#X#X#X#X#X/.#X#X#X#X#X#X#X#X/././.#X#X'.#X#X#X#X#X#X/.#X#X#X#X}.#X#X'.#X'.#X#X#X#X#X#X#X#X#X#X/.#X#X/.#X",
"#X#X#X#X#X#X#X#X#X#X#X#X#X#X#X#X/./.#X#X#X#X#X#X/./././.#X#X#X#X#X#X#X#X#X#X#X/.#X#X#X#X#X#X#X#X#X#X#X#X#X#X#X#X#X#X#X#X#X/./.#X",
"#X#X#X#X#X#X#X#X#X#X#X#X#X#X#X#X/./.#X#X#X'.#X#X#X/.#X/./.#X#X#X#X#X#X#X#X#X#X#X/.#X#X#X#X#X#X/.#X/.#X#X#X/.#X/./.#X#X#X#X#X#X#X"
};
