/* XPM */
static char *_2ce3ccf7f5f4f09aa0c455d4f97782f9mPMYgZaVLS7BVxm[] = {
/* columns rows colors chars-per-pixel */
"64 64 242 2 ",
"   c #125BCC",
".  c #1A5DC6",
"X  c #034EDA",
"o  c #034CD6",
"O  c #0A5CD6",
"+  c #0453DD",
"@  c #0956DE",
"#  c #0559DB",
"$  c #0B5CDB",
"%  c #0859D3",
"&  c #145AD6",
"*  c #0E5BCD",
"=  c #1C6CDB",
"-  c #1968D8",
";  c #1F71DF",
":  c #1461D5",
">  c #2769CA",
",  c #3679C9",
"<  c #236EDB",
"1  c #276DD2",
"2  c #2372DC",
"3  c #2E73DC",
"4  c #2975D9",
"5  c #3B7EDC",
"6  c #3479D9",
"7  c #3368CE",
"8  c #0254E3",
"9  c #0A56E4",
"0  c #025AE5",
"q  c #0A5CE5",
"w  c #0356EB",
"e  c #0957E9",
"r  c #045CEC",
"t  c #0A5CEB",
"y  c #105FE4",
"u  c #115AEB",
"i  c #0356F3",
"p  c #045DF3",
"a  c #0B5EF3",
"s  c #0356FB",
"d  c #045CFA",
"f  c #095CFB",
"g  c #074FE1",
"h  c #0661E3",
"j  c #0D63E4",
"k  c #0562ED",
"l  c #0B63EE",
"z  c #0D6BEE",
"x  c #0E6DE7",
"c  c #1364E3",
"v  c #1B6CE3",
"b  c #1264EC",
"n  c #136CED",
"m  c #1469E3",
"M  c #1A71E5",
"N  c #1772EC",
"B  c #0563F3",
"V  c #0B64F3",
"C  c #0569F5",
"Z  c #0C6AF5",
"A  c #0563F9",
"S  c #0B65FA",
"D  c #056BFB",
"F  c #0E69FA",
"G  c #0D6EF9",
"H  c #0C6CFB",
"J  c #1165F4",
"K  c #126CF4",
"L  c #1C6CF4",
"P  c #126DFA",
"I  c #1A69F6",
"U  c #0E71F4",
"Y  c #0672FD",
"T  c #0C73FE",
"R  c #0E79FF",
"E  c #1371F5",
"W  c #1C72F6",
"Q  c #1570FE",
"!  c #1473FC",
"~  c #1C74FC",
"^  c #1479FC",
"/  c #1A79FC",
"(  c #1379F7",
")  c #0C73E9",
"_  c #2877E5",
"`  c #317AE4",
"'  c #367DE8",
"]  c #216CF5",
"[  c #226FFD",
"{  c #2474FD",
"}  c #237BFE",
"|  c #2A7DFF",
" . c #2572F8",
".. c #226EE6",
"X. c #1A80FE",
"o. c #2C81E6",
"O. c #3584E5",
"+. c #3C86E5",
"@. c #3A85EA",
"#. c #2B83FF",
"$. c #2984FA",
"%. c #3B8AF8",
"&. c #3E97F5",
"*. c #4C8DDC",
"=. c #4488DD",
"-. c #5696D9",
";. c #639CDA",
":. c #6A9AC8",
">. c #7DABDA",
",. c #7CA8D6",
"<. c #7DB0DF",
"1. c #7BA9CD",
"2. c #4689E9",
"3. c #5997E6",
"4. c #468CF1",
"5. c #4697FB",
"6. c #559CFB",
"7. c #4B93E5",
"8. c #639DE5",
"9. c #659AE6",
"0. c #649DF5",
"q. c #5AA5FD",
"w. c #53A3FF",
"e. c #6DA3E7",
"r. c #76AAE7",
"t. c #7BB2E6",
"y. c #68A8F6",
"u. c #72ABF5",
"i. c #6BB3FF",
"p. c #73B4FE",
"a. c #7BB6FA",
"s. c #74BBFF",
"d. c #7AB5F8",
"f. c #7CC5FF",
"g. c #86AABB",
"h. c #81A6B8",
"j. c #85ACC6",
"k. c #8CB4CA",
"l. c #91B4C5",
"z. c #94B5CA",
"x. c #94B9CD",
"c. c #9BBACC",
"v. c #99B5CB",
"b. c #82AFD9",
"n. c #8BB8D7",
"m. c #92BBD3",
"M. c #9ABCD4",
"N. c #95BEDA",
"B. c #94B7D8",
"V. c #A2BECD",
"C. c #85AFEA",
"Z. c #83B5E5",
"A. c #89B6E1",
"S. c #8DBAE5",
"D. c #82B5ED",
"F. c #83B9EC",
"G. c #8BBCED",
"H. c #87BAE8",
"J. c #92BDE4",
"K. c #94BEEB",
"L. c #85BAF3",
"P. c #8BBCF3",
"I. c #84BDFC",
"U. c #8BBFFB",
"Y. c #82B6F5",
"T. c #92BEF2",
"R. c #8FC0DE",
"E. c #9CC1D5",
"W. c #95C3DB",
"Q. c #9BC3DC",
"!. c #97C3D5",
"~. c #99C1CD",
"^. c #A0C0CD",
"/. c #A1C5D5",
"(. c #A3C6DC",
"). c #A5CADD",
"_. c #A9CBDE",
"`. c #A6C7D9",
"'. c #8CC0EF",
"]. c #96C2E3",
"[. c #9DC4E4",
"{. c #9DC9E3",
"}. c #95C2EB",
"|. c #9AC3ED",
" X c #9CCAEC",
".X c #96CAEC",
"XX c #8EC2F5",
"oX c #84C3FE",
"OX c #8CC3FC",
"+X c #84CAFF",
"@X c #89CCFF",
"#X c #94C4F5",
"$X c #9BC6F4",
"%X c #96C9F4",
"&X c #9DCAF5",
"*X c #93C5FB",
"=X c #9AC7F9",
"-X c #95CAFC",
";X c #9CCBFB",
":X c #8DD1FF",
">X c #94D3FF",
",X c #9CD3FE",
"<X c #9ED8FB",
"1X c #A2C6E3",
"2X c #A5CAE2",
"3X c #ABCDE4",
"4X c #A2C7EE",
"5X c #A3CBEC",
"6X c #AACDE9",
"7X c #B4CDEC",
"8X c #ADD1E5",
"9X c #A4D2EC",
"0X c #ACD2EB",
"qX c #A7D1E7",
"wX c #B2D3E5",
"eX c #B3D4EB",
"rX c #B8D8EF",
"tX c #A1C6F4",
"yX c #A3CCF5",
"uX c #A9CFF5",
"iX c #A3CDFB",
"pX c #A9CFF9",
"aX c #A5D1F5",
"sX c #ABD3F5",
"dX c #A5D2FB",
"fX c #ABD4FB",
"gX c #A5DBFE",
"hX c #ADDBFD",
"jX c #ACD9F4",
"kX c #B1D5F4",
"lX c #B3DAF5",
"zX c #B2D5FB",
"xX c #B3DBFD",
"cX c #BADFFA",
"vX c #BFDFF6",
"bX c #ABE3FF",
"nX c #ACE9FF",
"mX c #B4E3FF",
"MX c #BBE3FD",
"NX c #BDE9FF",
"BX c #B3E8FF",
"VX c #C2E6FE",
/* pixels */
"Q Q Q Q P Q Q P F V t t V K K z k V V V r r k B C C S F S S S V V G T ! ! T T U R T Y R R R R R Y Y R R ^ R ^ ^ ^ ^ ( ( ( ( / X.",
"V V F F P J A k r 0 0 0 0 8 8 + 0 0 r l k r k B B B B r r r 0 r r h k h k C Z T U D C C C D D D D C C C C H T U G F Z z E U E ( ",
"H H S V S S B p r r w w r r k V k 0 r h k k C C Z C C C k h 0 0 0 0 h k l k h r l k k C D D R Y T H D C V A B t r r l l z Z Z E ",
"T H A B d p V S A V S S V V V k V B B V B k k Z Z Z T F T Z Z Z V k k k 0 0 r r 0 k k k k B k C H H S A S F F V V b V P I P L K ",
"T T D B p p p p B B S V B V Z Z V Z S F F Z C H C C Z Y Z H T Z T Z z k h h r k q l l l k z k V B B B B V a V V J l J l J b b K ",
"T T H F V V S S V S J J F P F Z V z B V H F B k k B B C C C C C Z U F G Z V V l Z F V V l k k k B V V V V V J K K J l b z J K W ",
"! T F F S J S J J J J J J V C k V Z G G G Z V C C k C C Z Z Z U H T F G Z k Z Z T F H C C V V F S Z Z F Z F Z P K V Z z Z G ! / ",
"T H F V V J J J J J J J V V Z U z G K F K P K F Z G G K G Z z Z K Z G K G G G T E T ! ! ! Q ! P F E F E Q ! E K K E E ( / / / / ",
"T S B B a V S J f a J J F J S Z V k k r k z Z z Z Z P K V z K E E K Z K z z z z Z E W E W ~ ~ ~ { ~ } $.| #.#.#.#.} } } $.#.$.$.",
"R T D B V a a a a a t V J V F H C z z z V F K Z l k V z z l z Z n z z N E U E E E ( ! P E ( ! K W W W { L K L L W W / } $.} / ( ",
"Y Y S Z V t a q t t V a l l k k C C H T T U T T G Z C k r k h r 0 # 0 0 r k z F G T P G Y C C k r 8 8 9 + + 8 + 8 0 r l z K ! ! ",
"Y Y Z V a e e t t t l l l t 0 k h C C D C C C C H C D C Z C Z F Z Z Z k t V r t l k B k C B k k r 8 e l V V J V l l r 0 0 0 k l ",
"U C r q u u u e t e 9 9 + X 8 8 t k k h r h k B C C V Z V V z V V z t r a V V V a r r p r B B l l l J J V V b l t l t t r r l t ",
"H C r 0 8 g X g X X X X o o @ 9 t t r r r 0 r h k r k k k r r r r w r r a a V r r r p h p r k r r 0 0 0 0 8 8 8 r t V t t r t l ",
"T H V r e e e e 8 8 9 9 q 9 e t a V a V B V B B B k B B B p p p B B V V V A H S B B Z S F Z z B k k r h k l l t t t b a a b J J ",
"T D B r t l J l q q q y y y $ y q b b z J z l n z b l l l j j j 9 q q h j j l n K n n n n n n n n n Z Z V F V V V S l a J V l t ",
"T C Z B l V J l j m = = - = 3 ' M v v v v = 2 ` O.4 2 2 ..2 < = 2 2 3 @.@.+.+.O.O.O.o.2 ; ` @.` v M ) E K ! F T F P F V z z V V ",
"H C Z z n m - 2 &.q.f.f.+X@X@X+Xs.6.6.i.oX@X:X:X:X>X:X@X@X@X@X@X+X:X:X>X>X>X:X>X:X:X@X+Xf.@X+Xf.s.i.w.5.$.N N Z P P P P J V F P ",
"C V z n - O.i.>X,X<X,X-X-X>X-X-X>X>X-X>X-X-X-X-X-X-XOX-X*XOXOXOXOX+XOX@X+XoXI.a.s.p.p.i.s.p.p.a.s.I.oX@X>Xy.`  .L P J V I P K W ",
"n n m _ q.>XgXhXyXyXyXtX%X'.F.t.Z.%X;XdXgXiX,XdX;X=X#X#X#XL.L.L.U.I.I.Y.Y.L.Y.Y.d.a.d.d.d.d.d.oXoXOXOX;X,XfXoX4.%.} { | ~ ~ { } ",
"_ - =.>XbXhXhXyXT.tXpXiX&XyX&X$XtX$X=XiXiXyXiXiXiX;X#XG.G.XX#X*X#X#X#XXXU.T.L.Y.U.U.OXU.I.L.OXOX*XXXXXOX#X;XgXa.2 b V B A H H ~ ",
"y.*.<XbXmXhXfXiXtXtXtXtXpXaXyX|.$XK.K.T.T.#X$X$X$X$X$X=X;X;X-X=X#X#X}.G.G.K.T.*X*X#X*X*X#X*X=X#X%X-X;XOXOXOXgXbXp.= t A A A H T ",
"'.<XBXBXmXsXuXfXfXfXfXfXsXsXsXfXpX4XK.|.tX$X#XK.$XT.#X#X=X#X;X;XaX;XtX X$X=X;X;X=X*X*X#X-X-X=X#X#XiX=X*XoXt.;XhXbXy.- B H H Q ! ",
"~.BXmXmXsX|.[.4X4X4X5XsXaXsXkXzXsXzXzXfXpXfXpXiXtX$X$X&X=XiXiXiXdXfXaX&XiXfXiX;X;X;X;X=X;X;X,X=XiX;XiX-XU.F.;XgXbX,X_ F D T Z T ",
").NXNXmXaXsXuXkXzXkXkXuXuX6X4X4XsXsXpXpXdXdXiXiX;X=XyXiXiXdXfXfXyXaXaXiXiX;X&X;X$X;X;X;X;X;X=X-X#X*X;X;X-X*X-X,XgXbXq.) ( R R R ",
"{.BXmXcXsXsXzXzXzXxXzXzXzXzXzXcXxXxXhXfXfXiXiX;X;X=XiXfXfXfXpXiXpXiXiXiXiX&X&XyXiX,XiX=X%X#X#XXXG.XX*X%X;X*XL.t.*XgXf.- ) Y Y Y ",
"!.BXMXlXuX4X5X9XsXkXzXzXzXzXzXkXxXxXxXhXfXdXyXyXiXiXfXfXzXsXzXzXfXfXfXdXiXiXyX&XyXyXyX$X;X=X=X#X#X;X,X=X=X=X-XOXL.<X<Xo.h D D D ",
"x.lXNXxXaXaXhXhXjXjXkXzXuXzXsXsXzXsXxXsXaX&X=X$XiXyXiXpXuXuXuXuXuXpXpXfXdXaXdXpXtX$X$X;XiXdX;X=X-X;X-X;X&X;X;X*X-Xt.nXf.M C A D ",
"l.!.MXmX.X XdXaXfXaXaX9XaXaXpXpXpXfXfXaX&X=X$X#X;XiXdXaXjXjXkXkXsXfXfXaXiXiXiX&XyXiXfXdXdX;X=X;X%X-X#X=X-X-X,X;X;X'.;XbX4.N U T ",
"x.x.MXmX<X.X%X&XiXyXaXaXaX5X&X&X|.|.|.$X=X,X=X#X#X=XfXfXsXsX6XuXuXpXiXiXaXiXiXpXiXiXyXiXyX;X#X#X#X#X*X;X;X=X;XdX&X$XyXmX>X4 n T ",
"~.~.MXBXxX;X=X;X;XyX&X X X5X&X&X;X&X&X&XdX,X*XU.L.*X;XiXaXdXpXiXtXtXyXiXdXdXiX;XiXyXiXiXiX;X&X;X=X-X=X&X;XyX;XiX;XdXaXBXnXy.M Z ",
"`.).MXMXhX&X#X#X=X&XaXaXdXfXfXdXiXyXiXiX;XXXL.D.L.P.T.=XiXdXpXpXaXaXaX;X=X=X=X=X$X#X$X$X&X=X=X=X*X=X;X;X;XyX$XyXdXdXdXgXBXgXo.U ",
"^.E.MXmXmX;XXXXXOX#X$XyXyXyXyXyX5XtXdXdX&X#X#XU.T.U.T.T.iXfXpXuXpX&XtX$X#XT.*X=X#X$X=X&X&XdXiX$X#X#X;X;X;XaXdXpXpXdX;XXXBXnX&.) ",
"c.z.lXMXhXdX-XP.L.P.#X$XpXpXyXyXaXyXpXyX$XT.#X*XT.T.T.T.T.|.tXuXuXyXyXiXpX;X=X=X=X&XyXyXaXaXyX$XyXpXiXiXdXaXaXfXaX,X;X-XxXbX5.N ",
"V.c.x.MXmXhX&X%XXXXXU.;XiXpXpXzXxXfXfXfXiXiX=X;X;XiX=XtXpXpXfXzXxXzXuXtXtXT.K.$X$XyXyXpXpXfXpXyXfXsXfXpXaXaXyXiX;X,XOX'.jXBXq.M ",
"^.^.x.x.jXmXbX,X%X#X#X*X;XiXfXfXpXaXyXtX;X$X$X=XyX;XiXiXpXpXfXfXuXkXuXpXpXtXpXpXfXfXsXxXzXzXxXcXxXxXpXtXyXaXaX,X,X,X-X'.mXnXq.x ",
"k.!.Q.m.n.9XmXNXbXhX9X.X%X;X,X&XdXgX;X=X#XG.H.G.*X$X$XpXpXyXiXyXpXuXyXpXpXtXtXtXtX&X4X X|.[.|.4XpX&XyXsXfXhXfXfXdX,XOXXXBXbX5.c ",
":.,.{.2XN.k.{.hXmXNXmXhXaX#X}..X=X%X=X-X-X-X%X#X*X=X X|. X&X$X$XtX4X$XtXtXtX=XiX$X&XyXyXpXyX&X&X$X].}.tXyXuXtX$XA.Z.t.hXmXgX@.n ",
", ;.H.1X6X3XB.W.W.9XxXMXMXMXmXBXhXaXdX<X,X;X,XdXfXaXsXaX5X4XyXyX X|.$X#XT.K.K.J.}.}.|.$X&X&X$X&XpXyX&X;X=X=X#XK.S.}.bXBXBX'.+.- ",
"> 0.r.[.6X6X0X9X6XQ.B.B.M.Q.6X0XjXlXmXmXfXaXdXfXhXfXjXjXsXkXkXuXsXdXaXfXfXhXfXfXfXhXdXaXyX&X X&X&X&X&X$X$X%XyXhXMXmXmXjXW.Z.7.- ",
"& 2.e.].1X2X2X0XwXwX7X7X7X3X_.!.x.l.k.1XkXlXaXsXhXhXlXlXrXlXlXkXhXsXhXxXxXxXxXxXxXxXsXsXaXaXaX&XaXaXaXaXgXmXMXMXMXeX[.Q.E..X;.o.",
"y 3 u.t.|.4X0X0XeXeX7X7X7X3X_.E.l.h.g.g.l._.lXjXcXlXcXMXVXVXvXlXkX0X6XsXkXkXcXxXcXzXkXhXzXcXMXMXxXmXhXaX4X9X0XeX3XN.M.m.E. X-.-.",
"q $ 3 u.D.K.uX5X6X7XjX0X5X6XQ.m.k.j.h.g.g.g.z.eXMXVXNXNXMXVXVXVXVXMXVXMXMXVXcXMXMXcXcXcXMXVXMXMXjX2X2XaXsX6X2X(._.8X6X1XM.}.:.-.",
"K n - < 7.e.r.C.L.L.F.F.F.t.t.Z.Z.1.j.h.l.l./.`.eXeX0XqX6X8XrXVXVXVXVXVXVXVXVXVXVXVXVXVXVXVXlXeX0X0X6X6X6X6X3X3X3X_.1XB.[..X;.-.",
"R T G Z n ..` ' @.2.+.6 3 3 3 6 7 9.1.j.v.v.v.`.`.3XwXwXwX_.3X3X3X3X6X6X8X0XeXsX6X6X6X6X8XeXwXwX6X7X8X8X8X8X3X_.(.E.m.!.R.'.;.-.",
"D D Z Z J S u y $ O % % @ + g 9 & . ;.,.j.v.v.V.`.)._.wXwXeXwXeXeX6X2X).).2X1XQ.1X1X(.Q.).qX8X8XeX3X3X3X_././.2X).2XW.R.].t.3.O.",
"T F B F l t e 8 + + + X 8 e e w e +   3.t.j.z./.(.Q.Q.)._._._.(.(.M.M.M.E.(.).).).).2X6X8X3X3X_.).).`./.2X8X8X3X3X6XW.'.L.y.2 N ",
"Z k k l V t J S V k V J a a p d p r t - *.F.n.[.[.Q.M.E.Q.(._._.3X3X3X_.2X2X2X3X8X2X).2X_._._.qXqX8X8X8X2X6X1X[.J.S.F.u.=.- n F ",
"0 0 8 8 0 r r B V V B B B p A A C B S a c ` 8.L.S.W.m.M.N.B.Q.[.1X2X3X3X2X_._.3X3X3X8X8X3X3X_.6XwX3X_.Q.M.n.b.D.Y.0.2.- c K H T ",
"V Z Z k k B B r B r p p B B B p p B p w w @   > -.D.H.>.>.,.<.n.J.N.J.[.[.[.1X1X2X2X6X4X X X}.J.S.S.A.A.Z.r.8.*.1 - y V F H H D ",
"H D B B B p p p r p V B p p B A p r r p r 8 e + % . 5 y.u.e.r.e.9.r.r.t.,.,.b.A.J.S.S.D.t.u.y.y.0.2.5 3 <   $ c u z l z k B S H ",
"A B C B B B V B B B B f B A B B B p p r w w i p d J $   1 4 1 1 7 5 =.3.3.3.8.8.9.3.*.5 > . .   * O $ 9 e a a i p a V r Z Z F C ",
"D D D D H D A D D A A A d i p d d d p p C C B A H F G n x x z z c c j $ O # O O % O O $ # # # # q 9 t a a w w w w 8 8 r r r w i ",
"D H H H D D D H H H H H A B A A S s d A A D T D S H H T T U T T S F S S C B B A S S A S V V B k B h r p a i w e w r w p p p d A ",
"F F P P F V V B V V S V S H S S F S S A A C A A A C B Z C C V S H D D H H D C C B Z S F T H H Z C V k r r p V p a V V p r B C B ",
"V V V p V J V K J P Q P Q ^ Q F F P F A D C B C B V k k h 0 r 8 r r k B k B B V B k k V k Z C Z z k l z V t V V S V V Z F G F S ",
"J V l V l V V J S J K P P K Q ~ ~ ~ ^ E ! ^ ! ! ~ } W b b c t j t r e t V t r V t b V z n K x n y c y q q q b J F l V Z Z K P Q ",
"F F V B r r t p r l p V V S V P F V K n E E E ! ~ | { ] ] {  .L W { | | { ~ { { [  .| | #.#.} L |  . . . .| | #.{ / } } / W / { ",
"P H Q H S B A B B p p p d p i w p r r 9 r 9 e u l b t u J b b b L ] ] ] ] ] I ] ] ] ]  .{  .W n ] I I b L ] [ [ I J J J K K W / ",
"H H H T H H H A A A S p d i i r w 8 8 8 g 8 9 8 + 9 e r a w e 9 9 @ + @ X @ X o o @ X X + + # q q 9 9 q e e e 9 e e e e 8 0 h j ",
"Q T H H S H S S S S f B a f V S p B p p k r t t 0 0 l k r a t t q q q q q t e e e e e u e e t e t e e e e u e e u t t a r k z Z ",
"T H H D S S a p t p w w p p p p S S H S S S V F F z k k B h r r r t t a a t a S a a a f a a a a a t e e 8 8 8 g e 8 t t V V z Z ",
"S S S H S S S S p f f f d d f i d s s d S H H H H T H H H H Z B B a f p f a i w i i f P P P H H S S F F S t a t t r w a l V V V ",
"S P P P S P S P H H H S S A d A s s s s s d C A A A H H H Z Z H H d p s f s f s i i i d A A D D D H H S P J J J J J J J V J V P "
};
