/* XPM */
static char *ocean1661777290[] = {
/* columns rows colors chars-per-pixel */
"64 64 68 1 ",
"  c #044CD4",
". c #014CDC",
"X c #0A4FDA",
"o c #0253DC",
"O c #0A52DC",
"+ c #0C59DD",
"@ c #024EE2",
"# c #014DE9",
"$ c #0154E4",
"% c #0B55E4",
"& c #025AE6",
"* c #0B5AE6",
"= c #0255EB",
"- c #0B57E9",
"; c #035CEC",
": c #0A5DEC",
"> c #115CED",
", c #0157F3",
"< c #0857F0",
"1 c #045CF3",
"2 c #0A5DF3",
"3 c #0257F8",
"4 c #025DFA",
"5 c #095DF9",
"6 c #125FF1",
"7 c #0460E6",
"8 c #0462ED",
"9 c #0A62EE",
"0 c #0D69EF",
"q c #1163EC",
"w c #1468EF",
"e c #1B69EF",
"r c #0463F4",
"t c #0B64F4",
"y c #0569F5",
"u c #0B6AF5",
"i c #0464FB",
"p c #0B65FB",
"a c #056BFC",
"s c #0B6BFC",
"d c #1165F5",
"f c #126BF5",
"g c #196AF4",
"h c #1166FA",
"j c #126CFC",
"k c #1B6DFB",
"l c #0F70F6",
"z c #0572FF",
"x c #0B72FE",
"c c #0C7AFF",
"v c #1471F6",
"b c #1C70F7",
"n c #1373FD",
"m c #1B74FD",
"M c #1379FF",
"N c #1B7AFF",
"B c #256FFB",
"V c #2375FE",
"C c #2A73FD",
"Z c #257AFF",
"A c #2A7DFF",
"S c #327DFF",
"D c #1F81FF",
"F c #2481FF",
"G c #2C83FF",
"H c #2D88FF",
"J c #3384FF",
"K c #3189FF",
/* pixels */
"jjnmmkkhhdt929t9*9tt9;rtruypyryyuulllllxxlzaccccaxxxMnnmnmmmmNNm",
"ypsppt===$=$$$$$&&*;;;9rrr8;$&$&8&&&8yyluuyyyyyrarryyauufpu090wv",
"sarrttt2;;;;89997887888yussuy877&8;998:=21rruxxxxaayyrrr8;88900l",
"Mxr;11rtuyyuuy9ru9ttuuuuusllxlyuu99;=;::;:r28rrrsaiassuu8ufvvmvv",
"xspr;11;::rtuuhsuuphhssryysssfsj09uu987**t9989rtrrr2r:t*t9*97009",
"jnjspt2dttuhsuddttuppptr1rrttptuuvvlu09uuuut9889utptuufjgfuu0fvv",
"njjpdhdhpdutdtttuyuasuyyryuysulyullyuyuusvjslsysfppuuuutt000ulvv",
"sspphhhhhuddpuhuuulllllslxluuuyulyyullslxvnxnMnMffjbkmmknmvNNDDD",
"xsrr2ttt29ttuuut897&80t00ufu0ufvMvvvv00wvbmvbNNmVVAFAAGKGZZFHHGF",
"Msayrr21r2ttruud0uuuufuu9t999900070uvufvvvbvvvffbmbbgwgfgbvZZVNv",
"syrrr:2:;:t:2998tuuunnnnsuur78&&7&o&&88ruuusuu88&oo oooooo7700vv",
"Mxutt::-*:d:*:**8uuyryuyyysysljjssuututtr8rtrrr98&90dddq997&oo&7",
"tr8&-*:><-%$@.$$988;&&;8tuuuut9t9q:=-:t:9&=;;&9t989ddt99::*:7999",
"st;&$@@.. . .$%-*&*8&;;9;82:;=;;$=-:2d2::;;::9:r:;&oo$$$*:tq9**&",
"ly8&;--%--*----%2rptrt5111rr4trtpuprppjsipssasartt99999:::292tpf",
"xy889tt:::9*99:9:tppsssssspirp4,1,,rrripsxsaaxxxssyrtuutstttdut9",
"sar8ttr0uslsvxnnMsslxnMnMnnnnnnxnnNnnnsunsyiassassxxxnMlnsjsuuuy",
"sysuulvuvnMMMMxvnvsjnyirprysssjMnMNNNmNZmZmmNnjpsapssuuufsututuu",
"yyyutdudt9ufuffsu999&9tttrr:2:ttyiiirrppskVZZZVmdujZZVmVkkfggfbm",
"llsfddt:9*::::2:::99tdtt:t;:;;-2tir1pp52hpd222hhddfmVZAGJJAVVVZZ",
"lluuffu0t989:::***:99::==;-:2:-=&;*;2:2222<<===<2tt&:::rhp5p4pjj",
"luur0u099:9&::--=$$.o$$$=;th5tt2;&$$$$$====<1rphppsptrr:1t1rppss",
"ayy99*----**:--#=;===11,,,3r5piiptt22rriryssxlxsspprrtrtrpiisxnM",
"yy88&$$$$$-2tppt2pp5iipiiii44isspssasisasaaszaassssxMsssassaasas",
"8878r8yyy8yrrytrrpsssiiiiiiaiaaaiaiiiipsipi4iippaaaaaxxasszcMccc",
"czzzxxxlzzayaaaspiiiiii4iiiiiiii444444444i443344iiiiaiiiaiaaaazz",
"zzlzsyssslaaazaxssrrii1,44iiiiiiiiiiaii44443344444iiiiiiiiziayyz",
"zzayrtusyyaaaazsjssppiiiisssaiirsisssjssiiiiiippsiiiiiiszxxxaayy",
"xxaayyyyaayayyaratystrpppiiririi5255iptprrrrrpppi4riirpppsssaslx",
"zzxzaaaazyayyrytrrriiiirppsiiiii31345pr1irrpppppp411,;;,411rrssv",
"aaaasyputrrtruppaasssssassnspaiiiaaaaasiaiiiipijnxspir1irriiaaay",
"arrrrr:19rutyppuysayrr41,1i44iissasaaiisii1333444iissxassaaxsxxx",
"iiripspp3<111251;8rtt21<2251,33,443311414priipaiiiipaazxzzzzzxcz",
"ziiiiipir2414t51rr2222-51<5555354,,15phpphpspssspspsssszxzczzcxc",
"aayyrirrpaurprr81rttp6p65652,555121211<=;;2:t1ppjsjssasxxxxxcxxz",
"ryry88888rryurrr;111122r21,===,22252=$$@$$$;$$$$==;;;ruusayryaax",
"ryr8;8rrrr8rryyyyiar;r8r;8r1r111;;r22:t9$$$$=-$&;$&&$&&8988rr8rr",
"ssyitpiuruyrttryaaxxzaalaaaayurtr9;89tuufd9:::**&&&&oo$$$$;rrusy",
"hpjhfpptttuuuut9yysxallxxllyrrrtpr1;rrtrysttttt2*&*&8q9t*;;&88yu",
"t22;====-;::&9tuuuyr88ryyzluttt2111rrrairusssjstuutt9d:-&=&98uuu",
"6:*-*&::-&*&o7978uuy88y0lyalljjpjnjnssxxxxjxlxjsjjjhdhkhd**ufsuu",
"gkmVAAAZbkmVVmbflu0lvMMcMMMMnMmmjjjjjxnMxxxszllssjjhshhhtuttt88y",
";9ujmmmmmVHKGFGFNMvnMMMMxxxxsayysduuuuuyyyyyzaxxssppppptphjuyryl",
"sptttt9t9tfjffffluuuflullzaaaar,$$$$;;;8ryyullayiiiir5141psssxxl",
"njsssjpjjpt1;2r;22r2t2tp;;18iasat898rrryryalazyasapiiriripsassss",
"ssspppp1;;;===;;,==#$==;iraaaiaasaaasyaaryaazzzzsssssapsssspiyss",
"jsut9;=$$@.$&===,,,,<5411raaiaiayazzxzaaiazzzzazxsssssssssaipiss",
"utr9rt9t:tttr::;144i5iipiriiizzazazaiiiiazzzzaaaiiisssissiapaaia",
"$$$$;;ttptrtrt11iiiipppr1riiasaaaaaaaaazzxzzaazassiippr4rriaassx",
"hu22:;;:22114riirr3113=,,=====,rrrryayayrraaaaaaapppppphpptpysaz",
"sayrr8811r1r414r;,111<,<<######$===,:1:=;;,:21;1;;;,;<5256pptpys",
"yyryrrrrrrrrrt4p551,==#=<221<<====;:======$$$$=;,;1:=1112p52pppp",
"ayaaayiuirrr1,;r,;==14prhpsasaya1522;;;1;==&=;;=1;812;;=====;;,;",
"aassyasyjssair1ririisssaxsxzxzcxsspp2r1ryrryrrr8r;;=;;=$==,;,;;r",
"sjjjpttttttppsaiaayriyyyyyyyayazaasaaaaaaaaazsxuyy9tr:221:;:rrrr",
"pt2hhttdhsjjnnjsyayyyr888;888&7&1riiiyiyrryyyyyyy9u99ttdhuuuuusy",
"d22tddu9dffnmnNmmNnnmNnffVk0**%$&=&=;:;=&r99r9u0&&*;&-:>t*tuuuul",
"ddt:=;:tt9r:tthjjnmkmkmVAAVBVVVBkVAZmkmZbVAAJHZbAVBBBVASVmmmNnnn",
"sssur:9r:29r2;1;:::-;*99wwqqegggVACCBBBCCCCSJSVeVCBBBCSSVBkVmNZF",
"xlxxxstt;rr22==#=$@..$$o&**&*%$%O OOOOX XX   O++%%%%%%%%%.$$o$78",
"xxassxsrtptprppp11<1;:;$o%*9>:>>**->*%%%%%%%*o%->->%-*>>66>>9*99",
"xxaarp2r1;,,31555pphhptutt99:2-=**::>q6666:::99:9:*%-$@@--::9dwd",
"pjjsi52514555444345ppjjnnssyssprpr2121,=,15pjjpstttt2::;$$-&9t9u",
"hhhhhhjjjp5pi544433,,iiiaassaxair141434,,,,5iipsxusuduhdhd99tfuf"
};
