/* XPM */
static char *be380dbe9e2240028da7b5f280031560JCVEs82PY8faaofG[] = {
/* columns rows colors chars-per-pixel */
"64 68 180 2 ",
"   c #020101",
".  c #0A0302",
"X  c #050906",
"o  c #0F0900",
"O  c #050209",
"+  c #090409",
"@  c #0A0A09",
"#  c #130B00",
"$  c #111015",
"%  c #181413",
"&  c #322800",
"*  c #272729",
"=  c #2E2D2D",
"-  c #302E2F",
";  c #34332E",
":  c #3E3935",
">  c #3E3E3E",
",  c #353334",
"<  c #554A00",
"1  c #736D1F",
"2  c #7F2A41",
"3  c #444444",
"4  c #5D5D5D",
"5  c #656565",
"6  c #96032F",
"7  c #930C37",
"8  c #9E0B33",
"9  c #9A1937",
"0  c #941038",
"q  c #9E113C",
"w  c #901D3E",
"e  c #A30433",
"r  c #AA0031",
"t  c #AC083B",
"y  c #802A37",
"u  c #83263C",
"i  c #80293A",
"p  c #8B2A3D",
"a  c #9D1642",
"s  c #9D1F44",
"d  c #B70D43",
"f  c #A01743",
"g  c #AD1C44",
"h  c #A01D49",
"j  c #A61843",
"k  c #B91246",
"l  c #B0194C",
"z  c #8C2545",
"x  c #952144",
"c  c #EAD63F",
"v  c #8D8673",
"b  c #E2CF45",
"n  c #E7D545",
"m  c #Einit_map->fd645",
"M  c #E9D842",
"N  c #E6D44A",
"B  c #EAD74D",
"V  c #E7CE50",
"C  c #E6D350",
"Z  c #E4D35B",
"A  c #EDD85B",
"S  c #EAD152",
"D  c #F9E359",
"F  c #DDD264",
"G  c #DBD16B",
"H  c #DACF75",
"J  c #DED570",
"K  c #DCD278",
"L  c #E6CE64",
"P  c #E2D167",
"I  c #E7D861",
"U  c #E3D16E",
"Y  c #E0CB7A",
"T  c #FFEB65",
"R  c #868789",
"E  c #8D8988",
"W  c #949495",
"Q  c gray60",
"!  c #A1A09E",
"~  c #AAAAA9",
"^  c #B2B0B1",
"/  c #B8B7B5",
"(  c #CFCB84",
")  c #DACE82",
"_  c #DCCB8B",
"`  c #DED087",
"'  c #DAD289",
"]  c #D7CC96",
"[  c #DECF98",
"{  c #DDCA92",
"}  c #DBD194",
"|  c #E1CE81",
" . c #E1CC89",
".. c #E3D280",
"X. c #DBCEA2",
"o. c #FEF2A6",
"O. c #FFFFAC",
"+. c #FFFEB0",
"@. c #FFF7BE",
"#. c #FFFFBE",
"$. c #CCCCCF",
"%. c #FFinit_map->fdC2",
"&. c #FCF7CF",
"*. c #FFFECB",
"=. c #EFE5DC",
"-. c #FFF6D2",
";. c #FFinit_map->fdD4",
":. c #FEF5DD",
">. c #FFFCDC",
",. c #Finit_map->fdDEE",
"<. c #Finit_map->fd5F4",
"1. c #Finit_map->fdAF4",
"2. c #E5E5E5",
"3. c #E7E8E3",
"4. c #E9E7E8",
"5. c #EBEBEC",
"6. c #F5EEE6",
"7. c #FFECE6",
"8. c #FFE6ED",
"9. c #F2EFEE",
"0. c #FEECED",
"q. c #F4F1E0",
"w. c #FCF4E4",
"e. c #FFinit_map->fdE4",
"r. c #F6F4ED",
"t. c #FCF5EC",
"y. c #FFinit_map->fdEC",
"u. c #FFE5F3",
"i. c #FFEBF5",
"p. c #FFE4F8",
"a. c #FEEBFA",
"s. c #F3EDF1",
"d. c #F6F4F4",
"f. c #FBF5F5",
"g. c #F6FBF6",
"h. c #FCF9F6",
"j. c #F6F5FA",
"k. c #F9F7FA",
"l. c #FAF5F9",
"z. c #init_map->fdF7FB",
"x. c #F9F7init_map->fd",
"c. c #FCF6FB",
"v. c #F7FAFB",
"b. c #F9F9F9",
"n. c #FBFBF9",
"m. c #FBF9FB",
"M. c #FBFBFB",
"N. c #F9F9FA",
"B. c #FEFAFB",
"V. c #init_map->fdF9FA",
"C. c #FAFCFA",
"Z. c #FEinit_map->fdF9",
"A. c #FCFCFA",
"S. c #FFFFFB",
"D. c #FFFFFA",
"F. c #init_map->fdinit_map->fdFA",
"G. c #FAFAinit_map->fd",
"H. c #init_map->fdFBFC",
"J. c #init_map->fdFBFF",
"K. c #init_map->fdFBFF",
"L. c #FEFAFE",
"P. c #FAFEinit_map->fd",
"I. c #init_map->fdinit_map->fdinit_map->fd",
"U. c gray99",
"Y. c #FFFCFC",
"T. c #FEFFinit_map->fd",
"R. c #FFFFinit_map->fd",
"E. c #FFFEinit_map->fd",
"W. c #init_map->fdFCFF",
"Q. c #init_map->fdinit_map->fdFF",
"!. c #FCinit_map->fdFF",
"~. c #FEFCFF",
"^. c #FFinit_map->fdFF",
"/. c #FEinit_map->fdFF",
"(. c #FEFEFF",
"). c #FFFEFF",
"_. c white",
"`. c #FEFFFF",
"'. c #init_map->fdFFFE",
"]. c #FEFEFE",
/* pixels */
"_._._._._._._._._._._._._._._._._.n._.b._.L._.M._._.g.C.g._.U.v.U._._.U._._._.M._.M._._._.Z._.Z._._._._._._._._._._._._._._._._.",
"_._._._._._._._._._._._._._._._.D._._.L._._._._._.n._.C.U.U.U.U._.b._._.M._.l._.L._.L.L._.L.D._._._._._._._._._._._._._._._._._.",
"_._._._._._._._._._._._._._._._.n.D._.C.L._.n._._.D.C.Q   O   O   O X = _.C._._._.b._._.L._._.L._._._._._._._._._._._._._._._._.",
"_._._._._._._._._._._._._._._._.Z.n.D._._.d._.D.!       .   O                 n.L._._.l._._.L._._._._._._._._._._._._._._._._._.",
"_._._._._._._._._._._._._._._._.U.U._.g.D.Z.n.        .   + . O           X     n._._._.U.M._._._._._._._._._._._._._._._._._._.",
"_._._._._._._._._._._._._._._._.U._._.U.n.D.  X   .   . . . .                     D._._._._._._._._._._._._._._._._._._._._._._.",
"_._._._._._._._._._._._._._._._.L._.M.M._.            l.f.L..     d.U.n.            D._._.M.M._._._._._._._._._._._._._._._._._.",
"_._._._._._._._._._._._._._._._.L._._._.n.        Z.d.Z.Z.f.l.  d.L.d._.d.b.          _._._._._._._._._._._._._._._._._._._._._.",
"_._._._._._._._._._._._._._._._._.c._.L.        b.j._.b.n._.r.Z.d.z.L.d.L.x.x.        C._.n._.U._._._._._._._._._._._._._._._._.",
"_._._._._._._._._._._._._._._._.L._.n._.      @ b._.j.j.b.d.n.f._.f.l.L.x.x.j.M.      g.n.D.L._._._._._._._._._._._._._._._._._.",
"_._._._._._._._._._._._._._._._.D.L.n.;       d.j.j.b.L.d.l.Z.r.t.Z.f.L.j.j.L.j.        _._.n._._._._._._._._._._._._._._._._._.",
"_._._._._._._._._._._._._._._._.Z.D.D.        g.v.U.O   _.r.y.h.y.7.f.. . L.c.M.5.      D._._._._._._._._._._._._._._._._._._._.",
"_._._._._._._._._._._._._._._._._.D.D.      Z.Z.c.s..   6.y.:.e.w.e.y.  . d.L.d.U.    X _.n._.L._._._._._._._._._._._._._._._._.",
"_._._._._._._._._._._._._._._._.M._._.      d.f.M.Z.Z.=.y.:.;.-.>.>.w.y.6.Z.l.L.n.      _.n._._._._._._._._._._._._._._._._._._.",
"_._._._._._._._._._._._._._._._._.j._.      d.Z.f.Z.t.w.:.&.;.*.*.-.>.:.Z.f.f.d.M.      Z._.M._._._._._._._._._._._._._._._._._.",
"_._._._._._._._._._._._._._._._._._._.O     L.d.f.f.Z.w.e.[ _ _ ] X.>.e.q.D.d._.b.      _._.L.L._._._._._._._._._._._._._._._._.",
"_._._._._._._._._._._._._._._._.L._._.      U.b.b.Z.c.f.:.&.| Y { -.-.e.t.n.v.j.U.    X M._.c._._._._._._._._._._._._._._._._._.",
"_._._._._._._._._._._._._._._._._.l.Z.@     b.b.b.d.l.c.w.;.+.Y [ -.e.e.t.d.M.M.v.      b._._.L._._._._._._._._._._._._._._._._.",
"_._._._._._._._._._._._._._._._._._._._.    / C.n.n.L.z.w.>.#.( *.>.e.q.Z.Z.a.L.j.  + @ L.L._._._._._._._._._._._._._._._._._._.",
"_._._._._._._._._._._._._._._.U.v.U.n.D.  X   b.f.d.L.i.Z.:.*.*.>.:.q.y.f.l.c.L.j.    _.L.Z.L.l._._._._._._._._._._._._._._._._.",
"_._._._._._._._._._._._._._._._.U.U._.D.    X d.n.C.n.f.8.t.:.>.e.t.h.f.z.L.L.a.      Z.D._._._._._._._._._._._._._._._._._._._.",
"_._._._._._._._._._._._._._._._.v.U.Z.D.3.    Z.n.d.z.c.p.8.t.7.0.8.u.8.L.j.c.c..   . Z._.C.d._._._._._._._._._._._._._._._._._.",
"_._._._._._._._._._._._._._._.U.U.v._.Z.D.  . a.z.z.u.u.z w 1.1.<.s s z p.L.c.L..   9._.U.C._.l._._._._._._._._._._._._._._._._.",
"_._._._._._._._._._._._._._._._.v.U.Z.D.n.  . L.a.c.u.i s e 7 f 8 t d h p.L.i.f.    D.D.v.C._._._._._._._._._._._._._._._._._._.",
"_._._._._._._._.n._._.n._.M._._._._.D.D.U.  O a.c.p.a.u g e j l k r k f p.a.f.Z.    D.g.U.v._.L._.M._._._._.U._._._._._._._._._.",
"_._._._._._._._._._._._.n._.n._.U._.L.Z.  O + a.L.a.u.i 9 8 7 a q 6 j s i.Z.f.f.      _.U._.L._._._.U._.b._.U.U._._._._._._._._.",
"_._._._._._._._._._._.n.U._._._.D.n.f..   O   L.L.L.i.i.y p 1.1.1.2 2 ,.0.r.f.Z.X X     _._._.L._._.n._._.n._.U._._._._._._._._.",
"_._._._._._._._.n._.M._._._.b._.n._.  +     O c.j.L.f.t.8.8.u.i.a.i.a.f.t.f.Z.f.g.        L.L.L.M._._.n._._.b._._._._._._._._._.",
"_._._._._._._._._.M._._.b._.n.M._.  O O     L.f.L.a.f.7.f.7.c.i.f.i.i.f.Z.f.f.f.d.    O     _.C._.n.b._.n._._._._._._._._._._._.",
"_._._._._._._._._._._._._.b._._.    O       Z.Z.l.l._.f.t.f.a.L.f.Z.f.z.s.z.z.f.z.    . .     _.L._._.b._.n._._._._._._._._._._.",
"_._._._._._._._._._._.d.n._._.    O O O . : t.r.Z.n.d.D.f.n.n.c.c.c.z.f.Z.l.l.z._.s.O     X     _.n._.n._._._.n._._._._._._._._.",
"_._._._._._._._.M._._._.n._.        O     Z.h.y.d.l.M.d.g.g.b.v.L.c.L.l.z.L.n.n.d.L.              _.U._.n._.L._._._._._._._._._.",
"_._._._._._._._._._._._._.$.              Z.Z.f.d.Z.n.Z.n.n.n.d.z.z.z.Z.f.f.n.l.d.Z.              X C._.n._._.U._._._._._._._._.",
"_._._._._._._._.d._.n._.C.              = L.9.f.Z.f.f.f.d.f.n.n.f.f.f.Z.f.Z.d.Z.f.Z.z..             5 n._.U.n._._._._._._._._._.",
"_._._._._._._._._.n._._.            O   l.d.d.D.f.z.Z.d.Z.f.d.Z.Z.n.f.f.f.f.z.Z._.f.s.      O         5._.b._.n._._._._._._._._.",
"_._._._._._._._.U.n._.    O         O . _.L.f.f.f.Z.z.f.Z.f.Z.d.f.z.Z.d.Z.Z.f.f.d.z.Z.,             O   _._.U._._._._._._._._._.",
"_._._._._._._._._.U.        O     O   C.9.b.l.Z.f.Z.f.z.Z.f.l.n.d.Z.f.Z.d.f.Z.f.Z.f.d._.                  n._._._._._._._._._._.",
"_._._._._._._._.U.4   O               d._.d.Z.l.Z.d.Z.f.f.Z.n.n.Z.f.z.f.Z.z.Z.f.d.l.l.d.O         O         _.b._._._._._._._._.",
"_._._._._._._._._.              O   O d.L.Z.l.Z.f.f.f.Z.f.f.d.n.f.z.Z.f.f.Z.d.z.Z.Z.l.Z.                    _._._._._._._._._._.",
"_._._._._._._._.C.                    d.d.l.Z.d.Z.Z.z.d.Z.d.Z.Z.f.Z.d.Z.z.f.f.Z.Z.d.L.g.C.                    _._._._._._._._._.",
"_._._._._._._._.3   X               ^ d.Z._.d.f.Z.f.f.Z.z.f.Z.d.f.Z.f.f.f.f.Z.n.Z.f.d._.b.                    _._._._._._._._._.",
"_._._._._._._._.>     O   O         4.L.l.d.z.D.d.Z.Z.f.Z.f.d.n.Z.d.z.Z.Z.f.f.z.d.f.l.Z.b.                    _._._._._._._._._.",
"_._._._._._._._.3                 X n.d.c.Z.Z.f.z.f.Z.f.d.z.n.Z.Z.d.f.Z.d.Z.f.Z.l.z.L.d.b.          O         _._._._._._._._._.",
"_._._._._._._._._.  X       X     O d.d.M.d.d.Z.f.Z.f.d.Z.f.n.d.f.Z.f.f.z.Z.f.f.d.Z.Z.d.n.                  _.n._._._._._._._._.",
"_._._._._._._._.U._.  O             d._.d.L.Z.d.f.f.Z.Z.f.Z.n.n.z.f.z.f.Z.d.Z.f.Z.z.n.d._.                > _._._._._._._._._._.",
"_._._._._._._._.M._.U.d._._.        2.l.l.n.l.d.Z.d.f.z.z.d.n.d.f.Z.Z.f.Z.f.z.d.Z.f.d.L.n.        b._.2._._.U.U._._._._._._._._.",
"_._._._._._._._._.n.M._.n._.        - d.Z.L.f.f.f.Z.d.Z.Z.f.n.n.Z.f.Z.f.f.z.f.Z.d.Z.d._.s.        _.C.d._.n._.U._._._._._._._._.",
"_._._._._._._._._._._._.M._.          d.Z.d.Z.f.z.z.Z.f.f.n.l.n.l.z.d.Z.Z.f.Z.l.f.L.f.L.2.        d._._.b._.U._._._._._._._._._.",
"_._._._._._._._._.U._._._.U.    O     n.f.f.Z.l.c.z.l.f.f.n.n.j.c.M.f.f.f.d.L.l.l.c.z.Z.    O     W U._._.n._._._._._._._._._._.",
"_._._._._._._._._._.M._.U.U.O   O     f.y.h.f._.z.z.d.Z.f.f.n.M.c.Z.g.h.Z.z.c.L.L.L.Z.r.    O O   Q _.M._.U._._._._._._._._._._.",
"_._._._._._._._.n._._.n._._.      O . . h.t.h.r.h.h.f.Z.f.Z.z.f.M.c.Z.f.f.h.z.z.c.z.r.D.    .     d.U._._.n._.n._._._._._._._._.",
"_._._._._._._._._._.d._._.n.            h.t.h.Z.y.f.h.f.f.Z.f.Z.M.c.h.f.f.y.n.c.c.Z.r.  X         _._.b._._.U._._._._._._._._._.",
"_._._._._._._._._.U.n._.n._.          O E _.l.d.z.z.c.f.z.f.f.h.c.Z.f.f.l.Z.c.c.a.M.L..           U._._.n._._._._._._._._._._._.",
"_._._._._._._._._._._.U._.b.4.  .   .     d.l._.c.z.L.L.Z.f.Z.t.l.f.z.Z.M.c.c.c.M.d.          .   _.n.U._._._._._._._._._._._._.",
"_._._._._._._._._.U._.n._._.b.    X         L.j.c.c.c.n.f.h.f.h.z.f.f.Z.l.M.c.j.b.$             _._._.U.b.M._._._._._._._._._._.",
"_._._._._._._._._.U.U._.U.U._.*         X     j.c.v.M.l.h.f.h.f.f.f.Z.d.b.c.v.b.~               _._.M._._._._.n._._._._._._._._.",
"_._._._._._._._._._._._._._._._.O O     X       C.d.Z.r.g.f.l.c.z._.d.n.n.d.g.X               _._._._._._._._._._._._._._._._._.",
"_._._._._._._._._._._._._._._._.U.O     X         ~ r.D.r.n.l.x.Z.d._.d.C.n.              X C._._._._._._._._._._._._._._._._._.",
"_._._._._._._._._._._._._._._._.U.U.          . O .   % D.d.j._.n.d._.W               O   R b.U._._._._._._._._._._._._._._._._.",
"_._._._._._._._._._._._._._._._.U._.g.          .   .                   O . .     . O . $.U.U.U._._._._._._._._._._._._._._._._.",
"_._._._._._._._._._._._._._._._._.U._._.  .   .     . .     O       O       . .   . . L._._.v.v._._._._._._._._._._._._._._._._.",
"_._._._._._._._._._._._._._._._.n.D._.f.Z.v . . . # .     O           .   . . . . o y.f.L.j._._._._._._._._._._._._._._._._._._.",
"_._._._._._._._._._._._._._._._.Z.D.D.Z.>.;.%.1 o o . .   . X           . o . # #.*.>.e.Z._.M._._._._._._._._._._._._._._._._._.",
"_._._._._._._._._._._._._._._._._.n.D.Z.>.} H F L G < . .       .   . . & K J G K ' ;.e.Z._.L._._._._._._._._._._._._._._._._._.",
"_._._._._._._._._._._._._._._._._._.L.Z.>. .L S m c n Z ) ;.y.g.y.>._ U N M c N P ` ;.y.L._.L._._._._._._._._._._._._._._._._._.",
"_._._._._._._._._._._._._._._._._.v._.y.>.*.O.P V T n I o.;.y.Z.y.;.#.U A D B Z O.@.e.Z.L._._._._._._._._._._._._._._._._._._._.",
"_._._._._._._._._._._._._._._._._.U.U.D.y.>.;.*.*.*.%.*.e.y.Z.g.Z.y.e.*.*.%.*.;.>.e.Z.Z._.v.U.U._._._._._._._._._._._._._._._._.",
"_._._._._._._._._._._._._._._._.U.U.v.g.g.y.y.y.y.w.y.y.Z.Z.Z.Z.D.Z.r.Z.y.y.t.y.y.Z.Z.n.v.v.v.v._._._._._._._._._._._._._._._._."
};
