/* XPM */
static char *Untitled_Artwork_11661805586[] = {
/* columns rows colors chars-per-pixel */
"64 64 238 2 ",
"   c #010103",
".  c #01020B",
"X  c #03090B",
"o  c #0B0C0B",
"O  c #0A0501",
"+  c #130D08",
"@  c #161609",
"#  c #000214",
"$  c #00031B",
"%  c #010B1A",
"&  c #090C14",
"*  c #120E12",
"=  c #1A1919",
"-  c #0C1511",
";  c #201D1D",
":  c #291C00",
">  c #30290A",
",  c #000323",
"<  c #00042C",
"1  c #000A2A",
"2  c #061227",
"3  c #000533",
"4  c #000A34",
"5  c #000B3C",
"6  c #00053B",
"7  c #03133A",
"8  c #1D1F24",
"9  c #19232A",
"0  c #282728",
"q  c #2C2C34",
"w  c #343334",
"e  c #3B3A3C",
"r  c #373737",
"t  c #302E33",
"y  c #41383A",
"u  c #524A03",
"i  c #6F6705",
"p  c #000B43",
"a  c #000947",
"s  c #001243",
"d  c #001A4B",
"f  c #00154A",
"g  c #001A56",
"h  c #000D51",
"j  c #00225B",
"k  c #182E53",
"l  c #3B3D44",
"z  c #26364D",
"x  c #001A62",
"c  c #012365",
"v  c #012868",
"b  c #022A76",
"n  c #04347A",
"m  c #163665",
"M  c #2D4F75",
"N  c #494748",
"B  c #5D5C5D",
"V  c #555253",
"C  c #4F4F54",
"Z  c #5F5E63",
"A  c #4D686D",
"S  c #6E7174",
"D  c #B80E36",
"F  c #AA173A",
"G  c #B51139",
"H  c #C50734",
"J  c #857516",
"K  c #BC1B43",
"L  c #9E2641",
"P  c #AF304E",
"I  c #CF1A47",
"U  c #D63B60",
"Y  c #B54860",
"T  c #C75A74",
"R  c #DA647E",
"E  c #95882D",
"W  c #BFAA37",
"Q  c #C7B23B",
"!  c #F3D11A",
"~  c #DEC42D",
"^  c #EECE21",
"/  c #F1D42E",
"(  c #AEB075",
")  c #9FA34E",
"_  c #D6C94D",
"`  c #E9D646",
"'  c #E9D258",
"]  c #D7D46C",
"[  c #E8D265",
"{  c #063886",
"}  c #093E97",
"|  c #133F8F",
" . c #144899",
".. c #0F4590",
"X. c #295798",
"o. c #2D538E",
"O. c #366592",
"+. c #0D4CA7",
"@. c #144CA7",
"#. c #1753AD",
"$. c #0C4BB5",
"%. c #114DB9",
"&. c #1957B7",
"*. c #0D50A7",
"=. c #265AA8",
"-. c #235BB7",
";. c #2863B8",
":. c #2E6BAC",
">. c #4A7497",
",. c #4376A6",
"<. c #7B7986",
"1. c #0C55CA",
"2. c #1A5CC2",
"3. c #145CCA",
"4. c #1C5DCD",
"5. c #1458C6",
"6. c #014DDB",
"7. c #0353DD",
"8. c #0957D9",
"9. c #155CD6",
"0. c #215EC9",
"q. c #1963CC",
"w. c #0F62DB",
"e. c #1463DB",
"r. c #1967D8",
"t. c #1E71D1",
"y. c #2468C8",
"u. c #256DDA",
"i. c #3473D0",
"p. c #0355E3",
"a. c #0955E4",
"s. c #035AE5",
"d. c #0A5BE5",
"f. c #0355EB",
"g. c #0856E8",
"h. c #045CEC",
"j. c #0B5DEC",
"k. c #115CEB",
"l. c #1057E3",
"z. c #0256F4",
"x. c #045DF3",
"c. c #095EF2",
"v. c #035EFA",
"b. c #085FFC",
"n. c #0C57E9",
"m. c #0562ED",
"M. c #0A62ED",
"N. c #0C69ED",
"B. c #0863E5",
"V. c #1264E3",
"C. c #1365ED",
"Z. c #136AEC",
"A. c #1869E6",
"S. c #0563F3",
"D. c #0B64F3",
"F. c #056AF5",
"G. c #0C6AF5",
"H. c #0464FC",
"J. c #0B65FA",
"K. c #056AFC",
"L. c #0B6CFC",
"P. c #1165F4",
"I. c #136BF4",
"U. c #1B6DF4",
"Y. c #1166FA",
"T. c #126CFB",
"R. c #0D70F6",
"E. c #0572FC",
"W. c #0C73FE",
"Q. c #0D79FF",
"!. c #0370F7",
"~. c #1472F5",
"^. c #1D72F6",
"/. c #1372FC",
"(. c #1B74FC",
"). c #1479FC",
"_. c #1C7AFD",
"`. c #1379F7",
"'. c #1973E5",
"]. c #2275FD",
"[. c #247BFE",
"{. c #297DFF",
"}. c #2774F7",
"|. c #2E75EB",
" X c #827D81",
".X c #E3778E",
"XX c #7A8C8A",
"oX c #709AA3",
"OX c #6194B5",
"+X c #1A80FE",
"@X c #2983FF",
"#X c #2885FF",
"$X c #3284FF",
"%X c #878488",
"&X c #999798",
"*X c #878F8B",
"=X c #8CA993",
"-X c #A3AA90",
";X c #9FB7A1",
":X c #A9A9AA",
">X c #B7B7B7",
",X c #FB89A5",
"<X c #B8CEAE",
"1X c #FFF9B8",
"2X c #FDF1B4",
"3X c #E7E388",
"4X c #BEBFC4",
"5X c #FCB9CC",
"6X c #C8C6C6",
"7X c #D8D7D8",
"8X c #CDCBCD",
"9X c #FFCDDC",
"0X c #E1DCDD",
"qX c #FFD3DD",
"wX c #FFF9C8",
"eX c #FFF9D7",
"rX c #E4E1DA",
"tX c #FFDCEB",
"yX c #F5D9E8",
"uX c #ECEBEB",
"iX c #E9E7E5",
"pX c #FFE2EB",
"aX c #FDE8EA",
"sX c #FEF6EC",
"dX c #FAF7E8",
"fX c #ECEBF2",
"gX c #E7EEF4",
"hX c #FEECF3",
"jX c #F9E9F2",
"kX c #F5F4F4",
"lX c #FCF6F5",
"zX c #F7F9F6",
"xX c #FCF8F6",
"cX c #F5F5FA",
"vX c #FCF6FA",
"bX c #FCF9FA",
"nX c #F4F8FB",
"mX c #EDF0F9",
/* pixels */
"/./././././.T.T.G.D.c.j.D.I.G.N.m.S.G.m.f.x.c.J.S.N.A.q.=.X.X.X.o.=.;.t.'.`.R.Q.W.L.W.Q.Q.Q.Q.Q.W.Q.Q.Q.).).).)./._.`.`.`.`.`.+X",
"D.D.J.T.T.J.J.S.s.s.s.s.s.p.p.7.p.h.m.m.x.c.h.M.V.3.+.n h p 6 4 5 5 g n #.5.w.N.G.L.K.S.!.K.!.F.F.F.F.S.F.J.R.E.R.G.G.N.~.R.~.`.",
"L.L.J.J.J.J.S.h.x.f.s.s.s.h.m.D.m.s.w.m.m.h.M.V.-.{ 5 , $ $ # # # # # $ < d ..#.e.B.D.G.E.L.L.L.W.K.H.S.F.F.D.S.m.j.M.M.M.G.I.I.",
"/.L.D.x.x.c.J.J.J.S.J.J.J.G.D.m.N.N.m.m.M.N.r.*.g < #             O o . X # < c *.9.d.h.S.F.S.G.L.L.J.L.P.J.J.D.D.D.J.I.T.T.U.~.",
"Q.W.L.S.x.h.x.x.x.D.J.D.D.D.G.G.I.M.G.T.I.e. .5 , # # 9 w *   O O 0 N N = o X < g @.r.M.S.S.D.S.J.S.F.x.D.c.D.D.M.M.D.C.C.C.I.I.",
"W.W.L.J.J.D.D.J.D.D.J.Y.J.~.J.G.D.D.D.M.V.&.7 # X 0 >XmXfX6X0 o C 7XvXlX8XN X . , c 2.V.m.m.S.S.S.D.D.D.D.D.P.I.I.P.P.M.C.I.I.U.",
"W./.T.G.J.J.P.J.J.P.P.P.P.G.G.m.D.D.G.Z.&.j $ . r 7XcXnXcXzX7XB rXxXxXxXzXiXZ & # < { r.Z.G.D.G.G.G.G.G.G.G.J.I.T.G.G.N.I.~./.).",
"L.L.G.J.P.P.Y.P.P.P.P.P.P.D.G.G.I.L.~.r.n $ X = 7XmXvXvXxXxXkX7XzXxXxXkXbXvXkXZ X # s ;.'./.~.~.T.G.T.I./.^./.~.I.~.~.(.`._._.).",
"W.K.K.S.J.c.P.Y.c.P.P.Y.Y.J.G.D.G.B.B.2.3 # % :XmXkXvXbXzXzXzXxXvXvXvXbXxXxXbXfXw # , ..|._.~.`.(.(.[.@X{.{.@X@X@X[.[.[.#X#X#X#X",
"W.W.D.D.c.c.c.j.c.c.j.D.P.D.G.L.M.N.e.} ,   C gXkXcXjXjXbXxXxXxXvXvXfX0XuXxXbXnX>X& . s u.~.~.~.^.U.].}.U.U.U.U.^.^._.[.#X_._.^.",
"Q.E.G.D.D.j.c.j.g.j.D.D.M.m.m.M.B.Z.u.c , & 8XcXkX0XC N 7XlXxXbXsXaXV = B iXbXvXvX0 X 1 r.F.M.m.d.s.p.p.7.7.p.7.p.p.M.B.G.G.~./.",
"W.!.G.D.c.g.g.c.j.j.M.M.j.M.d.h.M.w.q.a $ q mXcXjX&XO O %XlXxXxXzX0X0   e uXbXvXvXZ o , q.S.m.m.s.p.g.M.M.J.P.P.M.m.h.s.s.s.B.m.",
"G.F.h.d.k.n.k.k.d.d.g.a.7.7.7.a.j.9.-.6 # XXkXxXkX:X@ ; 8XxXxXzXdXdXS V :XlXvXvXvX Xo 1 3.D.S.c.D.M.C.P.J.M.M.M.j.j.M.d.h.h.M.M.",
"E.G.h.s.a.7.6.6.7.6.6.6.6.6.8.a.g.9.-.p % >XsXxXbXjX6X8XsXeXwX1XwXwXdXuXxXxXvXbXvX&X& < 3.m.c.c.h.h.s.s.s.p.p.s.s.j.D.j.d.M.M.j.",
"E.L.D.h.g.g.g.g.p.p.a.a.g.g.g.j.c.A.y.5 2 7XlXbXbXbXxXdX1X[ ` / / ' wXlXxXxXlXxXlX&X& 4 r.m.G.S.S.m.h.m.h.M.D.d.h.D.j.P.c.C.D.P.",
"W.L.S.h.c.C.D.c.j.j.d.M.M.M.j.j.d.r.0.a 2 0XbXbXvXvXxXeX1X' ! ! / ' wXxXxXlXbXxXxXXX1 n u.T.~.G.J.G.G.G.G.G.D.D.D.D.P.c.P.J.k.j.",
"W.L.D.M.M.M.G.D.D.D.G.G.R.R.T././.Z.i.a 2 6XvXvXvXbXlXsXdX1X` / ' 1XdXbXxXxXzXzXvXC 7 ;.A.T.T.G.T.L.W.W.W.W.W.W.T.T.T.Y.P.D.D.D.",
"G.L.J.G.G.I.T.I.T./.`.).Q.Q./././.I.u.x $  XcXbXvXlXlXxXxXwX3X' 2XeXsXlXxXzXxXbXkXq a y.(.T.G.T.L.J.G.L.~.L.L.R.R.I.I.I.Y.Y.T.T.",
"S.K.F.L.G.N.P.M.D.G.G.L.L.L.~.T.L.B.V.;., 0 uXzXbXvXbXkXlXsXwX2XeXsXlXxXbXxXxXbX7X2 x |.{.].]./.Y.Y.T.(._./.U.^.U.Z.C.P.I.T.U.~.",
"L.G.L.R.G.N.M.D.j.D.M.h.m.B.M.S.h.D.h.&., & 6XzXcXlXlXpX9XqXaXdXsXsXhXlXlXxXbXlX%X1 -.e.P.Y.Y.J.Y.J.U.(.].].{.$X$X{.{.].(._._._.",
"W.R.R.G.G.L.G.F.J.P.k.k.d.B.d.j.k.k.k.2.3 . %XnXbXbX9XT F L pXjX9XY T tXhXxXbXbXN $ -.a.s.f.s.x.J.x.m.M.M.M.D.I.I.Y.J.J.J.J.W./.",
"G.F.N.N.G.G.G.m.D.P.k.l.d.d.h.g.g.a.8.%.s . <.cXbXaX.XD D G ,XtXP K F P hXxXvXbXy , &.g.f.S.H.F.L.G.G.D.D.S.D.x.J.c.b.v.b.H.L./.",
"W.G.N.m.h.m.B.B.g.d.d.d.s.m.p.p.p.a.8.@.4 X &XvXbXqXT H H H D G D U I F hXvXbXbXy , q.W.L.L.L./.L.J.H.J.D.J.c.S.b.J.J.J.L.T.T./.",
"K.F.m.m.s.s.7.7.7.p.h.m.m.F.J.S.j.d.4.{ , & 8XvXlXtXI H H I I G I I H F hXbXxXvXy $ y.Z.L.W.L.G.L.L.L.T.T.L.J./.L.H.H.L.L.R.L.T.",
"K.S.m.m.m.m.F.J.G.M.m.S.F.J.J.F.D.r.=.5 # 0 fXvXlXpXR D H D .X5X.XK H F tXbXnXbXZ $ h 0.P.J.H.H.K.K.K.L.K.L.W.K.K.K.E.Q.Q.Q.Q.Q.",
"K.L.F.!.R.E.E.L.G.L.K.L.F.D.S.B.e.+.s $ . S cXvXlXhX9XP F L tXtXtXY F P pXvXnXbX:X% < b 1.c.x.H.H.H.H.H.K.K.K.H.K.K.!.K.!.!.E.E.",
"Q.Q.E.G.K.K.K.K.G.E.F.G.L.F.E.r...5 $ . X >XcXvXkXbXaXaX5X9XlXxXhXpXhXpXvXvXbXvXuX8 . < { 5.a.S.v.H.H.H.H.K.H.H.K.K.K.K.S.H.K.E.",
"E.E.K.K.K.K.L.L.F.F.G.E.F.G.r. .4 #     @ 7XbXbXbXbXlXlXlXsXlXzXhXbXlXbXvXvXvXbXbXB   . 6 b 4.C.H.H.H.H.H.H.H.L.L.W./.W.E.K.K.K.",
"E.E.E.K.K.H.H.F.K.F.!.N.D.e...4 #     O 0 fXbXbXvXvXbXbXxXbXxXlXxXxXlXxXcXbXlXlXbX6X*   # < { 2.N.m.S.H.v.H.J.K.J.J.J.L.K.L.W./.",
"E.E.!.E.L.L.L.L.R.F.F.Z.e.@.5 #         S lXxXbXvXvXbXbXlXbXxXxXxXxXzXzXbXbXlXxXxXxXN     # 3 | q.h.x.b.v.v.v.f.m.S.D.H.H.L.G.E.",
"Q.E.K.K.K.K.J.D.S.G.M.e.#.s $           S xXxXsXvXzXzXbXlXvXbXxXxXxXvXbXbXxXlXxXlXzX4X*     # 5 *.e.P.J.H.v.S.S.F.S.H.J.L.F.E.R.",
"H.S.S.S.S.S.S.h.D.g.e.&.d $ .         - &XxXsXxXxXzXxXzXvXvXbXxXxXxXnXbXxXxXzXlXlXkXdX0       $ h @.r.I.T.L.K.K.K.K.L.L.W.E.R.E.",
"K.H.H.H.S.L.Y.c.c.8.#.g $             w kXxXlXlXbXxXzXbXbXbXxXxXdXbXxXbXxXxXxXxXbXlXlXw       . # s @.e.T.G.W.E.W.W.W.W.W.E.Q.E.",
"K.K.H.J.K.F.J.I.k.4.c 1 .           o &XlXxXxXlXxXxXxXxXlXbXlXbXxXxXxXxXbXbXxXxXlXvXxXr           $ g #.V.L.W.K.W.W.W.E.W.Q.Q.Q.",
"L.L.D.S.S.S.S.M.A.} < .             0 iXxXxXxXxXxXxXxXxXlXxXxXlXxXxXxXxXbXcXxXbXvXbXjXl         . X , j 5.Z.K.Q./.W./.W.Q.E.W.W.",
"S.F.S.m.S.S.S.8.#.h $               N xXbXxXlXxXxXxXxXxXbXxXxXxXxXxXxXxXbXbXxXlXvXvXvX( *           . , b 5.N.G.F.F.S.S.S.K.K.L.",
"H.S.S.S.S.f.m.5.g $ .   O       X o &XzXlXlXbXxXbXxXbXzXlXbXxXbXxXxXlXbXxXxXxXxXxXlXbX>X=           . $ 3 { 3.d.S.S.F.F.S.S.m.m.",
"K.W.L.F.J.J.Z.+.1               O * 8XbXbXxXxXbXlXxXxXxXxXxXxXlXlXxXxXxXbXvXvXxXbXxXxX7X=             . # s $.8.7.s.s.m.F.K.F.!.",
"J.L.G.D.J.C.2.g $         O       ; uXvXxXxXlXbXxXxXzXbXlXbXlXbXxXxXlXxXlXbXxXxXxXlXxXiX0             . . < @.8.s.g.s.h.m.m.F.E.",
"D.m.h.f.g.1. .< #                 0 zXxXxXxXbXxXxXbXzXxXxXbXlXlXxXxXbXxXxXxXxXxXlXlXxXkXt                 $ { 8.h.g.d.B.m.F.G.R.",
"D.c.c.j.k.0.| , .                 w zXcXlXxXlXbXxXbXxXxXbXxXbXlXxXbXxXlXxXxXlXxXlXlXlXxXr     .           $ n r.C.j.M.B.G.G.G.G.",
"P.T.(.].{.|.X.< #       . .       N bXbXlXxXxXbXlXxXxXlXxXlXlXlXlXxXbXxXbXlXbXxXbXbXxXxXe     & $ # . . . < { r.C.D.D.G.S.M.M.F.",
"x.D.M.C.U.|.#.a $     X $ 1 z . X V xXzXxXbXbXlXxXbXxXlXbXxXbXbXlXxXxXxXxXxXxXxXlXbXlXlXe   . 2 m p < $ $ 6 $.d.D.T.T.L.J.L.G.L.",
"L.T.G.D.P.k.0.{ 6 < < 4 v o.k # X N bXnXbXlXxXxXlXxXbXxXxXlXlXlXbXxXbXlXlXbXxXbXlXbXlXzXe     2 X.@.v g c | 9.g.x.D.L.L.L.L.L.T.",
"W.L.T.T.Y.Y.U.9.3.%.+.&.4.#.d #   r kXbXxXlXxXxXxXbXlXbXxXxXlXlXxXxXxXxXxXlXxXlXbXlXbXzXe     1 &.w.q.r.9.9.C.J.K.L.L.H.L.L.L.K.",
"W.K.L.J.Y.J.J.c.j.g.p.7.6.1.f # . 0 kXbXxXbXxXlXxXlXxXxXbXlXbXbXxXlXxXxXxXbXlXbXbXlXbXbXl     < q.G.T.J.T.J.Y.Y.L.K.J.H.H.K.L.L.",
"/.L.G.D.J.s.s.p.p.6.7.7.a.%.d #   = 7XbXlXxXbXbXxXbXxXlXlXxXlXxXbXxXbXlXxXlXlXlXlXlXvXbXN     4 5.L.L.L.L.L.L.L.L.K.K.K.H.H.K.L.",
"F.m.s.M.J.S.L.S.P.k.D.D.c.3.j $ . * &XbXbXxXlXlXlXxXbXbXbXxXlXxXxXlXxXxXbXbXbXbXlXlXbXbXl   . p 3.F.K.H.H.H.K.L.L.K.K.K.K.K.L.K.",
"s.p.p.p.p.m.m.S.J.D.S.H.S.9.{ < .   N cXvXbXzXlXzXzXxXxXbXxXlXxXxXbXsXxXvXnXvXvXbXbXzXbXw . $ g r.D.L.J.J.J.b.c.b.J.H.J.L.L.L.W.",
"D.G.D.D.m.m.S.S.c.h.H.S.S.B.@.6 #   = 7XvXcXlXxXxXxXbXbXbXxXlXxXxXsXxXbXvXvXbXvXzXzXxXiX0 . , { 8.J.J.J.J.Y.J.Y.c.J.J.H.H.L.K.W.",
"L.K.D.H.h.h.x.h.h.h.m.h.S.d.&.g $   & %XvXvXvXxXlXxXbXbXxXxXlXlXzXzXbXvXbXbXlXbXxXzXzX>X* # 6  .8.f.f.h.h.f.x.c.J.J.J.S.S.H.K.K.",
"K.S.S.H.J.J.F.S.D.D.S.x.J.k.9.} < # # q fXvXvXlXsXlXlXbXxXzXzXxXzXxXvXvXbXvXlXlXxXxXdXN . , b 3.B.S.f.s.c.f.h.c.x.c.c.S.F.G.F.G.",
"K.K.K.K.L.L.K.K.H.J.J.S.c.f.p.1.c 1   * *XvXbXbXlXlXxXlXvXvXxXxXbXbXbXbXlXbXbXlXxXkX*X# % d +.8.g.h.h.x.c.h.f.f.f.f.f.f.f.z.f.s.",
"K.K.L.L.L.D.G.J.L.L.L.J.J.J.S.e.#.d #   8 4XnXvXxXxXxXbXnXvXxXxXbXxXbXbXbXvXvXvX7Xe & $ s  .w.m.x.m.x.h.x.h.f.p.f.f.z.x.c.c.c.J.",
"J.T.L.L.J.M.M.S.F.J.J.Y.J.G.L.m.w.*.7 # # r 8XvXlXlXlXxXvXbXlXxXlXlXbXbXvXlXvX0Xl X # 4 +.r.Z.F.G.G.D.j.c.c.j.D.J.c.S.S.S.S.S.S.",
"J.D.J.M.P.P.I.P.J.J.T.T._./.).G.R.r. .d $ % q :XkXlXlXlXbXbXxXxXzXbXbXlXvXnX7Xl . # < | 3.N.N.G.M.M.M.M.M.M.D.J.D.J.J.D.L.L.L.L.",
"J.D.M.M.M.P.P.D.J.P.T.T.T.I./._.(.^.u.-.b 3 & & r -XiXdXzXuXmXnXnXzXbXjX7X%X; . $ 5 ..q.A.I.Z.I.V.k.d.d.d.V.C.P.D.M.D.G.G.I.~.~.",
"T.G.D.M.h.h.d.S.h.D.x.x.F.J.P.P.Y.I.P.u.:.M -   O @ = w w 9 q l l r t ; @ O O   8 o.i.{.$X$X{.U.{.{.}.].}.}.{.{.].[.{.{.(.(._._.",
"T.L.W.L.D.S.S.S.S.m.x.v.v.c.z.g.z.j.a.1.=.A ) i : O   X       .         O + > E ( S i.}.}.U.U.U.U.P.Z.Z.U.U.].^.U.P.Z.I.G.U./._.",
"L.L.R.W.T.L.L.J.S.D.S.J.v.z.z.f.f.p.p.1.>.<X] Q Q E u > @ & % % $ X @ u J Q ~ ` ] XXX.8.8.8.8.d.d.d.d.d.g.g.a.g.g.p.p.p.p.s.B.h.",
"/.W.L.L.J.L.J.c.D.J.D.D.S.J.J.b.z.c.S.q.OX<X] / / ^ ~ _ ( A o.*.} A _ ^ ^ ! ! / ] *X=.8.l.a.s.j.j.j.g.j.g.n.k.g.c.g.j.j.d.M.D.G.",
"W.L.L.L.J.c.J.c.j.f.f.f.f.S.z.c.J.H.J.A.:.oX( ) ` ` ` ] <XO.&.w.1.:.3X` ` ` ` ] -X>.y.M.c.c.P.h.c.g.g.g.g.p.a.6.g.g.j.D.D.D.D.G.",
"H.L.L.J.J.J.J.J.J.v.z.c.H.v.v.z.z.z.v.J.w.t.i.,.oX=XoXoXOXq.V.G.j.y.oX;X=XoXoX>.=.4.h.J.L.T.J.T.J.J.J.J.D.c.c.j.j.g.g.h.M.D.D.G.",
"T.T.T.J.T.Y.Y.T.Y.J.Y.J.J.b.H.J.v.z.v.z.x.m.m.w.;.:.O.:.t.V.T.J.L.8.X.O.O.X.=.q.a.z.v.v.H.K.J.L.L.L.L.L.Y.Y.I.Y.Y.Y.P.D.P.D.G.I."
};
