/* XPM */
static char *c443572a22434cc0c2ef1e05f80d065aYFFt9ajF1KD4abKa[] = {
/* columns rows colors chars-per-pixel */
"64 64 216 2 ",
"   c #2D2F3B",
".  c #2D333E",
"X  c #31333E",
"o  c #1F345F",
"O  c #1F395E",
"+  c #2E2F41",
"@  c #2F3543",
"#  c #2F3844",
"$  c #2C344B",
"%  c #2D384C",
"&  c #323443",
"*  c #383645",
"=  c #363845",
"-  c #383844",
";  c #333449",
":  c #30394A",
">  c #253454",
",  c #2A3554",
"<  c #263854",
"1  c #293854",
"2  c #24355A",
"3  c #29365A",
"4  c #26395A",
"5  c #2A3859",
"6  c #1F3664",
"7  c #1D3964",
"8  c #1E366B",
"9  c #1B396C",
"0  c #17346C",
"q  c #0D397A",
"w  c #173770",
"e  c #1B3673",
"r  c #153975",
"t  c #1A3A73",
"y  c #15367A",
"u  c #193678",
"i  c #133A7A",
"p  c #193B7B",
"a  c #213664",
"s  c #283762",
"d  c #223863",
"f  c #223A6B",
"g  c #23376A",
"h  c #213771",
"j  c #20397B",
"k  c #0D3A85",
"l  c #0A3788",
"z  c #0E3E88",
"x  c #123984",
"c  c #1A3D82",
"v  c #163C8C",
"b  c #0C3A91",
"n  c #003DA1",
"m  c #174487",
"M  c #1B4786",
"N  c #1E4B8E",
"B  c #0C4493",
"V  c #164492",
"C  c #224D9C",
"Z  c #234E93",
"A  c #245099",
"S  c #2D5299",
"D  c #154FA1",
"F  c #1B4AA6",
"G  c #184DAD",
"H  c #154BAB",
"J  c #1E55AF",
"K  c #1D5DB8",
"L  c #1D53B7",
"P  c #2650A2",
"I  c #2857A5",
"U  c #2454AC",
"Y  c #2A5AAF",
"T  c #2A57A8",
"R  c #2356B4",
"E  c #245BBC",
"W  c #285ABB",
"Q  c #285BB4",
"!  c #3A60A7",
"~  c #2C63B5",
"^  c #2C62BD",
"/  c #3766BE",
"(  c #0C55C6",
")  c #1550C6",
"_  c #1A55C2",
"`  c #1658C6",
"'  c #1D5CC4",
"]  c #1253CC",
"[  c #1957C8",
"{  c #1158CE",
"}  c #1C5CCC",
"|  c #024DDA",
" . c #034CD7",
".. c #0C56D3",
"X. c #0D58D5",
"o. c #0353DD",
"O. c #0A54DE",
"+. c #045CDE",
"@. c #0E5EDE",
"#. c #0755D3",
"$. c #145EDD",
"%. c #195FDC",
"&. c #1B5ED3",
"*. c #215DC4",
"=. c #235DC8",
"-. c #1D60CE",
";. c #1F63C4",
":. c #0F60D3",
">. c #1D64D4",
",. c #1562DD",
"<. c #1A64DD",
"1. c #1768DB",
"2. c #1B6ADB",
"3. c #1967D3",
"4. c #1C71DC",
"5. c #2362C5",
"6. c #2B64C3",
"7. c #2768C4",
"8. c #2363CD",
"9. c #2B64CA",
"0. c #2B69CB",
"q. c #336CC5",
"w. c #2263D3",
"e. c #2669D2",
"r. c #2B6DD5",
"t. c #206BDA",
"y. c #2A6CDB",
"u. c #316CD4",
"i. c #2C71D9",
"p. c #2872D3",
"a. c #3675DC",
"s. c #074FE1",
"d. c #0355E3",
"f. c #0A56E4",
"g. c #045AE5",
"h. c #0A5BE5",
"j. c #0356EA",
"k. c #0857E9",
"l. c #045CEB",
"z. c #0A5DEB",
"x. c #125DE4",
"c. c #115BEA",
"v. c #0256F3",
"b. c #045DF3",
"n. c #0B5DF3",
"m. c #045BF9",
"M. c #0A5EFA",
"N. c #0661E6",
"B. c #0D62E3",
"V. c #0F68E6",
"C. c #0563EE",
"Z. c #0B62EC",
"A. c #0768EE",
"S. c #0D6BEE",
"D. c #1463E3",
"F. c #136AE5",
"G. c #1B69E3",
"H. c #1264EC",
"J. c #1967ED",
"K. c #146AEC",
"L. c #1A6CEC",
"P. c #1C73E4",
"I. c #0564F3",
"U. c #0B64F4",
"Y. c #056BF4",
"T. c #0B6AF5",
"R. c #0465FA",
"E. c #0D67FC",
"W. c #0B65FA",
"Q. c #056BFB",
"!. c #0A69F9",
"~. c #0E6AFA",
"^. c #0A6FF9",
"/. c #0B6CFC",
"(. c #1265F4",
"). c #126BF5",
"_. c #1C6CF3",
"`. c #1265FB",
"'. c #116CFB",
"]. c #1C6DF8",
"[. c #1A67F3",
"{. c #0670F7",
"}. c #0B71F6",
"|. c #0672FC",
" X c #0A71FA",
".X c #0E72FE",
"XX c #0A76FE",
"oX c #0B73FE",
"OX c #0D79FF",
"+X c #0C79FF",
"@X c #1372F6",
"#X c #1B73F5",
"$X c #1579F4",
"%X c #1570FE",
"&X c #1276FF",
"*X c #1373FC",
"=X c #1876FA",
"-X c #1C74FC",
";X c #117AFF",
":X c #1678FC",
">X c #1C7BFD",
",X c #2D71E0",
"<X c #2076EF",
"1X c #2A73E9",
"2X c #277DEE",
"3X c #216EF5",
"4X c #2374FC",
"5X c #2876FC",
"6X c #257AFF",
"7X c #2A7CFF",
"8X c #2D74F0",
"9X c #4370C5",
"0X c #2581FE",
"qX c #2C83FF",
"wX c #3283FF",
"eX c #308BFF",
/* pixels */
"%X%X%X%X%X%X/.'.~.U.Z.z.Z.).T.S.C.C.U.Z.z.g.I.I.R.Q.R.~.~.T.U.Y.T.T.}.&X*X*XXXXX|.|.oX|.OX;X+X+XXX|.XX&X&X:X+XOX:X=X$X$X$X:X>X>X",
"U.U.~.~.'.`.!.C.j.g.j.d.j.g.g.o.g.g.C.Z.C.j.l.I.I.R.I.l.j.g.j.C.g.C.N.C.C.C.T. X{.T.Y.Y.Y.{.Q.Q.Q.Y.Y.I.!./.|. X).T.S.S.S.$X=X:X",
"/./.!.U.W.W.b.b.l.l.j.j.j.l.C.Z.C.g.l.C.C.Z.I.R.Y.Y.Y.C.C.l.j.d.g.j.l.z.B.N.N.N.C.Y.Y.U.Y.T. X^.}.Q.Y.R.U.I.Y.C.I.l.Z.C.C.Z.T.).",
".X/.R.b.b.b.I.W.R.U.!.!.~.U.U.I.U.U.C.U.I.I.Y.~.T.Y.}.}.}.T.^.~.Y.z.Z.Z.h.g.+.g.l.j.l.C.C.A.Y.!.T.T.Y.!.W.`.!.U.U.U.(.(.@X#X).%X",
"&XoX!.I.b.b.b.n.I.n.n.U.C.U.T.T.~.U.T.~.).~.~.`.T.T.T.T.^.T.^. X XT.Y.C.C.j.z.c.n.n.z.Z.C.Z.U.I.U.C.C.C.n.U.I.z.n.n.(.Z.Z.).C.S.",
"oX.X~.W.U.U.U.!.U.!.!.`.~.'.T.T.U.Z.C.U.~.T.U.C.I.C.Y.Y.Y.Y.Y.Y.}.}. X}.T.U.Z.U.(.).).U.C.Z.Z.B.D.D.,.,.,.,.G.G.3XJ.H.(.(.T.&X$X",
".X.X~.!.W.(.W.U.U.(.(.(.(.!.T.C.U.!.~.T.T.T.~.Z.Z.U.Y.Y.Y.T.T.T. XT.T.T.Y.S.~.T.S.}.~.).K.,.} 6.7.6.^ ^ ^ ^ 6.0.w.G.D.S.@X).@X$X",
"/.~.~.T.!.(.(.`.`.(.(.(.U.Z.T.'.~.'.@X~.}.~.).).`.).T.).~.T.~.T.T.}.}.T.T.}.@XF.P.4.2.y.u.R z q i i e e r r p k n 2.#X#X>X>X=X>X",
"/.Q.U.b.n.U.W.`.n.n.(.`.(.(.T.Y.Y.C.C.C.C.Y.T.A.S.T.T.~.).(.).%X%X).@X@XT.F.,.8.~ M 0 7 3 2 , < 5 > < < < 2 2 e K 2X0X>XqXeXeX6X",
"+XoX!.Y.I.n.n.z.n.z.n.U.!.U.~.~.S.C.U.U.T.~.}.S.A.A.U.Y.U.Z.(.).F.F.1.3.e.0.^ k 9 > $ = X X & X * & .   # $ , t 0.#X$X6X0X>X-X>X",
"XX|.^.U.U.z.n.z.z.z.Z.z.Z.Z.l.C.Y.T.}.}.}.+X}.}.}.Y.A.Y.C.l.g.:.X.` J A e g s > , $ @ X X & * ; ; ; @ # & % g C ( g.g.Z.S.).#X#X",
"oX{.U.!.c.k.k.z.z.n.U.Z.Z.z.l.z.l.Y.T.T.Y.I.Y.Y.Y.Y.{.T.S.F.G.-.E k p a , ; & & ; ; # . & & & + ; & & . & 2 c =.,.Z.N.g.g.g.l.z.",
"^.Y.l.z.z.c.c.k.z.f.f.f.o.o.o.d.N.Z.Z.C.g.C.z.U.T.!.U.Z.,.*.I w d 4 > , $ ; X & & ; & ; * & * ; + ; * & @ 8 =.x.B.z.l.C.l.g.l.Z.",
"^.Y.l.d.s.s.s.| o.| | |  .| O.f.h.z.l.j.j.j.j.l.z.h.,.-.R y 6 < # X ; + ; ; -   & & ; * + & ; ; * + & $ 3 m ] k.f.n.U.n.Z.z.Z.Z.",
"oX~.U.j.k.k.k.k.d.d.k.f.f.k.h.z.Z.I.U.U.T.R.R.Z.@.} U p d > % ; & * ; ; & & X - X X & & & & & + + * & $ t Q ,.k.l.z.n.U.z.z.U.H.",
"oX!.I.C.z.U.U.Z.z.z.z.z.Z.Z.l.z.l.Y.U.Y.!.U.H.<.9.x g , @ & @ X & & ; @ & . & X & & & & & & & & & X & 3 B 3.H.(.(.!.M.U.(.(.(.z.",
"oXY.U.Z.U.U.!.U.U.T.T.T.}.).'.}.@X~././..X#Xe.I 8 > , ; ; + & X & & & & & & X & X & & # & @ & & & & & O p.@X~.'.'.'.'.~.C.Z.Z.(.",
"oXY.T.T.U.~.~.).'.*X$X&X:X:X&X&X*X.X/.T.L.e.m d $ & & * ; ; & X X & & & & & & & & & & & & & & & & ; $ t 2..X*X~.'.'.U.~.).T.'.@X",
"I.Y.T.).).(.(.U.(.(.~.~.^.~.~.'.T.U.U.%.R p O < $ @ & * & ; & & & & & & & & & & & & & & & & & & & $ 2 ! 1X%X].4X].[.(.(.~.~.@X@X",
"^.T.T.'.T.(.U.Z.z.z.C.C.I.C.C.C.Z.h.%.*.j > $ @ ; + & & ; + & & & # & & & # X & & & & & & & & & & , 8 9X1X6X7XwX7XqX7X6X-X>X>X>X",
"+X/.}.T.~.!.!.!.(.U.H.Z.l.C.z.f.c.[ U h , ; + * + * + & & & & + & & & X # & & & & & & & & & @ & & , e W x.c.H.K.`.`.(.(.W.E.'.'.",
"!.Y.T.U.T.T.W.H.Z.N.h.f.g.g.f.@.) F h , + * & ; * * & & X X & ; & & & & & & & & & & & & & & & & & , c *.D.Z.N.Z.U.M.b.b.M.E./.'.",
".X!.Y.I.C.N.h.f.N.h.z.k.z.z.d.] C g 2 , & . X X ; + & & * X & @ & & & & & & & & & # & & & & & & ; > y 5.x.W.C.I.Y.I.W.W././.*X&X",
"Y.Y.I.l.g.+.d.o.o.o.g.I.U.H.,.E g , % # . & . * & & * * & X @ @ # & & & & & & & & & & & & & & & ; > i e.#X'././.R.!.!.Q.^. X XQ.",
"I.C.C.C.C.C.A.Y.Y.I.I.I.I.D.^ w , ; . . & & & & ; ; ; * X & & & & & & & & & & & & & & # & & & # & 2 r 7.).oXQ.|.Q./.|.XX+XOX&X+X",
"{.{.Q.Q.^.^. XoX!.!.Q.T.V.;.r < $ + X @ & + & & ; + * + & X ; & & & X & & & & & & & & & & & & & & < r 5.B.R.R.R.Q.Q.Q.Q.Q.|..X.X",
"XX|.|.|./.!.!.^.~.*XQ.Z.^ t > ; & & & & & * & ; & & & X & & & & & & # & & & & # & & @ & & & & & & , i 5.B.R.R.R.Q./.Q.R.I.I.Q.Q.",
"|.|.Q.Q.R.R./.!.Y.Y.S.t.y 3 @ X & ; ; ; & & ; & + & X & X * X * & & & & & & & & & & & & & & X & & , i 5.H.R./.R././.XXoXQ.Q.R.Q.",
"XXXX{.!.Q.R.!.Q.T.V.3.B d ; & & & & ; & & ; ; ; & & X X & & & X & & # & & & & & & & & & & & & @ & 1 i ;.D.!.W.U.W.!.!.Q.Q.|.|.OX",
"{.|.^.Q.!.Q.Q.^.S.1.~ t ,   X & & & * & ; ; & & & & & X X & & & & & & & & & & @ & & & & & & & & & 1 i ' h.b.b.l.b.I.I.Y.Y.Y.{.{.",
"/./.oXQ.Q.Y.Y.Z.B.6.0 , & * & & & X & & + & & & & X & X & & ; ; & & & & & & & & & X @ & & & & & & , i 5.Z.m.b.m.W.b.R.I.Y.Q.Q.}.",
"R.R.R.I.I.I.C.+.} v 2 & & & & & & & & X & X & X & & & & & & & ; & & & X & & & & & & & & & & & & ; > i 7.)./././.E.Q./.oXXX/.oX.X",
"/.R.I.R.E.Q.Q.,.U g ; & & ; & . & & X # # & & & & & & @ # & & & & & & & # & & & & & & & & & & & & , r 6.H./././.oXXXoX|.oXXXXX|.",
"!.!.R.R.R./.Y.3.u , & & @ # & & & & & & & & & & & & & & & & & & & & & & & & & & & & & & & X & & ; < 9 ~ L./..X.XXX|.XX|.XX+X+XXX",
"Y.Y.Y.I.R.l.:.D s ; ; & @ ; @ & & & & & & & & & & & & & & & & X & & & & & @ & & & & & & & & & & & , 2 Z D.~.oXXXXXoX|.oXoXoXoXoX",
"Y.I.C.b.Y.B.K r , ; & + ; ; ; & & & & & & & & & & & & & & & & & & & & & & & & & # & & & # & & & & : % r ..I.I.Q.R.!.R.I.R.!././.",
"I.I.Y.I.b...N 2 ; * * + & X & * & & # & # X & & # & & & @ & & & & & & & & & & & & & & & & & & & ; & # 8 _ l.g.C.U.R.U.U.I.I.I.I.",
"/./.E.W.(.=.9 $ ; + * * . X & * & & & & & & & & & & & & & & & & # & & & & & & & & & & & & & & & & + @ d H ..o.d.d.d.l.C.U.Q.Q.Q.",
"E.E.E.(.%.U o ; & X + + . X * & & & & & & & & & & @ & & & & & & & & & & & & & & & & & & & & & & & . & 2 V w.D.Z.g.d.g.j.C.A.Y.Q.",
"M.n.n.f._ x > X X & ; ; & X & X & & & & & & & & & & & & & & & & & & & & & & X # X # & & & & & & & & & 2 i E D.k.h.f.h.N.C.A.Y.{.",
"Z.z.U.%.Y 8 , & X X # X # & & X X & & & & & & & & & @ & & X & & & & X & & & & X & & & & & & & & & & & , 8 / G.`.U.Z.Z.C.).S.T.Y.",
").(.-X1XS 2 % . & X X # # ; X X & & & & & X & & & & & & & & # & & & & & & & & & & & & # & & & & X * X $ d C t.U.U.U.U.T.C.A.A.T.",
"g.U.U.3.w $ # @ X X + + $ ; ; & & & & # & & & & & & & & & & & & & & & & & & & & & & & & & & & & & * & @ , i %.`.U.E.'.E.!.Y.U.!.",
").@XZ.w.8 ; # & & & & ; & & ; & & & & & & # & & & & & @ & & & & & & # & @ & & & & & & & & & & & * & & @ ; 7 [ z.b.!./././..X'.'.",
"%XT.K.6.f @ . & & & & ; & & * & & # & & & & & & & & & & & & & & & & & & & & & & & & & & & & & & & & & X X 2 R x.W.E./.R.Q./././.",
"}.~.<.F 6 @ & & & ; * & & & & & & & & X & & & & & & & & & & & & & & & X & & & & # & & & # & & & & & & X & , v w.)./.R.R.Q.Q.Q./.",
"/.#X5.x > & * & & & & ; & & & & & & & & & & & @ & & & & & & & & & & # & & & # & & X & & & & & & ; + X X & , t q.G.Q./.R.R.R.R.Q.",
"U.@.E y > + * & & X & & ; # & X & & & & & & & & & & @ & & & & & & & & & & & & & & & & & & & & @ & * & * & $ 2 m 3.T.R./.E.Q.Q.Q.",
"g...L y 5 & & & & X & X & & & @ & & & & & & & & & & & & & & & X X & X & & & & & & & ; & & & & @ & ; & & & # $ 9 5.B.W.E.E./.oXQ.",
"T.D.6.i , X & & & & X . & & & & & & & & & & & & & & & & & & X & & X & X & & & & & & & & & & & & ; + & & X & . > l w.H.~.E.R./.+X",
"Y.V.5.y < X X & & @ @ & & ; ; * & & & & & & & X & & & & ; & & & & X & & & & & & & * & & & & & & & & & X X & + , e Y ,.n.n.Y.Y.Y.",
"Y.,.' i , X & ; ; & & & & ; & ; X & & & & & & * & & & & & & & & & & & X & & & & & & & & & & X & ; * & X . & ; ; , p } Z.Z.U.!.Y.",
"|.V.5.i 1 & X & & & & X X X & & & & & & & & & & & & & & & & & & & & & & & & @ & ; & & & & & @ & ; ; & & & & & * ; a G X.d.b.l.v.",
"Y.V.0.i > & & & & & & & X & X & & & & & & & & & & & & & & & & & * & & & @ @ & @ + & & @ @ & & ; + ; & ; & & & & & , x [ x.b.R.R.",
"T.F.0.p < & & & & ; ; + & ; & & ; & X & X & X & X X & X & + & ; + ; ; & ; & & & & & & @ & & & & & X & . & + & & & ; 7 P ,.b.R.I.",
"C.H.w.b w 7 d a 8 g 8 g 7 7 7 7 a 7 d 6 d d 6 O s a 6 6 s a a a g a g g 6 d 6 6 6 6 d 6 6 d a 6 s 2 2 a s s 2 a 6 e p l D.~.^.Q.",
"(.U.z.%.&.w.w.w.} w.w.y.y.y.y.,Xi.i.i.p.i.i.i.r.i.a.u.8.=.=.[ =._ [ _ } ' ' ' ' ' 5.8.5.8.e.e.0.*.*.*.*.*.' =.8.w.&.>.<.H.T.@X@X",
"E.E.W.W.l.l.b.b.C.Z.Z.Z.n.U.`.`.).T.~.).).%X%X#X4X7X6X].3X5X3X].3X4X7X7X6X3X-X4X3X5X6XqXwXwX6X_.6X6X4X4X4X7X7XqX4X4X6X6X6X=X>X-X",
"'..X.XE.!.I.I.b.C.C.b.b.b.b.b.j.j.l.z.l.g.g.g.z.Z.D.Z.h.(.H.H.K.[.3X3X3XJ.3X_._.3X3X3X5X6X5X3XL.[.[.).J.[.].4X-X`.(.[.[.).).-X4X",
"~.~./..X/./.E.Y.C.U.I.b.b.b.j.j.j.d.s.d.d.d.d.d.d.g.z.z.f.f.h.f.k.O.O.O.O.O.|  .| | o.|  .o.O.h.c.c.j.h.h.f.f.k.k.g.f.f.d.g.z.N.",
"&X*X/.Q.!./.Q.R.U.M.(.M.n.I.W.M.M.b.b.n.z.b.n.l.j.l.Z.Z.z.Z.z.f.f.k.k.k.c.c.c.k.k.k.k.h.k.g.f.g.f.z.k.k.k.f.h.f.h.z.z.c.z.z.U.).",
"*XE.E./.R.I.I.I.l.v.v.v.b.b.b.b.m.M.`.`.E.W.W.E.`.U.l.U.U.l.k.C.Z.z.n.n.n.k.n.n.n.n.n.c.U.z.C.U.z.z.v.k.f.d.O.o.f.j.z.z.U.U.U.~.",
"!.E.E.W.!.U.W.E.U.n.M.M.b.M.R.m.m.m.m.m.M.`.'.'./..X'.~.~.~.R.I.I.b.n.M.M.v.v.v.v.m.E.E.'.E.E./.!.!.W.W.(.c.z.k.n.z.g.l.C.C.T.T.",
"E.'.'.'.`.`.E.'.E.E.`.`.M.M.R.m.m.m.v.v.m.m.R.I.R.!.!.Q.^.Q.!./.W.R.v.M.M.M.v.M.v.v.v.v.R.E.E.Q.Q././.~.`.`.`.`.`.`.!.Z.T.T.T.T."
};
