/* XPM */
static char *IMG_18571661775529[] = {
/* columns rows colors chars-per-pixel */
"64 64 42 1 ",
"  c #2C2D36",
". c #2D2E3C",
"X c #302F3D",
"o c #2F313E",
"O c #303136",
"+ c #33333D",
"@ c #37383D",
"# c #2E2E40",
"$ c #312F43",
"% c #2F3141",
"& c #323443",
"* c #383745",
"= c #363846",
"- c #3A3A44",
"; c #343448",
": c #383749",
"> c #37384A",
", c #3C3C4A",
"< c #44434D",
"1 c #4D4D55",
"2 c #575761",
"3 c #6B6C75",
"4 c #8F8F97",
"5 c #8F8F99",
"6 c #919095",
"7 c #979AA3",
"8 c #9C9CA4",
"9 c #A5A6AB",
"0 c #BFBDC8",
"q c #C2C2CA",
"w c #CDCCD4",
"e c #D4D3D8",
"r c #DDDDE5",
"t c #E4E4EB",
"y c #E8E9EE",
"u c #EDEEF3",
"i c #F6F5F6",
"p c #F9FAF6",
"a c #F4F5FB",
"s c #F9F7FB",
"d c #F7F8FC",
"f c #FEFEFE",
/* pixels */
"fffffffffffffffffffffffffffffpfpfpfpfffffffffffffpfpffffffpffiff",
"ffffffffffffffffffffffffffffffpfffpfpffpffdfffiffpfffffffpfffffs",
"fffffffffffffffffpffffffffffffffffpffffffffffffffpffffffffpfffff",
"fffffffffffffffffpffffffffffffffffffffffffffpfffffffffffdfffifsf",
"fffffffffffffffffpppffffffffffffffffffffffffffffffffdfffffifffff",
"fffffffffffffffffffffffffffffffffffffffffffpfffpfffffffffffsfsfs",
"ffffffffffffffffpffffffffffffffffffffffffdfdffdfffffdfffffffffsf",
"ffffffffffffffffffffffffffffffffffffffffffdff9@+&+&+&&+@Offfsfff",
"ffffffffffffffffffffffffppfffppfffffffffu1< &&++o=*++=+O6fdfffff",
"ffffffffffffffffffffffffpffpfffpfsffffroo-++,%,;=%.&&o-offffpfff",
"ffffffffffffffffffffffffffpfpfpfffau1@++*..*%%%%&%&%+O,iffffffff",
"ffffffffffffffffffffffffffiffpffyO-++++*+&&>%>;&%***&*,faffpfdfa",
"fffffffffffffffffffffffffdffdfe+=++*X+*.&;o%;%%;%=.;%offfffpffff",
"ffffffffffffffffffffffffffffw+o++*$$*$:&=&,%%&=&;o=oo3dffpfpfpfd",
"ffffffffffffffffffffffffffu &&&&&$;;*$&&%&o.>&&o&=o%%fffpfppffff",
"fffffffffffffffffpfffffff<&+%;;;;&$;$:$;&%&=&&&=o&&+3fffpfpfffpf",
"ffffffffffffpfpffffffff0&&&&&&;&&&&&&&&&&&&&&&&&=&+=sfffffffffff",
"ffffffffffffffffpffpdf<X&&;;&;&;&&&&&&&&&&&&&&&&&++Offsfffffffff",
"fffffffffffffffffffff +*&&;%;;&%&&&%&&&&&&&&&&&&&*.qffffffffffff",
"fffffffffdffffpfffdp@+&X&&&;&&&;&&&&&&&&&&&&&&&&&*+ffiifffffffff",
"fffffffffffffdfffft-.*.&&&&;&&&&&&&&&&&&&&&&&&&&*$*fafffffffffff",
"fffffffffffffdfff0- *+=&&%&;&&&&&&&&&&&&&&&&&&&&X&Xffsffffffffff",
"ffffffffffffffffroo=O.&&&;;%&&&%&&&&&&%&&&&&&&&&&*+fffffffffffff",
"fffffffffffffffi+&+&==o&%;&&&&&&&&&&&&&&&&&&&&&&&+Xffsffffffffff",
"ffffffffffffffa++&&&&&;%;;&&&&&&&&&%&&&&&&&&&&&&&+&fffffffffffff",
"ffffffffffffff+++&&&&&%;%%&&&&&&&&&&&&&&&%&&&%&&++*fffffffffffff",
"ffffffffdfdfs+-X&;%&;#&$&&&&&&%&&&&&&&&&&&&&&&&&&*-fffffffffffff",
"fffffffffffd+*X*&%;&&&;;&&&&%&&&%&&&&&&&&&&&&&&&&+&fffffffffffff",
"fffffffffff1*&*X&&&:$&&&&&&&&&&&&&&&&&&&&&&&&&&&+*@fffffffffffff",
"ffffffffffa+X&$*;;&&;;&&&&&&&&&&&&&&&&&&&&&&&&&&*+*fffffffffffff",
"ffffffffdf=O*&:$;&;&&*&&&&&%&&&&&&&&&&&&&&&&&&&&&+*fffffffffffff",
"fffffffff1o&$&:;;&&&&$&&&&&&&&&&&&&&&&&&&&&&&&&&X&+fffffffffffff",
"sfffffdfuo=o>%&>&&&&&&&&&&&&&&&&&&&&&&&&=%&=%&%==oouffffffffffff",
"fffffdffo=o&%>>%&&&&&&&&&&&&&&&&&&&&&&&&%=&&&&=%o=%ufffaffffffff",
"ifffaff8&o&>%&%>&&&&&&&&&&&&&&&&&&%&&&&&=%&&&&&%o&%7afffffffffff",
"ffdffff+&o>%>&&o&&&&&&&&&&&&&&&&&&&&&&&&%&&&&&&==%&=ffpfffpfffff",
"fsfffd7+o=o==o&=&&&&&&&&&&&&&&&&&&&&&&&&&&=&%=&&%==ouaffffffffff",
"ffffdd&=o=&&%&&=&&&&&&&&%&&&&&&&&&&&&&&&&&%&&&&&=oo=aadfffffffff",
"pfffd7=%&=oo>oo=&&&&%&&&&&&&&&&&&&&&&&&%&&%=&&&&%&&=2ddfffffffff",
"ffsfao%=%&=&&=&%%&&&&&&&&&&&&&%&&&&&&&&&&%=%=%&%&&&%=dffffffffff",
"fpfff&+;>%>%%>=%&&&&&&&&&&&&&&&&&&&&&&&&&&&&=%==&=o+$sffffffffff",
"ffff4X.*%&%;&%%%&&&&&&&&&&&&&&&&&&&&&&&&&&&&%%%&&&;=+5ffffffffff",
"fffi@+;&>%&&&&&=&&&&&&&&&&&&&&&&&&&&&&&&&%&&&=&&&%.&X<asffffffff",
"ffff &=o%>&&&%&%&&&&&&&&&&&&&&&&&&&%&&&&&&&&&&&&&;;*X+ffffffffff",
"fffi+-+&%=%%&&&&&&&&%&&&&&&&&&&&&&&&&&&&&&&&&=&&;o%%- tfffffffff",
"fff5+++&&=%=&&&&&&&&&&&&&&&&&&&&&&&&&&&%&&&%&%%=;;&&X,+fffffffff",
"fff+O+=+%%&&&&&&&&&&&&&&&&&&&&&&&&&&&&&&&&&&&&&&>%%=&X*sffffffff",
"fsfO&o=o&%&&&&&%&&&&&&&&&&&&&&&&&&&&&&&&&&&&&&&&%=&&*+X3ffffffff",
"fffX&&&&&&+&&&;;%&&;&&&&&&&&&&&&&&&&&&&&&&&&&&&&&&+&+&++ffsfffff",
"fff+;;;%&&&+&&;;;;&%%&&&&&&&&&&&&&&&%;%&&&&%%&&&&+&+&&&+&ffsfsfd",
"fffX;;&&&&o+%;;;;%;*;%;;;%&%;%;%%&%;;&&&;%%;;&;&&&&&&&&+&afsffff",
"fff&&;&&&&&&&;%;%;&&&;%&;&;&&&%;;&;;%&;*%;;%;&&;&&&&&$*&+Xffdfpf",
"ffd&&&&&&&o&&&&;&&&&&&&&&&&&&&&&&&&&&&&&;&&&&&&&&;;;%;*+*-tffffp",
"fff-&&&&&o&%&&;;&&&&&+&&&&&&&+&+&&&&&+&&%&&+&&&&;;;;;;&&X++ffffp",
"fff-++&&o@@@o&%&&+&&&+&&&&+&&&@=&&&+&&+&&&&+&@&&&&%&&&+&*@+efffp",
"fff,+=++o@+++&&&@++++++++++++++++++++++@+@++++++&&&&+&++X+OOffff",
"ffffffffddfffffapfffffffffffffffffffffdfffffffffffffffffffffffff",
"fffffffffffffffffffffffffffffffffffffdffffffffffffffffffffffffff",
"ffffffffffffffffffffffffffffffffffffffffffffffffffffffffffffffff",
"ffffffffdffffffffffffffffffffffffffffffffffffffffpffffffffffffff",
"fffffffpffffffffffffpfffffffffffffpffffffffffpfffffffffpffffffff",
"ffffffffffffffffffffffffffffffffpffffpffffffffffffffffffffffffff",
"ffffffffffffffffffffffffffffffffffffffffffffffffffffffffffffffff",
"ffffffpfffffffpfffffffffffffffffffffffffffffffffffffffffffpfffff"
};
